<?xml version="1.0" encoding="UTF-8" standalone="no"?>
<!-- Created with Inkscape (http://www.inkscape.org/) -->

<svg
   xmlns:dc="http://purl.org/dc/elements/1.1/"
   xmlns:cc="http://creativecommons.org/ns#"
   xmlns:rdf="http://www.w3.org/1999/02/22-rdf-syntax-ns#"
   xmlns:svg="http://www.w3.org/2000/svg"
   xmlns="http://www.w3.org/2000/svg"
   xmlns:xlink="http://www.w3.org/1999/xlink"
   xmlns:sodipodi="http://sodipodi.sourceforge.net/DTD/sodipodi-0.dtd"
   xmlns:inkscape="http://www.inkscape.org/namespaces/inkscape"
   id="svg2"
   version="1.1"
   inkscape:version="0.92.3 (2405546, 2018-03-11)"
   width="128"
   height="128"
   sodipodi:docname="icon.svg"
   inkscape:export-filename="/var/lib/odoo/lolitasyl/addons/trey-addons/delivery_carrier_tracking_correos/static/description/icon.png"
   inkscape:export-xdpi="96"
   inkscape:export-ydpi="96">
  <metadata
     id="metadata8">
    <rdf:RDF>
      <cc:Work
         rdf:about="">
        <dc:format>image/svg+xml</dc:format>
        <dc:type
           rdf:resource="http://purl.org/dc/dcmitype/StillImage" />
        <dc:title />
      </cc:Work>
    </rdf:RDF>
  </metadata>
  <defs
     id="defs6">
    <symbol
       id="symbol5748">
      <title
         id="title5750">Grade</title>
      <path
         d="M24 34.54l12.36 7.46-3.27-14.06 10.91-9.45-14.38-1.24-5.62-13.25-5.62 13.25-14.38 1.24 10.91 9.45-3.27 14.06z"
         style="stroke:none"
         id="path5752" />
    </symbol>
    <symbol
       id="symbol4786">
      <title
         id="title4788">Person</title>
      <path
         d="M24 24c4.42 0 8-3.59 8-8 0-4.42-3.58-8-8-8s-8 3.58-8 8c0 4.41 3.58 8 8 8zm0 4c-5.33 0-16 2.67-16 8v4h32v-4c0-5.33-10.67-8-16-8z"
         style="stroke:none"
         id="path4790" />
    </symbol>
    <symbol
       id="symbol5791">
      <title
         id="title5793">Https</title>
      <path
         d="M36 16h-2v-4c0-5.52-4.48-10-10-10s-10 4.48-10 10v4h-2c-2.21 0-4 1.79-4 4v20c0 2.21 1.79 4 4 4h24c2.21 0 4-1.79 4-4v-20c0-2.21-1.79-4-4-4zm-12 18c-2.21 0-4-1.79-4-4s1.79-4 4-4 4 1.79 4 4-1.79 4-4 4zm6.2-18h-12.4v-4c0-3.42 2.78-6.2 6.2-6.2 3.42 0 6.2 2.78 6.2 6.2v4z"
         style="stroke:none"
         id="path5795" />
    </symbol>
    <symbol
       id="symbol5857">
      <title
         id="title5859">Lock Open</title>
      <path
         d="M24 34c2.21 0 4-1.79 4-4s-1.79-4-4-4-4 1.79-4 4 1.79 4 4 4zm12-18h-2v-4c0-5.52-4.48-10-10-10s-10 4.48-10 10h3.8c0-3.42 2.78-6.2 6.2-6.2 3.42 0 6.2 2.78 6.2 6.2v4h-18.2c-2.21 0-4 1.79-4 4v20c0 2.21 1.79 4 4 4h24c2.21 0 4-1.79 4-4v-20c0-2.21-1.79-4-4-4zm0 24h-24v-20h24v20z"
         style="stroke:none"
         id="path5861" />
    </symbol>
    <symbol
       id="symbol10530">
      <title
         id="title10532">Local Grocery Store</title>
      <path
         d="M14 36c-2.21 0-3.98 1.79-3.98 4s1.77 4 3.98 4 4-1.79 4-4-1.79-4-4-4zM2 4v4h4l7.19 15.17-2.7 4.9c-.31.58-.49 1.23-.49 1.93 0 2.21 1.79 4 4 4h24v-4H14.85c-.28 0-.5-.22-.5-.5 0-.09.02-.17.06-.24L16.2 26h14.9c1.5 0 2.81-.83 3.5-2.06l7.15-12.98c.16-.28.25-.61.25-.96 0-1.11-.9-2-2-2H10.43l-1.9-4H2zm32 32c-2.21 0-3.98 1.79-3.98 4s1.77 4 3.98 4 4-1.79 4-4-1.79-4-4-4z"
         style="stroke:none"
         id="path10534" />
    </symbol>
    <symbol
       id="symbol5119">
      <title
         id="title5121">Mail</title>
      <path
         d="M40 8h-32c-2.21 0-3.98 1.79-3.98 4l-.02 24c0 2.21 1.79 4 4 4h32c2.21 0 4-1.79 4-4v-24c0-2.21-1.79-4-4-4zm0 8l-16 10-16-10v-4l16 10 16-10v4z"
         style="stroke:none"
         id="path5123" />
    </symbol>
    <symbol
       id="symbol7506">
      <title
         id="title7508">Check</title>
      <path
         d="M18 32.34L9.66 24l-2.83 2.83L18 38l24-24-2.83-2.83z"
         style="stroke:none"
         id="path7510" />
    </symbol>
    <clipPath
       clipPathUnits="userSpaceOnUse"
       id="clipPath13866">
      <rect
         style="opacity:1;fill:#d50000;fill-opacity:1;stroke:none;stroke-width:4;stroke-linecap:butt;stroke-linejoin:miter;stroke-miterlimit:4;stroke-dasharray:none;stroke-dashoffset:0;stroke-opacity:1"
         id="rect13868"
         width="33.185184"
         height="17.777779"
         x="7.4074073"
         y="-0.53565156" />
    </clipPath>
    <symbol
       id="symbol6463">
      <title
         id="title6465">Public</title>
      <path
         d="M24 4C12.95 4 4 12.95 4 24s8.95 20 20 20 20-8.95 20-20S35.05 4 24 4zm-2 35.86C14.11 38.88 8 32.16 8 24c0-1.23.15-2.43.42-3.58L18 30v2c0 2.21 1.79 4 4 4v3.86zm13.79-5.07C35.28 33.17 33.78 32 32 32h-2v-6c0-1.1-.9-2-2-2H16v-4h4c1.1 0 2-.9 2-2v-4h4c2.21 0 4-1.79 4-4v-.83c5.86 2.37 10 8.11 10 14.83 0 4.16-1.6 7.94-4.21 10.79z"
         style="stroke:none"
         id="path6467" />
    </symbol>
    <symbol
       id="icon-desktop"
       viewBox="0 0 30 28">
      <title
         id="title7684">desktop</title>
      <path
         class="path1"
         d="M28 15.5v-13c0-0.266-0.234-0.5-0.5-0.5h-25c-0.266 0-0.5 0.234-0.5 0.5v13c0 0.266 0.234 0.5 0.5 0.5h25c0.266 0 0.5-0.234 0.5-0.5zM30 2.5v17c0 1.375-1.125 2.5-2.5 2.5h-8.5c0 1.328 1 2.453 1 3s-0.453 1-1 1h-8c-0.547 0-1-0.453-1-1 0-0.578 1-1.641 1-3h-8.5c-1.375 0-2.5-1.125-2.5-2.5v-17c0-1.375 1.125-2.5 2.5-2.5h25c1.375 0 2.5 1.125 2.5 2.5z"
         id="path7686" />
    </symbol>
    <symbol
       id="icon-window-maximize"
       viewBox="0 0 28 28">
      <title
         id="title9794">window-maximize</title>
      <path
         class="path1"
         d="M4 22h20v-12h-20v12zM28 4.5v19c0 1.375-1.125 2.5-2.5 2.5h-23c-1.375 0-2.5-1.125-2.5-2.5v-19c0-1.375 1.125-2.5 2.5-2.5h23c1.375 0 2.5 1.125 2.5 2.5z"
         id="path9796" />
    </symbol>
    <inkscape:perspective
       id="perspective10" />
    <inkscape:perspective
       id="perspective2400" />
  </defs>
  <sodipodi:namedview
     pagecolor="#ffffff"
     bordercolor="#666666"
     borderopacity="1"
     objecttolerance="10"
     gridtolerance="10"
     guidetolerance="10"
     inkscape:pageopacity="0"
     inkscape:pageshadow="2"
     inkscape:window-width="1920"
     inkscape:window-height="1025"
     id="namedview4"
     showgrid="false"
     inkscape:zoom="2.8284272"
     inkscape:cx="56.550842"
     inkscape:cy="103.23833"
     inkscape:window-x="1920"
     inkscape:window-y="27"
     inkscape:window-maximized="1"
     inkscape:current-layer="layer1"
     showguides="true"
     inkscape:guide-bbox="true">
    <sodipodi:guide
       position="64,100.23239"
       orientation="1,0"
       id="guide5698"
       inkscape:label=""
       inkscape:color="rgb(0,0,255)"
       inkscape:locked="false" />
    <sodipodi:guide
       position="88.741901,64"
       orientation="0,1"
       id="guide5700"
       inkscape:label=""
       inkscape:color="rgb(0,0,255)"
       inkscape:locked="false" />
  </sodipodi:namedview>
  <g
     inkscape:groupmode="layer"
     id="layer1"
     inkscape:label="Layer 1">
    <use
       id="use14733"
       style="fill:#174267;fill-opacity:1;stroke:none"
       xlink:href="#symbol5448"
       x="0"
       y="0"
       width="100%"
       height="100%"
       transform="matrix(1.75,0,0,1.75,22,23.5)" />
    <use
       id="use14733-3"
       style="fill:#174267;fill-opacity:1;stroke:none"
       xlink:href="#symbol5448"
       x="0"
       y="0"
       width="100%"
       height="100%"
       transform="matrix(1.75,0,0,1.75,22,23.5)" />
    <use
       id="use14733-6"
       style="fill:#174267;fill-opacity:1;stroke:none"
       xlink:href="#symbol5448"
       x="0"
       y="0"
       width="100%"
       height="100%"
       transform="matrix(1.75,0,0,1.75,22,23.5)" />
    <g
       id="g16412"
       transform="translate(0,11.823714)">
      <g
         transform="matrix(0.18256066,0,0,0.18256066,128.14098,-21.581447)"
         id="g16393">
        <path
           inkscape:connector-curvature="0"
           id="path849"
           style="fill:#193c6b;fill-opacity:1;fill-rule:nonzero;stroke:none;stroke-width:5.21136189"
           d="m -365.4452,339.08324 c 0,7.79626 6.31616,14.13846 14.10191,14.13846 7.78579,0 14.10716,-6.3422 14.10716,-14.13846 0,-7.80661 -6.32137,-14.13849 -14.10716,-14.13849 -7.78575,0 -14.10191,6.33188 -14.10191,14.13849 m 97.96317,-42.40483 c -3.88245,28.20386 -22.08575,51.83226 -47.0117,63.26589 -10.36539,4.75272 -21.88773,7.40542 -34.02497,7.40542 h -2.82459 c -15.58193,0 -28.20907,-12.65329 -28.20907,-28.26648 0,-15.61323 12.62714,-28.26648 28.20907,-28.26648 15.5768,0 28.20911,12.65325 28.20911,28.26648 0,3.48125 -0.63061,6.81124 -1.77184,9.89643 5.68036,-2.12633 11.00636,-4.99261 15.85296,-8.47888 0,0 0.0189,-0.94398 0.0189,-1.41815 0,-23.41996 -18.9433,-42.40494 -42.31106,-42.40494 -23.36772,0 -42.31623,18.98498 -42.31623,42.40494 0,23.40933 18.94851,42.39964 42.31623,42.39964 17.33821,0 33.62892,-4.4818 47.79342,-12.34053 26.46848,-14.70131 45.47954,-41.23234 49.94048,-72.46405 z m -140.27944,0 h -41.31048 c 4.45571,31.2316 23.47198,57.76275 49.93529,72.46394 -5.46675,-8.703 -8.62481,-19.0162 -8.62481,-30.05911 z m 169.25983,-14.13849 c 0,62.45299 -50.51898,113.07613 -112.84165,113.07613 -62.31745,0 -112.83639,-50.62314 -112.83639,-113.07613 h 70.52016 v 19.1413 c 10.34456,-11.73074 25.46793,-19.1413 42.31623,-19.1413 27.43261,0 50.29486,19.62081 55.37072,45.61516 9.2919,-11.44948 14.94101,-25.99435 15.15466,-41.86296 v -3.7522 z" />
        <path
           inkscape:connector-curvature="0"
           id="path853"
           style="fill:#193c6b;fill-opacity:1;fill-rule:nonzero;stroke:none;stroke-width:5.21136189"
           d="m -351.34064,238.12193 h -7.05619 v -26.24958 c -7.78579,0 -14.10195,6.32655 -14.10195,14.13846 0,5.13842 2.73596,9.64105 6.83732,12.11112 h -18.22934 c -1.74063,-3.674 -2.71514,-7.78046 -2.71514,-12.11112 0,-4.97163 1.28194,-9.64101 3.52811,-13.69546 -1.13083,-0.28649 -2.30865,-0.44315 -3.52811,-0.44315 -7.78579,0 -14.10195,6.32655 -14.10195,14.13846 0,5.13842 2.74118,9.64104 6.83732,12.11112 h -18.22934 c -1.74063,-3.67401 -2.71514,-7.78042 -2.71514,-12.11112 0,-15.61319 12.63235,-28.27162 28.20911,-28.27162 5.13842,0 9.9589,1.37529 14.10716,3.77816 4.14826,-2.40242 8.96874,-3.77816 14.10195,-3.77816 2.43889,0 4.80487,0.30727 7.05619,0.89076 2.25131,-0.58353 4.61204,-0.89076 7.04575,-0.89076 5.1436,0 9.95891,1.37529 14.10717,3.77816 4.15343,-2.40242 8.96874,-3.77816 14.11238,-3.77816 15.57154,0 28.20907,12.65843 28.20907,28.27162 0,4.3307 -0.9797,8.43711 -2.7151,12.11112 h -18.22934 c 4.0961,-2.47008 6.83727,-6.9727 6.83727,-12.11112 0,-7.81191 -6.31615,-14.13846 -14.1019,-14.13846 -1.21947,0 -2.39725,0.15647 -3.53333,0.44315 2.25131,4.05445 3.53333,8.72383 3.53333,13.69546 0,4.33066 -0.97973,8.43712 -2.72036,12.11112 h -18.22412 c 4.09092,-2.47007 6.8321,-6.9727 6.8321,-12.11112 0,-7.81191 -6.31098,-14.13846 -14.10717,-14.13846 v 26.24958 z" />
        <path
           inkscape:connector-curvature="0"
           id="path857"
           style="fill:#193c6b;fill-opacity:1;fill-rule:nonzero;stroke:none;stroke-width:5.21136189"
           d="m -412.09734,250.44534 c 0,-4.71118 3.81471,-8.53621 8.52578,-8.53621 4.70067,0 8.51539,3.82503 8.51539,8.53621 0,4.72139 -3.81472,8.54139 -8.51539,8.54139 -4.71107,0 -8.52578,-3.82 -8.52578,-8.54139" />
        <path
           inkscape:connector-curvature="0"
           id="path861"
           style="fill:#193c6b;fill-opacity:1;fill-rule:nonzero;stroke:none;stroke-width:5.21136189"
           d="m -307.63037,250.44534 c 0,-4.71118 3.81993,-8.53621 8.52057,-8.53621 4.71107,0 8.52578,3.82503 8.52578,8.53621 0,4.72139 -3.81471,8.54139 -8.52578,8.54139 -4.70064,0 -8.52057,-3.82 -8.52057,-8.54139" />
        <path
           inkscape:connector-curvature="0"
           id="path865"
           style="fill:#193c6b;fill-opacity:1;fill-rule:nonzero;stroke:none;stroke-width:5.21136189"
           d="m -333.74762,250.44534 c 0,-4.71118 3.81993,-8.53621 8.52578,-8.53621 4.70589,0 8.52061,3.82503 8.52061,8.53621 0,4.72139 -3.81472,8.54139 -8.52061,8.54139 -4.70585,0 -8.52578,-3.82 -8.52578,-8.54139" />
        <path
           inkscape:connector-curvature="0"
           id="path869"
           style="fill:#193c6b;fill-opacity:1;fill-rule:nonzero;stroke:none;stroke-width:5.21136189"
           d="m -359.86121,250.44534 c 0,-4.71118 3.81468,-8.53621 8.52578,-8.53621 4.70064,0 8.51535,3.82503 8.51535,8.53621 0,4.72139 -3.81471,8.54139 -8.51535,8.54139 -4.7111,0 -8.52578,-3.82 -8.52578,-8.54139" />
        <path
           inkscape:connector-curvature="0"
           id="path873"
           style="fill:#193c6b;fill-opacity:1;fill-rule:nonzero;stroke:none;stroke-width:5.21136189"
           d="m -385.97903,250.44534 c 0,-4.71118 3.81471,-8.53621 8.52057,-8.53621 4.70585,0 8.5206,3.82503 8.5206,8.53621 0,4.72139 -3.81475,8.54139 -8.5206,8.54139 -4.70586,0 -8.52057,-3.82 -8.52057,-8.54139" />
        <path
           inkscape:connector-curvature="0"
           id="path875"
           style="fill:#193c6b;fill-opacity:1;fill-rule:nonzero;stroke:none;stroke-width:5.21136189"
           d="m -393.65899,263.70192 h 84.6325 v 14.1385 h -84.6325 z" />
        <path
           inkscape:connector-curvature="0"
           id="path887"
           style="fill:#193c6b;fill-opacity:1;fill-rule:nonzero;stroke:none;stroke-width:5.21136189"
           d="m -353.69045,182.23485 v -3.34564 h -4.70585 v -4.70589 h 4.70585 v -4.71107 h 4.70064 v 4.71107 h 4.70063 v 4.70589 h -4.70063 v 3.34564 c 2.73596,0.97496 4.70063,3.59055 4.70063,6.66527 0,3.90331 -3.15284,7.07184 -7.05093,7.07184 -3.89813,0 -7.05619,-3.16853 -7.05619,-7.07184 0,-3.07472 1.96467,-5.69076 4.70585,-6.66527" />
      </g>
      <g
         transform="matrix(0.18256066,0,0,0.18256066,48.944364,6.9102488)"
         id="g16368">
        <path
           inkscape:connector-curvature="0"
           id="path891"
           style="fill:#193c6b;fill-opacity:1;fill-rule:nonzero;stroke:none;stroke-width:7.43986845"
           d="m -102.01206,334.97546 c -12.92308,7.72248 -28.63609,13.79354 -41.06064,14.38866 -13.41407,0.66217 -28.16735,-1.72513 -32.31133,-15.15507 -6.09325,-19.75276 6.05605,-44.93685 21.88063,-53.36603 21.91041,-11.68063 40.10831,-5.35676 46.35039,1.05653 l 4.56808,-23.5771 c -9.27008,-4.09936 -21.97738,-5.83269 -26.71661,-5.83269 -33.07015,0 -48.97661,16.12963 -58.91627,29.514 -11.15981,15.0582 -26.05443,52.9793 1.63675,79.18979 8.25824,7.81935 23.33143,12.61062 37.61596,11.6211 22.53536,-1.57746 36.33634,-7.9977 49.504898,-17.49108 0.654614,1.42771 1.413657,2.76756 2.276599,4.01011 5.75845,8.29554 16.263534,12.45438 31.448277,12.45438 25.258432,0 41.92373,-9.90255 47.020045,-38.42703 l 1.621984,-9.49315 c 0.185575,-0.90051 0.364725,-1.93387 0.520668,-3.04297 0.40902,-2.84939 0.677027,-6.16762 0.677027,-8.87569 0,-21.53843 -13.161147,-30.91261 -36.537261,-30.91261 -24.990501,0 -41.246627,9.77598 -46.893506,38.28548 13.711673,-8.97248 27.140675,-18.20541 44.609424,-18.20541 9.679295,0 12.625512,3.88357 12.625512,11.10772 0,2.35843 -0.118299,4.84343 -0.773782,8.60051 -0.05896,0.30576 -0.103559,0.59471 -0.16441,0.90678 l -1.748334,9.36688 c -3.087496,15.25168 -7.25382,20.60833 -19.075805,20.60833 -8.994784,0 -12.357619,-3.07249 -12.357619,-10.83972 -0.132661,-2.69333 0.453771,-7.86403 0.796082,-9.76861 0.349607,-1.898 2.737928,-13.01971 2.737928,-13.01971 0,0 -16.293317,9.10639 -29.335367,16.89596" />
        <path
           inkscape:connector-curvature="0"
           id="path895"
           style="fill:#193c6b;fill-opacity:1;fill-rule:nonzero;stroke:none;stroke-width:7.43986845"
           d="m 54.159,281.28568 c -9.374249,0 -20.504277,1.45724 -30.28029,9.33691 l 1.205253,-7.06794 H 0.69603242 l -15.27401542,85.9604 h 26.38919 l 11.122659,-62.33117 c 7.105058,-2.14273 17.825915,-3.87629 27.34148,-3.87629 z" />
        <path
           inkscape:connector-curvature="0"
           id="path899"
           style="fill:#193c6b;fill-opacity:1;fill-rule:nonzero;stroke:none;stroke-width:7.43986845"
           d="m 115.38837,281.28568 c -9.36681,0 -20.362926,1.45724 -30.280293,9.33691 l 1.339163,-7.06794 H 62.06683 l -15.274054,85.9604 h 26.389229 l 11.122583,-62.33117 c 7.105058,-2.14273 17.818472,-3.87629 27.334112,-3.87629 z" />
        <path
           inkscape:connector-curvature="0"
           id="path903"
           style="fill:#193c6b;fill-opacity:1;fill-rule:nonzero;stroke:none;stroke-width:7.43986845"
           d="m 337.02576,298.90603 c 6.56198,0 16.88107,0.66221 27.60197,1.73359 l 2.67832,-15.88414 c -6.56194,-1.73987 -17.82591,-3.46689 -30.82337,-3.46689 -20.0951,0 -39.52804,4.26301 -39.52804,26.96217 0,12.55094 7.1051,20.02798 20.23646,25.21361 l 6.43548,2.54449 c 9.2403,3.87621 11.25653,5.20781 11.25653,9.34446 0,7.33573 -6.83728,8.80884 -15.2815,8.80884 -12.72215,0 -17.81102,-1.06504 -29.075,-1.58381 l -2.68581,15.73523 c 4.56809,1.33916 18.23513,3.33316 30.29515,3.33316 24.51439,0 43.1438,-7.32835 43.1438,-29.75943 0,-12.01546 -6.03372,-18.68905 -21.03251,-24.56663 l -7.24641,-2.7973 c -7.09765,-2.9314 -9.90988,-4.41188 -9.90988,-8.00531 0,-7.34332 7.63328,-7.61117 13.93481,-7.61117" />
        <path
           inkscape:connector-curvature="0"
           id="path907"
           style="fill:#193c6b;fill-opacity:1;fill-rule:nonzero;stroke:none;stroke-width:7.43986845"
           d="m 259.43837,321.86628 -1.87483,9.33714 c -2.94618,15.22185 -7.10506,20.5562 -18.88982,20.5562 -8.97993,0 -12.46926,-3.07249 -12.46926,-10.80997 0,-2.93141 0.14135,-6.00393 0.93747,-9.74623 l 1.88221,-9.33714 c 2.80486,-15.22189 7.23152,-20.55624 18.75594,-20.55624 9.65692,0 12.46919,3.86865 12.46919,11.07787 0,2.53701 0,5.2004 -0.8109,9.47837 m -9.38169,-40.57704 c -25.0574,0 -41.26893,9.73149 -46.75952,38.17394 l -1.74093,8.27312 c -1.07135,5.20804 -1.07135,9.2106 -1.07135,13.21335 0,20.55628 12.45438,30.83818 36.16521,30.83818 25.33277,0 41.9534,-9.88014 47.04227,-38.32282 l 1.60701,-9.46341 c 0.53583,-3.20666 1.20526,-8.14662 1.20526,-11.88896 0,-21.48627 -13.13137,-30.8234 -36.44795,-30.8234" />
        <path
           inkscape:connector-curvature="0"
           id="path911"
           style="fill:#193c6b;fill-opacity:1;fill-rule:nonzero;stroke:none;stroke-width:7.43986845"
           d="m 168.45471,319.32187 h -30.94983 l 0.40199,-1.19792 c 1.60702,-9.35184 5.49059,-18.1533 18.36155,-18.1533 10.18522,0 13.11651,5.07413 13.11651,11.47241 0,2.00769 -0.39443,4.69452 -0.93007,7.87881 m -9.78338,-38.04004 c -25.0501,0 -42.87594,10.40825 -47.96485,40.58445 l -0.66962,4.53827 c -0.94481,5.20063 -1.60694,10.14059 -1.60694,14.41856 0,21.74672 13.25783,30.95731 38.04744,30.95731 15.408,0 27.8772,-2.13528 34.98225,-3.72752 l 2.8049,-17.35699 c -16.204,1.06292 -23.71827,1.48048 -32.69076,1.48048 -13.93489,0 -17.68459,-3.48185 -17.68459,-10.42344 0,-1.86637 0.40195,-4.27775 1.06397,-8.14662 h 56.6843 c 1.74096,-8.80128 2.54449,-14.80536 2.54449,-20.8241 0,-18.68898 -10.19263,-31.5004 -35.51048,-31.5004" />
      </g>
    </g>
  </g>
</svg>
