<?xml version="1.0" encoding="UTF-8" standalone="no"?>
<!-- Created with Inkscape (http://www.inkscape.org/) -->

<svg
   xmlns:dc="http://purl.org/dc/elements/1.1/"
   xmlns:cc="http://creativecommons.org/ns#"
   xmlns:rdf="http://www.w3.org/1999/02/22-rdf-syntax-ns#"
   xmlns:svg="http://www.w3.org/2000/svg"
   xmlns="http://www.w3.org/2000/svg"
   xmlns:xlink="http://www.w3.org/1999/xlink"
   xmlns:sodipodi="http://sodipodi.sourceforge.net/DTD/sodipodi-0.dtd"
   xmlns:inkscape="http://www.inkscape.org/namespaces/inkscape"
   width="100"
   height="79"
   viewBox="0 0 26.458333 20.902084"
   version="1.1"
   id="svg8"
   inkscape:version="0.92.3 (2405546, 2018-03-11)"
   sodipodi:docname="snippet_mail_unsubscribe_link.svg"
   inkscape:export-filename="/var/lib/odoo/atrapada/addons/trey-addons/mass_mailing_unsubscribe_snippet/static/src/img/snippet_mail_unsubscribe_link.png"
   inkscape:export-xdpi="96"
   inkscape:export-ydpi="96">
  <defs
     id="defs2">
    <inkscape:perspective
       sodipodi:type="inkscape:persp3d"
       inkscape:vp_x="0 : 10.451042 : 1"
       inkscape:vp_y="0 : 1000 : 0"
       inkscape:vp_z="26.458333 : 10.451042 : 1"
       inkscape:persp3d-origin="13.229166 : 6.9673613 : 1"
       id="perspective27202" />
    <symbol
       id="symbol7599">
      <title
         id="title7595">Highlight Remove</title>
      <path
         inkscape:connector-curvature="0"
         d="M 7.7178958,4.2333333 6.35,5.6012292 4.9821042,4.2333333 4.2333333,4.9821042 5.6012292,6.35 4.2333333,7.7178958 4.9821042,8.4666667 6.35,7.0987708 7.7178958,8.4666667 8.4666667,7.7178958 7.0987708,6.35 8.4666667,4.9821042 Z M 6.35,1.0583333 c -2.9236458,0 -5.2916667,2.3680209 -5.2916667,5.2916667 0,2.9236458 2.3680209,5.291667 5.2916667,5.291667 2.9236458,0 5.291667,-2.3680212 5.291667,-5.291667 0,-2.9236458 -2.3680212,-5.2916667 -5.291667,-5.2916667 z m 0,9.5249997 c -2.333625,0 -4.2333333,-1.899708 -4.2333333,-4.233333 0,-2.333625 1.8997083,-4.2333333 4.2333333,-4.2333333 2.333625,0 4.233333,1.8997083 4.233333,4.2333333 0,2.333625 -1.899708,4.233333 -4.233333,4.233333 z"
         style="stroke:none;stroke-width:0.26458332"
         id="path7597" />
    </symbol>
    <symbol
       id="symbol9661">
      <title
         id="title9657">Email</title>
      <path
         inkscape:connector-curvature="0"
         d="M 10.583333,2.1166667 H 2.1166667 C 1.5319375,2.1166667 1.063625,2.5902708 1.063625,3.175 l -0.00529,6.35 c 0,0.584729 0.4736042,1.058333 1.0583334,1.058333 h 8.4666666 c 0.584729,0 1.058334,-0.473604 1.058334,-1.058333 v -6.35 c 0,-0.5847292 -0.473605,-1.0583333 -1.058334,-1.0583333 z m 0,2.1166666 L 6.35,6.8791667 2.1166667,4.2333333 V 3.175 L 6.35,5.8208333 10.583333,3.175 Z"
         style="stroke:none;stroke-width:0.26458332"
         id="path9659" />
    </symbol>
    <symbol
       id="symbol10597">
      <path
         style="stroke-width:0.26458332"
         inkscape:connector-curvature="0"
         d="m 141.08642,101.48623 v -4.535753 q -0.18899,0.212614 -0.40751,0.389784 -1.5828,1.216634 -2.51593,1.996202 -0.3012,0.253955 -0.49019,0.395711 -0.18899,0.141743 -0.51382,0.289406 -0.31893,0.14174 -0.60241,0.14174 h -0.006 -0.006 q -0.28347,0 -0.6083,-0.14174 -0.31893,-0.147656 -0.50792,-0.289406 -0.18899,-0.141743 -0.49019,-0.395711 -0.93314,-0.779595 -2.51593,-1.996202 -0.21852,-0.177178 -0.40751,-0.389784 v 4.535753 q 0,0.0768 0.0532,0.13584 0.0591,0.0532 0.13584,0.0532 h 8.69368 q 0.0768,0 0.12993,-0.0532 0.0591,-0.0591 0.0591,-0.13584 z m 0,-6.207126 q 0,-0.0118 0,-0.06497 0,-0.05315 0,-0.07678 0,-0.02953 -0.006,-0.07678 0,-0.05315 -0.0177,-0.07678 -0.0118,-0.02363 -0.0295,-0.05315 -0.0177,-0.02953 -0.0532,-0.04134 -0.0354,-0.01773 -0.0827,-0.01773 h -8.69367 q -0.0768,0 -0.13584,0.05906 -0.0532,0.05315 -0.0532,0.129929 0,0.992188 0.86817,1.6773 1.13986,0.897705 2.36829,1.872191 0.0354,0.02953 0.20671,0.177179 0.17127,0.141742 0.27167,0.218519 0.1004,0.07678 0.25986,0.188989 0.16537,0.106307 0.3012,0.159462 0.13584,0.05315 0.25396,0.05315 h 0.006 0.006 q 0.11812,0 0.25395,-0.05315 0.13584,-0.05316 0.29531,-0.159462 0.16536,-0.112212 0.26577,-0.188989 0.1004,-0.07678 0.27167,-0.218519 0.17128,-0.147648 0.20671,-0.177179 1.22844,-0.974486 2.36829,-1.872191 0.31893,-0.253955 0.5906,-0.679186 0.27757,-0.431138 0.27757,-0.779594 z m 0.75596,-0.218522 v 6.425668 q 0,0.38979 -0.27757,0.66739 -0.27757,0.27757 -0.66739,0.27757 h -8.69367 q -0.38979,0 -0.66739,-0.27757 -0.27757,-0.27758 -0.27757,-0.66739 v -6.425668 q 0,-0.389784 0.27757,-0.667358 0.27758,-0.277575 0.66739,-0.277575 h 8.69367 q 0.38979,0 0.66739,0.277575 0.27757,0.277574 0.27757,0.667358 z"
         id="path10595" />
    </symbol>
  </defs>
  <sodipodi:namedview
     id="base"
     pagecolor="#ffffff"
     bordercolor="#666666"
     borderopacity="1.0"
     inkscape:pageopacity="0.0"
     inkscape:pageshadow="2"
     inkscape:zoom="3.959798"
     inkscape:cx="98.036488"
     inkscape:cy="29.534426"
     inkscape:document-units="mm"
     inkscape:current-layer="layer1"
     showgrid="false"
     units="px"
     inkscape:window-width="1920"
     inkscape:window-height="1025"
     inkscape:window-x="1920"
     inkscape:window-y="27"
     inkscape:window-maximized="1" />
  <metadata
     id="metadata5">
    <rdf:RDF>
      <cc:Work
         rdf:about="">
        <dc:format>image/svg+xml</dc:format>
        <dc:type
           rdf:resource="http://purl.org/dc/dcmitype/StillImage" />
        <dc:title></dc:title>
      </cc:Work>
    </rdf:RDF>
  </metadata>
  <g
     inkscape:label="Capa 1"
     inkscape:groupmode="layer"
     id="layer1"
     transform="translate(0,-276.0979)">
    <rect
       style="opacity:1;vector-effect:none;fill:#ffffff;fill-opacity:1;stroke:none;stroke-width:0.05279746;stroke-linecap:butt;stroke-linejoin:miter;stroke-miterlimit:10;stroke-dasharray:none;stroke-dashoffset:0;stroke-opacity:1"
       id="rect27200"
       width="26.458334"
       height="20.902082"
       x="0"
       y="276.0979" />
    <use
       id="use24993"
       transform="matrix(1.4299071,0,0,1.4299071,-182.02548,146.02707)"
       style="fill:#717576;fill-opacity:1"
       xlink:href="#symbol10597"
       x="0"
       y="0"
       width="100%"
       height="100%" />
    <g
       id="g27206"
       transform="matrix(0.72852151,0,0,0.72852151,3.6673162,79.904194)">
      <circle
         r="4.365623"
         cy="288.50269"
         cx="22.005398"
         id="path27176"
         style="opacity:1;vector-effect:none;fill:#ffffff;fill-opacity:1;stroke:#ffffff;stroke-width:0.02645833;stroke-linecap:butt;stroke-linejoin:miter;stroke-miterlimit:10;stroke-dasharray:none;stroke-dashoffset:0;stroke-opacity:1" />
      <use
         height="100%"
         width="100%"
         y="0"
         x="0"
         xlink:href="#symbol7599"
         style="fill:#717576;fill-opacity:1;stroke:#000000"
         transform="translate(15.655398,282.1527)"
         id="use22226" />
    </g>
    <use
       id="use23619"
       transform="translate(-23.075448,274.586)"
       style="fill:#000000;stroke:#000000"
       xlink:href="#symbol9661"
       x="0"
       y="0"
       width="100%"
       height="100%" />
  </g>
</svg>
