<?xml version="1.0" encoding="UTF-8" standalone="no"?>
<!-- Created with Inkscape (http://www.inkscape.org/) -->

<svg
   xmlns:dc="http://purl.org/dc/elements/1.1/"
   xmlns:cc="http://creativecommons.org/ns#"
   xmlns:rdf="http://www.w3.org/1999/02/22-rdf-syntax-ns#"
   xmlns:svg="http://www.w3.org/2000/svg"
   xmlns="http://www.w3.org/2000/svg"
   xmlns:xlink="http://www.w3.org/1999/xlink"
   xmlns:sodipodi="http://sodipodi.sourceforge.net/DTD/sodipodi-0.dtd"
   xmlns:inkscape="http://www.inkscape.org/namespaces/inkscape"
   id="svg2"
   version="1.1"
   inkscape:version="0.92.3 (2405546, 2018-03-11)"
   width="128"
   height="128"
   sodipodi:docname="icon.svg"
   inkscape:export-filename="/var/lib/odoo/cadesum/addons/trey-addons/print_formats_base/static/description/icon.png"
   inkscape:export-xdpi="96"
   inkscape:export-ydpi="96">
  <metadata
     id="metadata8">
    <rdf:RDF>
      <cc:Work
         rdf:about="">
        <dc:format>image/svg+xml</dc:format>
        <dc:type
           rdf:resource="http://purl.org/dc/dcmitype/StillImage" />
        <dc:title />
      </cc:Work>
    </rdf:RDF>
  </metadata>
  <defs
     id="defs6">
    <symbol
       id="symbol5748">
      <title
         id="title5750">Grade</title>
      <path
         d="M24 34.54l12.36 7.46-3.27-14.06 10.91-9.45-14.38-1.24-5.62-13.25-5.62 13.25-14.38 1.24 10.91 9.45-3.27 14.06z"
         style="stroke:none"
         id="path5752" />
    </symbol>
    <symbol
       id="symbol4786">
      <title
         id="title4788">Person</title>
      <path
         d="M24 24c4.42 0 8-3.59 8-8 0-4.42-3.58-8-8-8s-8 3.58-8 8c0 4.41 3.58 8 8 8zm0 4c-5.33 0-16 2.67-16 8v4h32v-4c0-5.33-10.67-8-16-8z"
         style="stroke:none"
         id="path4790" />
    </symbol>
    <symbol
       id="symbol5791">
      <title
         id="title5793">Https</title>
      <path
         d="M36 16h-2v-4c0-5.52-4.48-10-10-10s-10 4.48-10 10v4h-2c-2.21 0-4 1.79-4 4v20c0 2.21 1.79 4 4 4h24c2.21 0 4-1.79 4-4v-20c0-2.21-1.79-4-4-4zm-12 18c-2.21 0-4-1.79-4-4s1.79-4 4-4 4 1.79 4 4-1.79 4-4 4zm6.2-18h-12.4v-4c0-3.42 2.78-6.2 6.2-6.2 3.42 0 6.2 2.78 6.2 6.2v4z"
         style="stroke:none"
         id="path5795" />
    </symbol>
    <symbol
       id="symbol5857">
      <title
         id="title5859">Lock Open</title>
      <path
         d="M24 34c2.21 0 4-1.79 4-4s-1.79-4-4-4-4 1.79-4 4 1.79 4 4 4zm12-18h-2v-4c0-5.52-4.48-10-10-10s-10 4.48-10 10h3.8c0-3.42 2.78-6.2 6.2-6.2 3.42 0 6.2 2.78 6.2 6.2v4h-18.2c-2.21 0-4 1.79-4 4v20c0 2.21 1.79 4 4 4h24c2.21 0 4-1.79 4-4v-20c0-2.21-1.79-4-4-4zm0 24h-24v-20h24v20z"
         style="stroke:none"
         id="path5861" />
    </symbol>
    <symbol
       id="symbol10530">
      <title
         id="title10532">Local Grocery Store</title>
      <path
         d="M14 36c-2.21 0-3.98 1.79-3.98 4s1.77 4 3.98 4 4-1.79 4-4-1.79-4-4-4zM2 4v4h4l7.19 15.17-2.7 4.9c-.31.58-.49 1.23-.49 1.93 0 2.21 1.79 4 4 4h24v-4H14.85c-.28 0-.5-.22-.5-.5 0-.09.02-.17.06-.24L16.2 26h14.9c1.5 0 2.81-.83 3.5-2.06l7.15-12.98c.16-.28.25-.61.25-.96 0-1.11-.9-2-2-2H10.43l-1.9-4H2zm32 32c-2.21 0-3.98 1.79-3.98 4s1.77 4 3.98 4 4-1.79 4-4-1.79-4-4-4z"
         style="stroke:none"
         id="path10534" />
    </symbol>
    <symbol
       id="symbol5119">
      <title
         id="title5121">Mail</title>
      <path
         d="M40 8h-32c-2.21 0-3.98 1.79-3.98 4l-.02 24c0 2.21 1.79 4 4 4h32c2.21 0 4-1.79 4-4v-24c0-2.21-1.79-4-4-4zm0 8l-16 10-16-10v-4l16 10 16-10v4z"
         style="stroke:none"
         id="path5123" />
    </symbol>
    <symbol
       id="symbol7506">
      <title
         id="title7508">Check</title>
      <path
         d="M18 32.34L9.66 24l-2.83 2.83L18 38l24-24-2.83-2.83z"
         style="stroke:none"
         id="path7510" />
    </symbol>
    <clipPath
       clipPathUnits="userSpaceOnUse"
       id="clipPath13866">
      <rect
         style="opacity:1;fill:#d50000;fill-opacity:1;stroke:none;stroke-width:4;stroke-linecap:butt;stroke-linejoin:miter;stroke-miterlimit:4;stroke-dasharray:none;stroke-dashoffset:0;stroke-opacity:1"
         id="rect13868"
         width="33.185184"
         height="17.777779"
         x="7.4074073"
         y="-0.53565156" />
    </clipPath>
    <symbol
       id="symbol4977">
      <title
         id="title4973">Sim Card</title>
      <path
         d="M39.98 8c0-2.21-1.77-4-3.98-4h-16l-12 12v24c0 2.21 1.79 4 4 4h24.02c2.21 0 3.98-1.79 3.98-4l-.02-32zm-21.98 30h-4v-4h4v4zm16 0h-4v-4h4v4zm-16-8h-4v-8h4v8zm8 8h-4v-8h4v8zm0-12h-4v-4h4v4zm8 4h-4v-8h4v8z"
         style="stroke:none"
         id="path4975" />
    </symbol>
    <symbol
       id="symbol7831">
      <title
         id="title7827">Print</title>
      <path
         d="M38 16h-28c-3.31 0-6 2.69-6 6v12h8v8h24v-8h8v-12c0-3.31-2.69-6-6-6zm-6 22h-16v-10h16v10zm6-14c-1.11 0-2-.89-2-2s.89-2 2-2c1.11 0 2 .89 2 2s-.89 2-2 2zm-2-18h-24v8h24v-8z"
         style="stroke:none"
         id="path7829" />
    </symbol>
  </defs>
  <sodipodi:namedview
     pagecolor="#ffffff"
     bordercolor="#666666"
     borderopacity="1"
     objecttolerance="10"
     gridtolerance="10"
     guidetolerance="10"
     inkscape:pageopacity="0"
     inkscape:pageshadow="2"
     inkscape:window-width="1920"
     inkscape:window-height="1025"
     id="namedview4"
     showgrid="false"
     inkscape:zoom="8"
     inkscape:cx="54.339261"
     inkscape:cy="2.1132584"
     inkscape:window-x="1920"
     inkscape:window-y="27"
     inkscape:window-maximized="1"
     inkscape:current-layer="layer1"
     showguides="true"
     inkscape:guide-bbox="true">
    <sodipodi:guide
       position="64,100.23239"
       orientation="1,0"
       id="guide5698"
       inkscape:label=""
       inkscape:color="rgb(0,0,255)"
       inkscape:locked="false" />
    <sodipodi:guide
       position="88.741901,64"
       orientation="0,1"
       id="guide5700"
       inkscape:label=""
       inkscape:color="rgb(0,0,255)"
       inkscape:locked="false" />
  </sodipodi:namedview>
  <g
     inkscape:groupmode="layer"
     id="layer1"
     inkscape:label="Layer 1">
    <rect
       style="opacity:1;vector-effect:none;fill:#22639b;fill-opacity:1;stroke:none;stroke-width:1.33333325;stroke-linecap:butt;stroke-linejoin:miter;stroke-miterlimit:4;stroke-dasharray:none;stroke-dashoffset:0;stroke-opacity:1"
       id="rect22055"
       width="128"
       height="128"
       x="0"
       y="-7.1054274e-15" />
    <path
       style="opacity:0.35;vector-effect:none;fill:#000000;fill-opacity:1;stroke:none;stroke-width:1.33333325;stroke-linecap:butt;stroke-linejoin:miter;stroke-miterlimit:4;stroke-dasharray:none;stroke-dashoffset:0;stroke-opacity:1"
       d="M 26.4375,52.937501 C 104.82695,46.480299 99.911512,54.705347 104,84 L 76.5,128 H 0 V 86.449747 Z"
       id="rect22057"
       inkscape:connector-curvature="0"
       sodipodi:nodetypes="cccccc" />
    <use
       id="use22030"
       style="fill:#ffffff;stroke:none;stroke-width:0.49999997"
       xlink:href="#symbol7831"
       x="0"
       y="0"
       width="100%"
       height="100%"
       transform="matrix(2,0,0,2,16,16)" />
    <g
       id="g22095"
       transform="translate(0.999978,-1)">
      <path
         inkscape:connector-curvature="0"
         d="m 114.56589,106.28001 c -1.40703,-0.006 -2.32778,0.49511 -3.08799,0.90541 -0.86832,0.4677 -2.04947,2.12206 -2.36158,3.0993 -0.80616,2.52759 -1.44398,5.11727 -2.48235,7.56496 -0.50882,1.28282 -1.1635,2.1123 -1.96,2.48818 -0.37562,0.24274 -0.96347,0.46753 -1.58267,0.46753 -0.0888,0.0307 -0.40312,-0.003 -0.86913,-0.0725 0.2322,-0.16115 0.4894,-0.37562 0.77955,-0.65304 0.36452,-0.36453 0.61445,-0.65138 0.74903,-0.86358 0.3645,-0.53769 0.68376,-1.16988 0.95313,-1.90034 l 1.87679,-6.22827 c 0.0574,-0.25003 0.1532,-0.49971 0.28711,-0.74908 0.34677,-0.63445 0.78681,-0.95371 1.32556,-0.95371 0.34982,-0.5676 0.47488,-0.99241 1.3907,-1.54639 -1.54164,-0.16287 -2.4768,0.34838 -3.23146,0.75544 -0.75456,0.40725 -1.7785,1.84875 -2.05038,2.69779 -0.70045,2.19696 -1.26169,4.44237 -2.16389,6.57014 -0.4419,1.11495 -1.01031,1.83735 -1.7028,2.16388 -0.20244,0.13152 -0.441014,0.22004 -0.724812,0.27017 -0.0026,-7.8e-4 -0.0039,0 -0.0064,0 -0.469975,-0.0879 -0.957906,-0.1806 -1.438362,-0.27017 0.154799,-0.11763 0.32566,-0.26131 0.50956,-0.43772 0.291047,-0.29104 0.491893,-0.52019 0.598953,-0.68941 0.29187,-0.42973 0.546792,-0.93929 0.762071,-1.5222 l 1.49229,-4.97609 c 0.046,-0.19914 0.1265,-0.39999 0.23381,-0.59912 0.27662,-0.50712 0.63057,-0.75546 1.0611,-0.75546 0.2797,-0.45392 0.37732,-0.79819 1.1094,-1.24065 -1.23194,-0.12981 -1.98102,0.27969 -2.5841,0.60533 -0.60308,0.32491 -1.41981,1.4739 -1.636776,2.15196 -0.559529,1.75601 -1.005394,3.55152 -1.726104,5.25102 -0.353933,0.89099 -0.807848,1.47221 -1.361021,1.7327 -0.09432,0.0613 -0.201402,0.10481 -0.317668,0.14423 -0.977901,-0.16695 -1.768825,-0.27733 -2.104224,-0.25799 -1.202837,0.0694 -2.173569,0.22173 -3.303205,2.18253 1.66257,-1.01652 2.536468,-1.07474 3.968452,-0.69579 2.37754,0.62886 5.725076,1.37319 5.725076,1.37319 0.50715,0.0427 0.35959,0.11683 1.62459,0.20946 1.26501,0.0927 3.88445,-0.31926 5.3115,-1.89475 1.40537,-1.55108 1.83906,-3.00392 1.95444,-3.38698 l 2.15747,-7.16352 c 0.0661,-0.28696 0.17585,-0.57567 0.32983,-0.86341 0.39835,-0.72958 0.90382,-1.09658 1.52302,-1.09658 0.4031,-0.65388 0.55295,-1.14327 1.60683,-1.78101 -0.22168,-0.0233 -0.43468,-0.0347 -0.63531,-0.0355 z"
         style="display:inline;fill:#ffffff;fill-opacity:1;fill-rule:nonzero;stroke:none;stroke-width:0.09814704"
         id="path3112-6" />
      <path
         inkscape:connector-curvature="0"
         d="m 123,103.58789 c -1.27554,0.77255 -1.45367,1.36825 -1.94139,2.15919 -0.74985,0 -1.36575,0.4419 -1.8479,1.32627 -0.18721,0.34838 -0.32095,0.69579 -0.40083,1.04417 l -2.61054,8.67436 c -0.37503,1.01675 -0.8159,1.90033 -1.32468,2.64933 -0.18782,0.29518 -0.5354,0.6966 -1.04417,1.20461 -0.6159,0.58921 -1.13747,0.99089 -1.56575,1.20455 -1.3391,0.7773 -3.20807,1.14963 -5.18887,1.14963 l -2.47203,-0.28937 c 1.56242,-0.35868 2.43898,-0.68215 3.55724,-1.76736 0.74884,0 1.63982,-0.0831 2.09456,-0.37734 0.96426,-0.45472 1.7544,-1.45923 2.3703,-3.01198 1.25697,-2.96394 2.0351,-6.09541 3.01137,-9.15593 0.37813,-1.18269 1.80435,-3.18943 2.85657,-3.75623 1.05223,-0.56762 2.35916,-1.27949 4.50612,-1.0539 z"
         style="display:inline;fill:#ffffff;fill-opacity:1;fill-rule:nonzero;stroke:none;stroke-width:0.09814704"
         id="path3114-9" />
    </g>
  </g>
</svg>
