<?xml version="1.0" encoding="UTF-8" standalone="no"?>
<svg
   xmlns:dc="http://purl.org/dc/elements/1.1/"
   xmlns:cc="http://creativecommons.org/ns#"
   xmlns:rdf="http://www.w3.org/1999/02/22-rdf-syntax-ns#"
   xmlns:svg="http://www.w3.org/2000/svg"
   xmlns="http://www.w3.org/2000/svg"
   xmlns:xlink="http://www.w3.org/1999/xlink"
   xmlns:sodipodi="http://sodipodi.sourceforge.net/DTD/sodipodi-0.dtd"
   xmlns:inkscape="http://www.inkscape.org/namespaces/inkscape"
   id="svg2"
   version="1.1"
   inkscape:version="1.0.2 (1.0.2+r75+1)"
   width="128"
   height="128"
   sodipodi:docname="icon.svg"
   inkscape:export-filename="/var/lib/odoo/mercadoitav/addons/trey-addons/delivery_carrier_tracking_dhl/static/description/icon.png"
   inkscape:export-xdpi="96"
   inkscape:export-ydpi="96">
  <metadata
     id="metadata8">
    <rdf:RDF>
      <cc:Work
         rdf:about="">
        <dc:format>image/svg+xml</dc:format>
        <dc:type
           rdf:resource="http://purl.org/dc/dcmitype/StillImage" />
        <dc:title />
      </cc:Work>
    </rdf:RDF>
  </metadata>
  <defs
     id="defs6">
    <symbol
       id="symbol5748">
      <title
         id="title5750">Grade</title>
      <path
         d="M24 34.54l12.36 7.46-3.27-14.06 10.91-9.45-14.38-1.24-5.62-13.25-5.62 13.25-14.38 1.24 10.91 9.45-3.27 14.06z"
         style="stroke:none"
         id="path5752" />
    </symbol>
    <symbol
       id="symbol4786">
      <title
         id="title4788">Person</title>
      <path
         d="M24 24c4.42 0 8-3.59 8-8 0-4.42-3.58-8-8-8s-8 3.58-8 8c0 4.41 3.58 8 8 8zm0 4c-5.33 0-16 2.67-16 8v4h32v-4c0-5.33-10.67-8-16-8z"
         style="stroke:none"
         id="path4790" />
    </symbol>
    <symbol
       id="symbol5791">
      <title
         id="title5793">Https</title>
      <path
         d="M36 16h-2v-4c0-5.52-4.48-10-10-10s-10 4.48-10 10v4h-2c-2.21 0-4 1.79-4 4v20c0 2.21 1.79 4 4 4h24c2.21 0 4-1.79 4-4v-20c0-2.21-1.79-4-4-4zm-12 18c-2.21 0-4-1.79-4-4s1.79-4 4-4 4 1.79 4 4-1.79 4-4 4zm6.2-18h-12.4v-4c0-3.42 2.78-6.2 6.2-6.2 3.42 0 6.2 2.78 6.2 6.2v4z"
         style="stroke:none"
         id="path5795" />
    </symbol>
    <symbol
       id="symbol5857">
      <title
         id="title5859">Lock Open</title>
      <path
         d="M24 34c2.21 0 4-1.79 4-4s-1.79-4-4-4-4 1.79-4 4 1.79 4 4 4zm12-18h-2v-4c0-5.52-4.48-10-10-10s-10 4.48-10 10h3.8c0-3.42 2.78-6.2 6.2-6.2 3.42 0 6.2 2.78 6.2 6.2v4h-18.2c-2.21 0-4 1.79-4 4v20c0 2.21 1.79 4 4 4h24c2.21 0 4-1.79 4-4v-20c0-2.21-1.79-4-4-4zm0 24h-24v-20h24v20z"
         style="stroke:none"
         id="path5861" />
    </symbol>
    <symbol
       id="symbol10530">
      <title
         id="title10532">Local Grocery Store</title>
      <path
         d="M14 36c-2.21 0-3.98 1.79-3.98 4s1.77 4 3.98 4 4-1.79 4-4-1.79-4-4-4zM2 4v4h4l7.19 15.17-2.7 4.9c-.31.58-.49 1.23-.49 1.93 0 2.21 1.79 4 4 4h24v-4H14.85c-.28 0-.5-.22-.5-.5 0-.09.02-.17.06-.24L16.2 26h14.9c1.5 0 2.81-.83 3.5-2.06l7.15-12.98c.16-.28.25-.61.25-.96 0-1.11-.9-2-2-2H10.43l-1.9-4H2zm32 32c-2.21 0-3.98 1.79-3.98 4s1.77 4 3.98 4 4-1.79 4-4-1.79-4-4-4z"
         style="stroke:none"
         id="path10534" />
    </symbol>
    <symbol
       id="symbol5119">
      <title
         id="title5121">Mail</title>
      <path
         d="M40 8h-32c-2.21 0-3.98 1.79-3.98 4l-.02 24c0 2.21 1.79 4 4 4h32c2.21 0 4-1.79 4-4v-24c0-2.21-1.79-4-4-4zm0 8l-16 10-16-10v-4l16 10 16-10v4z"
         style="stroke:none"
         id="path5123" />
    </symbol>
    <symbol
       id="symbol7506">
      <title
         id="title7508">Check</title>
      <path
         d="M18 32.34L9.66 24l-2.83 2.83L18 38l24-24-2.83-2.83z"
         style="stroke:none"
         id="path7510" />
    </symbol>
    <clipPath
       clipPathUnits="userSpaceOnUse"
       id="clipPath13866">
      <rect
         style="opacity:1;fill:#d50000;fill-opacity:1;stroke:none;stroke-width:4;stroke-linecap:butt;stroke-linejoin:miter;stroke-miterlimit:4;stroke-dasharray:none;stroke-dashoffset:0;stroke-opacity:1"
         id="rect13868"
         width="33.185184"
         height="17.777779"
         x="7.4074073"
         y="-0.53565156" />
    </clipPath>
    <symbol
       id="symbol6463">
      <title
         id="title6465">Public</title>
      <path
         d="M24 4C12.95 4 4 12.95 4 24s8.95 20 20 20 20-8.95 20-20S35.05 4 24 4zm-2 35.86C14.11 38.88 8 32.16 8 24c0-1.23.15-2.43.42-3.58L18 30v2c0 2.21 1.79 4 4 4v3.86zm13.79-5.07C35.28 33.17 33.78 32 32 32h-2v-6c0-1.1-.9-2-2-2H16v-4h4c1.1 0 2-.9 2-2v-4h4c2.21 0 4-1.79 4-4v-.83c5.86 2.37 10 8.11 10 14.83 0 4.16-1.6 7.94-4.21 10.79z"
         style="stroke:none"
         id="path6467" />
    </symbol>
    <symbol
       id="icon-desktop"
       viewBox="0 0 30 28">
      <title
         id="title7684">desktop</title>
      <path
         class="path1"
         d="M28 15.5v-13c0-0.266-0.234-0.5-0.5-0.5h-25c-0.266 0-0.5 0.234-0.5 0.5v13c0 0.266 0.234 0.5 0.5 0.5h25c0.266 0 0.5-0.234 0.5-0.5zM30 2.5v17c0 1.375-1.125 2.5-2.5 2.5h-8.5c0 1.328 1 2.453 1 3s-0.453 1-1 1h-8c-0.547 0-1-0.453-1-1 0-0.578 1-1.641 1-3h-8.5c-1.375 0-2.5-1.125-2.5-2.5v-17c0-1.375 1.125-2.5 2.5-2.5h25c1.375 0 2.5 1.125 2.5 2.5z"
         id="path7686" />
    </symbol>
    <symbol
       id="icon-window-maximize"
       viewBox="0 0 28 28">
      <title
         id="title9794">window-maximize</title>
      <path
         class="path1"
         d="M4 22h20v-12h-20v12zM28 4.5v19c0 1.375-1.125 2.5-2.5 2.5h-23c-1.375 0-2.5-1.125-2.5-2.5v-19c0-1.375 1.125-2.5 2.5-2.5h23c1.375 0 2.5 1.125 2.5 2.5z"
         id="path9796" />
    </symbol>
    <inkscape:perspective
       id="perspective10" />
    <inkscape:perspective
       id="perspective2400" />
  </defs>
  <sodipodi:namedview
     pagecolor="#ffffff"
     bordercolor="#666666"
     borderopacity="1"
     objecttolerance="10"
     gridtolerance="10"
     guidetolerance="10"
     inkscape:pageopacity="0"
     inkscape:pageshadow="2"
     inkscape:window-width="1920"
     inkscape:window-height="1025"
     id="namedview4"
     showgrid="false"
     inkscape:zoom="5.6568542"
     inkscape:cx="67.488038"
     inkscape:cy="84.369026"
     inkscape:window-x="1920"
     inkscape:window-y="27"
     inkscape:window-maximized="1"
     inkscape:current-layer="layer1"
     showguides="true"
     inkscape:guide-bbox="true"
     inkscape:document-rotation="0">
    <sodipodi:guide
       position="64,100.23239"
       orientation="1,0"
       id="guide5698"
       inkscape:label=""
       inkscape:color="rgb(0,0,255)"
       inkscape:locked="false" />
    <sodipodi:guide
       position="88.741901,64"
       orientation="0,1"
       id="guide5700"
       inkscape:label=""
       inkscape:color="rgb(0,0,255)"
       inkscape:locked="false" />
  </sodipodi:namedview>
  <g
     inkscape:groupmode="layer"
     id="layer1"
     inkscape:label="Layer 1">
    <use
       id="use14733"
       style="fill:#174267;fill-opacity:1;stroke:none"
       xlink:href="#symbol5448"
       x="0"
       y="0"
       width="100%"
       height="100%"
       transform="matrix(1.75,0,0,1.75,22,23.5)" />
    <use
       id="use14733-3"
       style="fill:#174267;fill-opacity:1;stroke:none"
       xlink:href="#symbol5448"
       x="0"
       y="0"
       width="100%"
       height="100%"
       transform="matrix(1.75,0,0,1.75,22,23.5)" />
    <use
       id="use14733-6"
       style="fill:#174267;fill-opacity:1;stroke:none"
       xlink:href="#symbol5448"
       x="0"
       y="0"
       width="100%"
       height="100%"
       transform="matrix(1.75,0,0,1.75,22,23.5)" />
    <polygon
       fill="#fecc00"
       points="175.748,0 175.748,38.786 0,38.786 0,0 "
       id="polygon934"
       transform="matrix(0.62589617,0,0,1.1344299,9,42.000001)" />
    <path
       fill="#d50029"
       d="m 45.887031,62.150901 c -0.445729,0.603592 -1.191512,1.652912 -1.645367,2.26579 -0.23041,0.311662 -0.64654,0.877529 0.733015,0.877529 1.459647,0 7.263411,0 7.263411,0 0,0 1.17062,-1.592553 2.152037,-2.924517 1.334865,-1.811935 0.115494,-5.58206 -4.656941,-5.58206 -4.271571,0 -18.794911,0 -18.794911,0 l -3.258813,4.427692 c 0,0 16.894178,0 17.76126,0 0.896682,0 0.884493,0.341262 0.446309,0.935566 z m -5.33598,4.235587 c -1.379555,0 -0.963425,-0.567027 -0.733016,-0.878688 0.453854,-0.61288 1.211826,-1.651173 1.657555,-2.254765 0.438764,-0.594305 0.450372,-0.935567 -0.44747,-0.935567 -0.866502,0 -8.122949,0 -8.122949,0 l -6.544905,8.894851 c 0,0 11.689362,0 15.960932,0 5.271559,0 8.206523,-3.585565 9.11133,-4.82525 0,-5.8e-4 -9.422412,-5.8e-4 -10.881477,-5.81e-4 z m 10.382934,4.825831 h 9.363213 l 3.549584,-4.826411 -9.362054,0.0012 c -0.0029,-5.81e-4 -3.550743,4.825249 -3.550743,4.825249 z m 24.158171,-14.424676 -3.591369,4.878065 h -4.178711 l 3.589629,-4.878065 H 61.551392 L 55.28913,65.29422 h 22.901656 l 6.260521,-8.506577 z M 64.475911,71.212319 h 9.35973 l 3.551323,-4.82525 h -9.35973 c -0.0035,-5.8e-4 -3.551323,4.82525 -3.551323,4.82525 z M 13,68.290122 v 1.024946 h 13.039898 l 0.753329,-1.024946 z M 28.194836,66.386488 H 13 v 1.023784 H 27.439766 Z M 13,71.212319 h 11.642932 l 0.749847,-1.019142 H 13 Z m 88.25901,-1.897831 H 115 v -1.024945 h -12.9865 z m -1.395807,1.897831 H 115 v -1.019142 h -14.38753 z m 3.549587,-4.82583 -0.75275,1.024945 H 115 V 66.386488 Z M 91.152913,65.29422 97.414595,56.787642 h -9.91341 c -0.0035,0 -6.266325,8.506578 -6.266325,8.506578 z M 80.4322,66.386488 c 0,0 -0.684264,0.934987 -1.01682,1.385359 -1.175261,1.58791 -0.135808,3.440472 3.700481,3.440472 4.431754,0 15.03233,0 15.03233,0 l 3.551329,-4.82525 H 80.4322 Z"
       id="path936"
       style="stroke-width:0.580375" />
  </g>
</svg>
