<?xml version="1.0" encoding="UTF-8" standalone="no"?>
<!-- Created with Inkscape (http://www.inkscape.org/) -->

<svg
   xmlns:dc="http://purl.org/dc/elements/1.1/"
   xmlns:cc="http://creativecommons.org/ns#"
   xmlns:rdf="http://www.w3.org/1999/02/22-rdf-syntax-ns#"
   xmlns:svg="http://www.w3.org/2000/svg"
   xmlns="http://www.w3.org/2000/svg"
   xmlns:xlink="http://www.w3.org/1999/xlink"
   xmlns:sodipodi="http://sodipodi.sourceforge.net/DTD/sodipodi-0.dtd"
   xmlns:inkscape="http://www.inkscape.org/namespaces/inkscape"
   id="svg2"
   version="1.1"
   inkscape:version="0.92.3 (2405546, 2018-03-11)"
   width="128"
   height="128"
   sodipodi:docname="icon.svg"
   inkscape:export-filename="/var/lib/odoo/mercadoit/addons/trey-addons/delivery_carrier_tracking_integra2/static/description/icon.png"
   inkscape:export-xdpi="96"
   inkscape:export-ydpi="96">
  <metadata
     id="metadata8">
    <rdf:RDF>
      <cc:Work
         rdf:about="">
        <dc:format>image/svg+xml</dc:format>
        <dc:type
           rdf:resource="http://purl.org/dc/dcmitype/StillImage" />
        <dc:title />
      </cc:Work>
    </rdf:RDF>
  </metadata>
  <defs
     id="defs6">
    <symbol
       id="symbol5748">
      <title
         id="title5750">Grade</title>
      <path
         d="M24 34.54l12.36 7.46-3.27-14.06 10.91-9.45-14.38-1.24-5.62-13.25-5.62 13.25-14.38 1.24 10.91 9.45-3.27 14.06z"
         style="stroke:none"
         id="path5752" />
    </symbol>
    <symbol
       id="symbol4786">
      <title
         id="title4788">Person</title>
      <path
         d="M24 24c4.42 0 8-3.59 8-8 0-4.42-3.58-8-8-8s-8 3.58-8 8c0 4.41 3.58 8 8 8zm0 4c-5.33 0-16 2.67-16 8v4h32v-4c0-5.33-10.67-8-16-8z"
         style="stroke:none"
         id="path4790" />
    </symbol>
    <symbol
       id="symbol5791">
      <title
         id="title5793">Https</title>
      <path
         d="M36 16h-2v-4c0-5.52-4.48-10-10-10s-10 4.48-10 10v4h-2c-2.21 0-4 1.79-4 4v20c0 2.21 1.79 4 4 4h24c2.21 0 4-1.79 4-4v-20c0-2.21-1.79-4-4-4zm-12 18c-2.21 0-4-1.79-4-4s1.79-4 4-4 4 1.79 4 4-1.79 4-4 4zm6.2-18h-12.4v-4c0-3.42 2.78-6.2 6.2-6.2 3.42 0 6.2 2.78 6.2 6.2v4z"
         style="stroke:none"
         id="path5795" />
    </symbol>
    <symbol
       id="symbol5857">
      <title
         id="title5859">Lock Open</title>
      <path
         d="M24 34c2.21 0 4-1.79 4-4s-1.79-4-4-4-4 1.79-4 4 1.79 4 4 4zm12-18h-2v-4c0-5.52-4.48-10-10-10s-10 4.48-10 10h3.8c0-3.42 2.78-6.2 6.2-6.2 3.42 0 6.2 2.78 6.2 6.2v4h-18.2c-2.21 0-4 1.79-4 4v20c0 2.21 1.79 4 4 4h24c2.21 0 4-1.79 4-4v-20c0-2.21-1.79-4-4-4zm0 24h-24v-20h24v20z"
         style="stroke:none"
         id="path5861" />
    </symbol>
    <symbol
       id="symbol10530">
      <title
         id="title10532">Local Grocery Store</title>
      <path
         d="M14 36c-2.21 0-3.98 1.79-3.98 4s1.77 4 3.98 4 4-1.79 4-4-1.79-4-4-4zM2 4v4h4l7.19 15.17-2.7 4.9c-.31.58-.49 1.23-.49 1.93 0 2.21 1.79 4 4 4h24v-4H14.85c-.28 0-.5-.22-.5-.5 0-.09.02-.17.06-.24L16.2 26h14.9c1.5 0 2.81-.83 3.5-2.06l7.15-12.98c.16-.28.25-.61.25-.96 0-1.11-.9-2-2-2H10.43l-1.9-4H2zm32 32c-2.21 0-3.98 1.79-3.98 4s1.77 4 3.98 4 4-1.79 4-4-1.79-4-4-4z"
         style="stroke:none"
         id="path10534" />
    </symbol>
    <symbol
       id="symbol5119">
      <title
         id="title5121">Mail</title>
      <path
         d="M40 8h-32c-2.21 0-3.98 1.79-3.98 4l-.02 24c0 2.21 1.79 4 4 4h32c2.21 0 4-1.79 4-4v-24c0-2.21-1.79-4-4-4zm0 8l-16 10-16-10v-4l16 10 16-10v4z"
         style="stroke:none"
         id="path5123" />
    </symbol>
    <symbol
       id="symbol7506">
      <title
         id="title7508">Check</title>
      <path
         d="M18 32.34L9.66 24l-2.83 2.83L18 38l24-24-2.83-2.83z"
         style="stroke:none"
         id="path7510" />
    </symbol>
    <clipPath
       clipPathUnits="userSpaceOnUse"
       id="clipPath13866">
      <rect
         style="opacity:1;fill:#d50000;fill-opacity:1;stroke:none;stroke-width:4;stroke-linecap:butt;stroke-linejoin:miter;stroke-miterlimit:4;stroke-dasharray:none;stroke-dashoffset:0;stroke-opacity:1"
         id="rect13868"
         width="33.185184"
         height="17.777779"
         x="7.4074073"
         y="-0.53565156" />
    </clipPath>
    <symbol
       id="symbol6463">
      <title
         id="title6465">Public</title>
      <path
         d="M24 4C12.95 4 4 12.95 4 24s8.95 20 20 20 20-8.95 20-20S35.05 4 24 4zm-2 35.86C14.11 38.88 8 32.16 8 24c0-1.23.15-2.43.42-3.58L18 30v2c0 2.21 1.79 4 4 4v3.86zm13.79-5.07C35.28 33.17 33.78 32 32 32h-2v-6c0-1.1-.9-2-2-2H16v-4h4c1.1 0 2-.9 2-2v-4h4c2.21 0 4-1.79 4-4v-.83c5.86 2.37 10 8.11 10 14.83 0 4.16-1.6 7.94-4.21 10.79z"
         style="stroke:none"
         id="path6467" />
    </symbol>
    <symbol
       id="icon-desktop"
       viewBox="0 0 30 28">
      <title
         id="title7684">desktop</title>
      <path
         class="path1"
         d="M28 15.5v-13c0-0.266-0.234-0.5-0.5-0.5h-25c-0.266 0-0.5 0.234-0.5 0.5v13c0 0.266 0.234 0.5 0.5 0.5h25c0.266 0 0.5-0.234 0.5-0.5zM30 2.5v17c0 1.375-1.125 2.5-2.5 2.5h-8.5c0 1.328 1 2.453 1 3s-0.453 1-1 1h-8c-0.547 0-1-0.453-1-1 0-0.578 1-1.641 1-3h-8.5c-1.375 0-2.5-1.125-2.5-2.5v-17c0-1.375 1.125-2.5 2.5-2.5h25c1.375 0 2.5 1.125 2.5 2.5z"
         id="path7686" />
    </symbol>
    <symbol
       id="icon-window-maximize"
       viewBox="0 0 28 28">
      <title
         id="title9794">window-maximize</title>
      <path
         class="path1"
         d="M4 22h20v-12h-20v12zM28 4.5v19c0 1.375-1.125 2.5-2.5 2.5h-23c-1.375 0-2.5-1.125-2.5-2.5v-19c0-1.375 1.125-2.5 2.5-2.5h23c1.375 0 2.5 1.125 2.5 2.5z"
         id="path9796" />
    </symbol>
    <inkscape:perspective
       id="perspective10" />
    <inkscape:perspective
       id="perspective2400" />
  </defs>
  <sodipodi:namedview
     pagecolor="#ffffff"
     bordercolor="#666666"
     borderopacity="1"
     objecttolerance="10"
     gridtolerance="10"
     guidetolerance="10"
     inkscape:pageopacity="0"
     inkscape:pageshadow="2"
     inkscape:window-width="1920"
     inkscape:window-height="1025"
     id="namedview4"
     showgrid="false"
     inkscape:zoom="2.0000001"
     inkscape:cx="-49.2528"
     inkscape:cy="-15.40559"
     inkscape:window-x="1920"
     inkscape:window-y="27"
     inkscape:window-maximized="1"
     inkscape:current-layer="layer1"
     showguides="true"
     inkscape:guide-bbox="true">
    <sodipodi:guide
       position="64,100.23239"
       orientation="1,0"
       id="guide5698"
       inkscape:label=""
       inkscape:color="rgb(0,0,255)"
       inkscape:locked="false" />
    <sodipodi:guide
       position="88.741901,64"
       orientation="0,1"
       id="guide5700"
       inkscape:label=""
       inkscape:color="rgb(0,0,255)"
       inkscape:locked="false" />
  </sodipodi:namedview>
  <g
     inkscape:groupmode="layer"
     id="layer1"
     inkscape:label="Layer 1">
    <use
       id="use14733"
       style="fill:#174267;fill-opacity:1;stroke:none"
       xlink:href="#symbol5448"
       x="0"
       y="0"
       width="100%"
       height="100%"
       transform="matrix(1.75,0,0,1.75,22,23.5)" />
    <use
       id="use14733-3"
       style="fill:#174267;fill-opacity:1;stroke:none"
       xlink:href="#symbol5448"
       x="0"
       y="0"
       width="100%"
       height="100%"
       transform="matrix(1.75,0,0,1.75,22,23.5)" />
    <use
       id="use14733-6"
       style="fill:#174267;fill-opacity:1;stroke:none"
       xlink:href="#symbol5448"
       x="0"
       y="0"
       width="100%"
       height="100%"
       transform="matrix(1.75,0,0,1.75,22,23.5)" />
    <g
       style="display:inline"
       id="g1076"
       transform="matrix(0.44381339,0,0,0.44381339,-293.48155,-380.76481)">
      <path
         d="m 711.56148,955.01227 c 3.82026,0 6.924,3.104 6.924,6.924 0,3.78933 -3.10374,6.92267 -6.924,6.92267 -3.81974,0 -6.924,-3.13334 -6.924,-6.92267 0,-3.82 3.10426,-6.924 6.924,-6.924"
         style="fill:#ff3220;fill-opacity:1;fill-rule:evenodd;stroke:none;stroke-width:0.13333333"
         id="path935"
         inkscape:connector-curvature="0" />
      <path
         d="m 891.67507,1016.2831 c -2.53733,-0.1495 -3.552,-2.1188 -2.23867,-3.85 l 18.86134,-22.29376 c 3.19333,-4.83507 1.96933,-8.5364 -4.05867,-7.6404 -2.08933,0.29866 -3.07333,2.11866 -3.94,4.44666 -0.596,1.64134 -4.62533,3.4328 -5.90933,1.40267 -3.67067,-5.90933 3.88,-13.57867 8.656,-15.51867 5.13333,-2.08933 11.37066,-1.79066 15.81733,1.552 4.68533,3.492 4.924,10.744 1.224,15.66814 l -12.684,14.56396 10.83333,-0.03 c 1.13334,-0.03 1.492,0.7755 1.52134,1.8203 l -0.92534,8.3864 c -0.0893,0.7761 -0.95466,1.224 -1.34266,1.4027 l -25.81467,0.09"
         style="fill:#ff3220;fill-opacity:1;fill-rule:evenodd;stroke:none;stroke-width:0.13333333"
         id="path937"
         inkscape:connector-curvature="0" />
      <path
         d="m 702.48854,980.49894 c 0.7464,-0.776 7.25267,-0.47734 8.38654,-0.29734 -2.17814,-2.47733 -5.2824,-3.284 -7.93867,-3.612 l 0.38813,-3.19333 c 0.0599,-0.448 0.53694,-0.836 0.8656,-0.836 h 11.90774 c 0.44746,0 0.836,0.448 0.77613,0.896 l -3.2532,27.42733 c -4.98387,2.0885 -7.07333,2.2676 -12.5348,1.8203 3.64107,2.865 7.16293,3.253 11.99733,2.477 l -1.1932,9.998 c -0.0896,0.5968 -0.89533,1.1042 -1.5224,1.1042 -3.61093,0 -7.19266,-0.06 -10.774,0 -0.776,0 -1.37293,-0.1787 -1.2536,-1.2532 z m 21.19014,35.78416 c -0.71667,0 -1.37294,-0.7162 -1.28334,-1.4923 l 2.8948,-24.98013 c 0.89534,-5.63973 9.90827,-6.29707 14.564,-6.26773 4.686,-0.0587 14.59427,0.896 13.81827,7.3724 l -2.8948,23.99476 c -0.0599,0.5672 -0.7464,1.373 -1.70107,1.373 h -9.28173 c -0.53747,0 -0.9552,-1.0147 -0.836,-1.8208 l 2.56667,-21.30896 c 0.23906,-2.0292 -0.26867,-3.014 -1.22334,-3.16347 -1.96986,-0.20893 -2.9844,0.53747 -3.4324,2.05987 l -2.68586,22.38336 c -0.11934,0.8057 -0.56667,1.85 -1.28334,1.85 z m 64.40466,1.1041 c -11.7588,-1.0745 -13.04213,-10.2364 -11.1916,-20.8016 2.11867,-7.1328 4.56613,-11.132 12.71347,-12.564 6.05893,-0.568 9.1032,0.47734 11.9084,5.4016 1.43226,2.44734 1.90986,9.7588 -0.5672,10.38587 l -14.80267,2.02923 c -0.26867,7.7296 10.1172,4.8052 12.9224,2.2385 3.04427,-2.5667 4.05893,2.8052 1.73133,5.9688 -4.23813,5.8495 -7.73026,7.2823 -12.71413,7.3416 z m 83.29707,0 c -6.32667,-0.09 -11.192,-1.5219 -11.192,-9.3115 0.74533,-5.163 4.268,-8.1177 10.356,-9.81876 2.208,-0.62654 4.328,-1.0744 6.59599,-1.61134 l 0.62667,-5.31253 c 0.17867,-1.19373 -2.06,-1.16413 -3.40266,-0.3584 -1.31334,1.10467 -1.25334,4.9844 -4.656,5.13333 -4.02934,0.20894 -6.208,-0.26813 -5.78934,-4.3572 0.716,-4.05853 2.77467,-6.20786 7.49067,-7.10253 4.208,-0.80667 9.81866,-1.164 14.236,0.35733 4.47733,1.58267 3.492,4.20867 2.984,8.3868 l -2.088,17.25 c -0.80667,6.7151 -8.864,6.8645 -15.16133,6.7448 z m 1.552,-6.1776 c 1.52133,0.03 2.476,-0.2385 2.74533,-2.3875 l 0.836,-7.0432 c -3.52267,1.1932 -3.492,1.4026 -4.68667,4.8943 -0.328,1.6416 -0.47733,4.0885 1.10534,4.5364 z m -109.47094,5.8792 c 3.61147,0.2391 6.32707,-0.03 10.2964,-2.6855 1.0744,-0.9254 0.80627,-3.1937 -0.35786,-3.4921 -4.626,-0.6271 -5.1036,-0.5969 -4.47707,-5.9095 l 1.85053,-15.3697 h 4.0292 c 0.388,-0.0593 0.6864,-0.388 0.86507,-0.98506 l 0.41827,-3.01467 c -0.0297,-0.328 -0.20894,-0.86533 -0.6568,-0.83467 h -4.05894 l 0.89534,-7.432 c 0.11933,-1.164 -1.10414,-1.52266 -1.9396,-1.164 l -8.02854,3.19334 c -1.462,0.59733 -1.70106,1.40266 -1.85053,2.41733 l -0.3876,2.98533 h -2.80573 c -0.65614,0.11867 -1.01454,0.47734 -1.10414,1.044 l -0.41773,2.716 c 0.11933,0.47747 0.74587,1.04467 1.224,1.04467 l 2.5068,0.0297 -2.53707,21.15993 c -0.4176,3.2532 2.44747,5.8494 6.536,6.2969 z m 72.73094,-2.1188 c -0.0893,0.8953 0.26933,1.3427 1.07466,1.3131 h 9.49067 c 0.71733,0 1.164,-0.388 1.34267,-1.1636 l 2.86533,-23.81616 c 0.26933,-1.46254 1.73067,-1.79067 3.04533,-1.2536 1.61067,1.6416 -0.15066,3.9692 2.95334,5.13333 5.58133,0.83587 6.89466,-4.298 4.984,-8.80413 -1.52134,-1.70134 -2.864,-1.88 -5.252,-2.208 -2.41734,-0.20934 -7.72934,-0.41867 -11.63867,0.62666 -1.49333,0.448 -5.552,1.73067 -5.67067,3.61067 z m -17.488,-15.93693 c -1.64134,-2.2084 -1.91067,-4.14853 -1.04534,-7.34173 0.53734,-1.97027 2.59734,-1.88067 3.224,-1.0744 1.07334,2.23853 1.79067,5.19266 0.388,7.49053 -0.65733,0.836 -1.732,1.3136 -2.56666,0.9256 z m -32.76947,-2.77613 c 1.99893,-0.14894 1.99893,-0.14894 5.8792,-0.83534 1.67133,-3.55106 -0.80573,-5.34226 -3.10373,-4.50626 -2.0896,1.10413 -2.56667,3.22293 -2.77547,5.3416 z m 31.2468,28.50216 c -2.388,0.03 -8.05773,-1.6714 -5.28267,-4.9844 3.612,-0.09 6.89467,0.1792 10.50534,0.5376 2.56666,3.1634 -4.17734,4.5661 -5.22267,4.4468 z m -15.1604,-0.4474 c 0,7.9682 10.6844,7.0728 16.08573,6.7151 8.148,-0.5375 16.65334,-6.5959 16.65334,-15.4 -1.07467,-7.5808 -11.64,-6.8943 -18.504,-6.9541 -1.28267,-0.5371 -1.552,-1.8204 -0.47734,-2.8948 2.80534,0.2686 5.164,0.4473 7.84934,-0.4776 10.98266,-3.7604 9.22266,-10.20683 9.04266,-14.29536 1.31334,-0.388 2.68667,-0.836 4,-1.25374 0.44667,-0.14893 0.83467,-0.35773 0.80534,-1.1936 -0.06,-0.95466 -0.14934,-2.06 -0.41867,-2.896 -0.0893,-0.38666 -0.50667,-0.44666 -1.252,-0.23733 -2.14933,0.62667 -3.94,1.13333 -5.31333,0.596 -5.372,-1.93867 -9.78934,-3.34133 -16.98134,-0.448 -6.596,2.62667 -10.0876,15.37063 -2.448,18.56383 -2.47666,1.7016 -11.48906,10.5052 -4.26666,13.5798 -1.40267,1.2833 -3.85054,2.7453 -4.77507,6.5958"
         style="fill:#005197;fill-opacity:1;fill-rule:evenodd;stroke:none;stroke-width:0.13333333"
         id="path939"
         inkscape:connector-curvature="0" />
      <path
         d="m 713.59121,1000.7637 c 6.62547,-3.40196 8.02813,-12.3261 7.7296,-16.89276 2.62613,3.79066 2.92507,8.98453 1.7308,12.20746 -1.8204,4.8948 -4.77507,7.9681 -9.998,9.0728 z m -10.62507,-24.20476 -0.4776,3.85066 c -9.19213,3.164 -12.68384,8.71507 -11.81826,17.07134 -3.96923,-3.7604 -2.20828,-11.998 0.0297,-14.982 2.62653,-3.46267 6.89427,-5.99867 12.26613,-5.94"
         style="fill:#ff3220;fill-opacity:1;fill-rule:evenodd;stroke:none;stroke-width:0.13333333"
         id="path941"
         inkscape:connector-curvature="0" />
    </g>
  </g>
</svg>
