<?xml version="1.0" encoding="UTF-8" standalone="no"?>
<!-- Created with Inkscape (http://www.inkscape.org/) -->

<svg
   xmlns:dc="http://purl.org/dc/elements/1.1/"
   xmlns:cc="http://creativecommons.org/ns#"
   xmlns:rdf="http://www.w3.org/1999/02/22-rdf-syntax-ns#"
   xmlns:svg="http://www.w3.org/2000/svg"
   xmlns="http://www.w3.org/2000/svg"
   xmlns:sodipodi="http://sodipodi.sourceforge.net/DTD/sodipodi-0.dtd"
   xmlns:inkscape="http://www.inkscape.org/namespaces/inkscape"
   id="svg2"
   version="1.1"
   inkscape:version="0.92.3 (2405546, 2018-03-11)"
   width="100"
   height="79"
   sodipodi:docname="snippet_instagram_feed.svg"
   inkscape:export-filename="/var/lib/odoo/lolitasyl/addons/trey-addons/website_snippet_instagram_feed/static/src/img/snippet_instagram_feed.png"
   inkscape:export-xdpi="96"
   inkscape:export-ydpi="96">
  <metadata
     id="metadata8">
    <rdf:RDF>
      <cc:Work
         rdf:about="">
        <dc:format>image/svg+xml</dc:format>
        <dc:type
           rdf:resource="http://purl.org/dc/dcmitype/StillImage" />
        <dc:title></dc:title>
      </cc:Work>
    </rdf:RDF>
  </metadata>
  <defs
     id="defs6">
    <clipPath
       clipPathUnits="userSpaceOnUse"
       id="clipPath4155">
      <rect
         y="478"
         x="-132"
         height="128"
         width="444"
         id="rect4157"
         style="opacity:0.75;fill:#ff0000;fill-opacity:1;stroke:none;stroke-width:20;stroke-linecap:butt;stroke-linejoin:miter;stroke-miterlimit:4;stroke-dasharray:none;stroke-opacity:1" />
    </clipPath>
    <symbol
       id="symbol5282">
      <title
         id="title5284">Keyboard Arrow Right</title>
      <path
         d="M17.17 32.92l9.17-9.17-9.17-9.17 2.83-2.83 12 12-12 12z"
         style="stroke:none"
         id="path5286" />
    </symbol>
    <symbol
       id="symbol5276">
      <title
         id="title5278">Keyboard Arrow Left</title>
      <path
         d="M30.83 32.67l-9.17-9.17 9.17-9.17-2.83-2.83-12 12 12 12z"
         style="stroke:none"
         id="path5280" />
    </symbol>
    <symbol
       id="symbol25655">
      <title
         id="title25657">Camera Alt</title>
      <path
         d="M18 4l-3.66 4h-6.34c-2.21 0-4 1.79-4 4v24c0 2.21 1.79 4 4 4h32c2.21 0 4-1.79 4-4v-24c0-2.21-1.79-4-4-4h-6.34l-3.66-4h-12zm6 30c-5.52 0-10-4.48-10-10s4.48-10 10-10 10 4.48 10 10-4.48 10-10 10z"
         style="stroke:none"
         id="path25659" />
    </symbol>
    <symbol
       id="symbol7032">
      <title
         id="title7034">Image</title>
      <path
         d="M42 38V10c0-2.21-1.79-4-4-4H10c-2.21 0-4 1.79-4 4v28c0 2.21 1.79 4 4 4h28c2.21 0 4-1.79 4-4zM17 27l5 6.01L29 24l9 12H10l7-9z"
         style="stroke:none"
         id="path7036" />
    </symbol>
    <symbol
       id="symbol7152">
      <title
         id="title7154">Panorama</title>
      <path
         d="M46 36V12c0-2.21-1.79-4-4-4H6c-2.21 0-4 1.79-4 4v24c0 2.21 1.79 4 4 4h36c2.21 0 4-1.79 4-4zM17 25l5 6.01L29 22l9 12H10l7-9z"
         style="stroke:none"
         id="path7156" />
    </symbol>
  </defs>
  <sodipodi:namedview
     pagecolor="#ffffff"
     bordercolor="#666666"
     borderopacity="1"
     objecttolerance="10"
     gridtolerance="10"
     guidetolerance="10"
     inkscape:pageopacity="0"
     inkscape:pageshadow="2"
     inkscape:window-width="1920"
     inkscape:window-height="1025"
     id="namedview4"
     showgrid="false"
     inkscape:zoom="4"
     inkscape:cx="43.196453"
     inkscape:cy="0.47190111"
     inkscape:window-x="1920"
     inkscape:window-y="27"
     inkscape:window-maximized="1"
     inkscape:current-layer="svg2" />
  <rect
     style="opacity:1;fill:#ffffff;fill-opacity:1;stroke:none;stroke-width:20;stroke-linecap:butt;stroke-linejoin:miter;stroke-miterlimit:4;stroke-dasharray:none;stroke-opacity:1"
     id="rect4187"
     width="100"
     height="79"
     x="0"
     y="0" />
  <g
     id="use17286"
     style="fill:#777777;fill-opacity:1"
     transform="matrix(0.08923592,0,0,0.08925583,30.006692,6.159433)">
    <title
       id="title16298">Instagram</title>
    <path
       style="fill:#777777;fill-opacity:1"
       inkscape:connector-curvature="0"
       id="path16300"
       d="m 224.1,141 c -63.6,0 -114.9,51.3 -114.9,114.9 0,63.6 51.3,114.9 114.9,114.9 C 287.7,370.8 339,319.5 339,255.9 339,192.3 287.7,141 224.1,141 Z m 0,189.6 c -41.1,0 -74.7,-33.5 -74.7,-74.7 0,-41.2 33.5,-74.7 74.7,-74.7 41.2,0 74.7,33.5 74.7,74.7 0,41.2 -33.6,74.7 -74.7,74.7 z M 370.5,136.3 c 0,14.9 -12,26.8 -26.8,26.8 -14.9,0 -26.8,-12 -26.8,-26.8 0,-14.8 12,-26.8 26.8,-26.8 14.8,0 26.8,12 26.8,26.8 z m 76.1,27.2 c -1.7,-35.9 -9.9,-67.7 -36.2,-93.9 -26.2,-26.2 -58,-34.4 -93.9,-36.2 -37,-2.1 -147.9,-2.1 -184.9,0 -35.8,1.7 -67.6,9.9 -93.9,36.1 -26.3,26.2 -34.4,58 -36.2,93.9 -2.1,37 -2.1,147.9 0,184.9 1.7,35.9 9.9,67.7 36.2,93.9 26.3,26.2 58,34.4 93.9,36.2 37,2.1 147.9,2.1 184.9,0 35.9,-1.7 67.7,-9.9 93.9,-36.2 26.2,-26.2 34.4,-58 36.2,-93.9 2.1,-37 2.1,-147.8 0,-184.8 z M 398.8,388 c -7.8,19.6 -22.9,34.7 -42.6,42.6 -29.5,11.7 -99.5,9 -132.1,9 -32.6,0 -102.7,2.6 -132.1,-9 -19.6,-7.8 -34.7,-22.9 -42.6,-42.6 -11.7,-29.5 -9,-99.5 -9,-132.1 0,-32.6 -2.6,-102.7 9,-132.1 7.8,-19.6 22.9,-34.7 42.6,-42.6 29.5,-11.7 99.5,-9 132.1,-9 32.6,0 102.7,-2.6 132.1,9 19.6,7.8 34.7,22.9 42.6,42.6 11.7,29.5 9,99.5 9,132.1 0,32.6 2.7,102.7 -9,132.1 z" />
  </g>
  <g
     id="g16784"
     transform="translate(-6,10)">
    <path
       inkscape:connector-curvature="0"
       id="path16294"
       style="fill:#777777;fill-opacity:1;stroke:none;stroke-width:0.49999997"
       d="M 45,58.999999 V 45.000001 C 45,43.895 44.105,43 42.999999,43 H 29.000001 C 27.895001,43 27,43.895 27,45.000001 V 58.999999 C 27,60.104999 27.895001,61 29.000001,61 H 42.999999 C 44.105,61 45,60.104999 45,58.999999 Z M 32.5,53.5 l 2.500001,3.004999 3.5,-4.504999 4.499998,6 H 29.000001 Z" />
    <path
       d="M 65,58.999999 V 45.000001 C 65,43.895 64.105,43 62.999999,43 H 49.000001 C 47.895001,43 47,43.895 47,45.000001 V 58.999999 C 47,60.104999 47.895001,61 49.000001,61 H 62.999999 C 64.105,61 65,60.104999 65,58.999999 Z M 52.5,53.5 l 2.500001,3.004999 3.5,-4.504999 4.499998,6 H 49.000001 Z"
       style="fill:#777777;fill-opacity:1;stroke:none;stroke-width:0.49999997"
       id="path16747"
       inkscape:connector-curvature="0" />
    <path
       inkscape:connector-curvature="0"
       id="path16764"
       style="fill:#777777;fill-opacity:1;stroke:none;stroke-width:0.49999997"
       d="M 85,58.999999 V 45.000001 C 85,43.895 84.105,43 82.999999,43 H 69.000001 C 67.895001,43 67,43.895 67,45.000001 V 58.999999 C 67,60.104999 67.895001,61 69.000001,61 H 82.999999 C 84.105,61 85,60.104999 85,58.999999 Z M 72.5,53.5 l 2.500001,3.004999 3.5,-4.504999 4.499998,6 H 69.000001 Z" />
  </g>
</svg>
