<?xml version="1.0" encoding="UTF-8" standalone="no"?>
<!-- Created with Inkscape (http://www.inkscape.org/) -->

<svg
   xmlns:dc="http://purl.org/dc/elements/1.1/"
   xmlns:cc="http://creativecommons.org/ns#"
   xmlns:rdf="http://www.w3.org/1999/02/22-rdf-syntax-ns#"
   xmlns:svg="http://www.w3.org/2000/svg"
   xmlns="http://www.w3.org/2000/svg"
   xmlns:xlink="http://www.w3.org/1999/xlink"
   xmlns:sodipodi="http://sodipodi.sourceforge.net/DTD/sodipodi-0.dtd"
   xmlns:inkscape="http://www.inkscape.org/namespaces/inkscape"
   id="svg2"
   version="1.1"
   inkscape:version="0.92.3 (2405546, 2018-03-11)"
   width="128"
   height="128"
   sodipodi:docname="icon.svg"
   inkscape:export-filename="/var/lib/odoo/lolitasyl/addons/trey-addons/delivery_carrier_tracking_seur/static/description/icon.png"
   inkscape:export-xdpi="96"
   inkscape:export-ydpi="96">
  <metadata
     id="metadata8">
    <rdf:RDF>
      <cc:Work
         rdf:about="">
        <dc:format>image/svg+xml</dc:format>
        <dc:type
           rdf:resource="http://purl.org/dc/dcmitype/StillImage" />
        <dc:title />
      </cc:Work>
    </rdf:RDF>
  </metadata>
  <defs
     id="defs6">
    <symbol
       id="symbol5748">
      <title
         id="title5750">Grade</title>
      <path
         d="M24 34.54l12.36 7.46-3.27-14.06 10.91-9.45-14.38-1.24-5.62-13.25-5.62 13.25-14.38 1.24 10.91 9.45-3.27 14.06z"
         style="stroke:none"
         id="path5752" />
    </symbol>
    <symbol
       id="symbol4786">
      <title
         id="title4788">Person</title>
      <path
         d="M24 24c4.42 0 8-3.59 8-8 0-4.42-3.58-8-8-8s-8 3.58-8 8c0 4.41 3.58 8 8 8zm0 4c-5.33 0-16 2.67-16 8v4h32v-4c0-5.33-10.67-8-16-8z"
         style="stroke:none"
         id="path4790" />
    </symbol>
    <symbol
       id="symbol5791">
      <title
         id="title5793">Https</title>
      <path
         d="M36 16h-2v-4c0-5.52-4.48-10-10-10s-10 4.48-10 10v4h-2c-2.21 0-4 1.79-4 4v20c0 2.21 1.79 4 4 4h24c2.21 0 4-1.79 4-4v-20c0-2.21-1.79-4-4-4zm-12 18c-2.21 0-4-1.79-4-4s1.79-4 4-4 4 1.79 4 4-1.79 4-4 4zm6.2-18h-12.4v-4c0-3.42 2.78-6.2 6.2-6.2 3.42 0 6.2 2.78 6.2 6.2v4z"
         style="stroke:none"
         id="path5795" />
    </symbol>
    <symbol
       id="symbol5857">
      <title
         id="title5859">Lock Open</title>
      <path
         d="M24 34c2.21 0 4-1.79 4-4s-1.79-4-4-4-4 1.79-4 4 1.79 4 4 4zm12-18h-2v-4c0-5.52-4.48-10-10-10s-10 4.48-10 10h3.8c0-3.42 2.78-6.2 6.2-6.2 3.42 0 6.2 2.78 6.2 6.2v4h-18.2c-2.21 0-4 1.79-4 4v20c0 2.21 1.79 4 4 4h24c2.21 0 4-1.79 4-4v-20c0-2.21-1.79-4-4-4zm0 24h-24v-20h24v20z"
         style="stroke:none"
         id="path5861" />
    </symbol>
    <symbol
       id="symbol10530">
      <title
         id="title10532">Local Grocery Store</title>
      <path
         d="M14 36c-2.21 0-3.98 1.79-3.98 4s1.77 4 3.98 4 4-1.79 4-4-1.79-4-4-4zM2 4v4h4l7.19 15.17-2.7 4.9c-.31.58-.49 1.23-.49 1.93 0 2.21 1.79 4 4 4h24v-4H14.85c-.28 0-.5-.22-.5-.5 0-.09.02-.17.06-.24L16.2 26h14.9c1.5 0 2.81-.83 3.5-2.06l7.15-12.98c.16-.28.25-.61.25-.96 0-1.11-.9-2-2-2H10.43l-1.9-4H2zm32 32c-2.21 0-3.98 1.79-3.98 4s1.77 4 3.98 4 4-1.79 4-4-1.79-4-4-4z"
         style="stroke:none"
         id="path10534" />
    </symbol>
    <symbol
       id="symbol5119">
      <title
         id="title5121">Mail</title>
      <path
         d="M40 8h-32c-2.21 0-3.98 1.79-3.98 4l-.02 24c0 2.21 1.79 4 4 4h32c2.21 0 4-1.79 4-4v-24c0-2.21-1.79-4-4-4zm0 8l-16 10-16-10v-4l16 10 16-10v4z"
         style="stroke:none"
         id="path5123" />
    </symbol>
    <symbol
       id="symbol7506">
      <title
         id="title7508">Check</title>
      <path
         d="M18 32.34L9.66 24l-2.83 2.83L18 38l24-24-2.83-2.83z"
         style="stroke:none"
         id="path7510" />
    </symbol>
    <clipPath
       clipPathUnits="userSpaceOnUse"
       id="clipPath13866">
      <rect
         style="opacity:1;fill:#d50000;fill-opacity:1;stroke:none;stroke-width:4;stroke-linecap:butt;stroke-linejoin:miter;stroke-miterlimit:4;stroke-dasharray:none;stroke-dashoffset:0;stroke-opacity:1"
         id="rect13868"
         width="33.185184"
         height="17.777779"
         x="7.4074073"
         y="-0.53565156" />
    </clipPath>
    <symbol
       id="symbol6463">
      <title
         id="title6465">Public</title>
      <path
         d="M24 4C12.95 4 4 12.95 4 24s8.95 20 20 20 20-8.95 20-20S35.05 4 24 4zm-2 35.86C14.11 38.88 8 32.16 8 24c0-1.23.15-2.43.42-3.58L18 30v2c0 2.21 1.79 4 4 4v3.86zm13.79-5.07C35.28 33.17 33.78 32 32 32h-2v-6c0-1.1-.9-2-2-2H16v-4h4c1.1 0 2-.9 2-2v-4h4c2.21 0 4-1.79 4-4v-.83c5.86 2.37 10 8.11 10 14.83 0 4.16-1.6 7.94-4.21 10.79z"
         style="stroke:none"
         id="path6467" />
    </symbol>
    <symbol
       id="icon-desktop"
       viewBox="0 0 30 28">
      <title
         id="title7684">desktop</title>
      <path
         class="path1"
         d="M28 15.5v-13c0-0.266-0.234-0.5-0.5-0.5h-25c-0.266 0-0.5 0.234-0.5 0.5v13c0 0.266 0.234 0.5 0.5 0.5h25c0.266 0 0.5-0.234 0.5-0.5zM30 2.5v17c0 1.375-1.125 2.5-2.5 2.5h-8.5c0 1.328 1 2.453 1 3s-0.453 1-1 1h-8c-0.547 0-1-0.453-1-1 0-0.578 1-1.641 1-3h-8.5c-1.375 0-2.5-1.125-2.5-2.5v-17c0-1.375 1.125-2.5 2.5-2.5h25c1.375 0 2.5 1.125 2.5 2.5z"
         id="path7686" />
    </symbol>
    <symbol
       id="icon-window-maximize"
       viewBox="0 0 28 28">
      <title
         id="title9794">window-maximize</title>
      <path
         class="path1"
         d="M4 22h20v-12h-20v12zM28 4.5v19c0 1.375-1.125 2.5-2.5 2.5h-23c-1.375 0-2.5-1.125-2.5-2.5v-19c0-1.375 1.125-2.5 2.5-2.5h23c1.375 0 2.5 1.125 2.5 2.5z"
         id="path9796" />
    </symbol>
    <inkscape:perspective
       id="perspective10" />
    <inkscape:perspective
       id="perspective2400" />
  </defs>
  <sodipodi:namedview
     pagecolor="#ffffff"
     bordercolor="#666666"
     borderopacity="1"
     objecttolerance="10"
     gridtolerance="10"
     guidetolerance="10"
     inkscape:pageopacity="0"
     inkscape:pageshadow="2"
     inkscape:window-width="1920"
     inkscape:window-height="1025"
     id="namedview4"
     showgrid="false"
     inkscape:zoom="1.4142136"
     inkscape:cx="-143.61711"
     inkscape:cy="-24.249421"
     inkscape:window-x="1920"
     inkscape:window-y="27"
     inkscape:window-maximized="1"
     inkscape:current-layer="layer1"
     showguides="true"
     inkscape:guide-bbox="true">
    <sodipodi:guide
       position="64,100.23239"
       orientation="1,0"
       id="guide5698"
       inkscape:label=""
       inkscape:color="rgb(0,0,255)"
       inkscape:locked="false" />
    <sodipodi:guide
       position="88.741901,64"
       orientation="0,1"
       id="guide5700"
       inkscape:label=""
       inkscape:color="rgb(0,0,255)"
       inkscape:locked="false" />
  </sodipodi:namedview>
  <g
     inkscape:groupmode="layer"
     id="layer1"
     inkscape:label="Layer 1">
    <use
       id="use14733"
       style="fill:#174267;fill-opacity:1;stroke:none"
       xlink:href="#symbol5448"
       x="0"
       y="0"
       width="100%"
       height="100%"
       transform="matrix(1.75,0,0,1.75,22,23.5)" />
    <use
       id="use14733-3"
       style="fill:#174267;fill-opacity:1;stroke:none"
       xlink:href="#symbol5448"
       x="0"
       y="0"
       width="100%"
       height="100%"
       transform="matrix(1.75,0,0,1.75,22,23.5)" />
    <use
       id="use14733-6"
       style="fill:#174267;fill-opacity:1;stroke:none"
       xlink:href="#symbol5448"
       x="0"
       y="0"
       width="100%"
       height="100%"
       transform="matrix(1.75,0,0,1.75,22,23.5)" />
    <g
       id="g16356"
       transform="matrix(2.0549404,0,0,2.0549404,-67.516186,-263.81461)">
      <path
         d="m 83.94642,149.52041 c 0.748164,-0.26739 1.106255,-0.73556 1.106255,-1.44632 0,-0.69733 -0.288144,-1.03581 -1.033245,-1.21373 -0.246822,-0.0589 -0.531989,-0.0742 -1.659151,-0.0887 l -1.361101,-0.0175 v 1.45764 1.45763 l 1.30149,-0.013 1.301491,-0.013 0.344261,-0.12303 z m -7.09311,8.10492 c -0.01477,-0.0148 -0.02685,-3.17203 -0.02685,-7.01613 v -6.98928 l 4.381353,0.0142 c 4.317927,0.014 4.387071,0.0155 4.776497,0.10028 1.053055,0.22937 1.752116,0.58223 2.312011,1.16703 0.636502,0.66482 0.889472,1.37194 0.88917,2.48546 -3.97e-4,1.36908 -0.325897,2.29632 -1.046465,2.98079 -0.328958,0.31247 -0.604385,0.48255 -1.049172,0.64787 -0.193619,0.072 -0.270901,0.11538 -0.207547,0.11659 0.195772,0.004 0.578418,0.12379 0.906318,0.28432 0.544336,0.2665 0.922659,0.71713 1.095191,1.30452 0.05657,0.19259 0.421055,4.32632 0.421055,4.77531 v 0.15517 h -2.145969 -2.145969 l -7.94e-4,-0.52656 c -0.0015,-1.04961 -0.07622,-2.72519 -0.133853,-3.0016 -0.156616,-0.75114 -0.607802,-1.19722 -1.41932,-1.40328 -0.285783,-0.0726 -0.486431,-0.0876 -1.396485,-0.10475 l -1.062751,-0.02 -0.01023,2.51817 -0.01024,2.51816 -2.049574,0.0103 c -1.12727,0.006 -2.06166,-0.002 -2.076424,-0.0166 z m -24.705488,-6.988 v -7.01414 h 5.205961 5.205961 v 1.70883 1.70882 h -3.139473 -3.139472 v 1.01338 1.01337 h 2.980512 2.980512 v 1.56974 1.56974 h -2.980512 -2.980512 v 1.01337 1.01338 h 3.218953 3.218953 v 1.70882 1.70883 h -5.285442 -5.285441 z m 16.233855,7.27341 c -2.906412,-0.33496 -4.46675,-1.66014 -4.956361,-4.20934 -0.08305,-0.43241 -0.08504,-0.53748 -0.0994,-5.25972 l -0.01466,-4.81849 h 2.066548 2.066548 l 0.01406,4.58005 c 0.01286,4.19163 0.01995,4.60534 0.08361,4.87811 0.194079,0.83166 0.618337,1.29117 1.384364,1.49939 0.359509,0.0977 1.27426,0.0957 1.601266,-0.003 0.737816,-0.22383 1.125779,-0.65316 1.315876,-1.45619 0.06501,-0.27463 0.07164,-0.65945 0.08429,-4.89797 l 0.01373,-4.59993 h 2.064927 2.064926 v 4.56591 c 0,2.88661 -0.01528,4.71727 -0.04154,4.97746 -0.09148,0.90637 -0.354093,1.76928 -0.735813,2.41776 -0.24011,0.40792 -0.818949,1.02587 -1.219916,1.30234 -0.72637,0.50085 -1.597598,0.81467 -2.739619,0.98687 -0.578561,0.0872 -2.327624,0.10927 -2.952837,0.0372 z m -24.640377,0.0984 c -1.618294,-0.24514 -2.819174,-0.78033 -3.699661,-1.64884 -0.606244,-0.59799 -0.972135,-1.24519 -1.185333,-2.09666 -0.09294,-0.37119 -0.192712,-1.2337 -0.151696,-1.31142 0.0086,-0.0164 1.003299,-0.0298 2.210327,-0.0298 h 2.194598 l 0.04655,0.43805 c 0.0925,0.87026 0.394465,1.22844 1.222531,1.45007 0.380659,0.10188 1.24399,0.12378 1.648505,0.0418 0.838112,-0.16982 1.232895,-0.5582 1.232454,-1.21248 0,-0.24064 -0.01791,-0.32942 -0.08946,-0.4476 -0.229297,-0.37875 -0.452613,-0.46315 -3.327996,-1.25789 -2.086183,-0.57661 -2.958718,-0.95871 -3.687628,-1.61488 -0.396785,-0.35719 -0.745612,-0.9405 -0.887807,-1.48462 -0.159795,-0.61144 -0.138291,-1.59383 0.04997,-2.28308 0.104838,-0.38383 0.420021,-1.02203 0.661268,-1.33897 0.835914,-1.09821 2.238698,-1.80441 4.022112,-2.02487 0.426277,-0.0527 1.815728,-0.0535 2.2861,-0.001 2.790356,0.30958 4.454062,1.60775 4.844028,3.77973 0.03287,0.18303 0.06515,0.44902 0.07175,0.59109 l 0.012,0.25832 H 49.08783 46.961731 l -0.02461,-0.22905 c -0.05333,-0.49631 -0.263032,-0.77635 -0.766532,-1.02366 -0.376868,-0.18511 -0.753068,-0.24884 -1.334955,-0.22613 -0.962515,0.0376 -1.363597,0.30961 -1.365373,0.92614 -9.27e-4,0.30203 0.123409,0.53456 0.386791,0.7237 0.396579,0.28481 0.901104,0.43772 2.512731,0.76157 2.471806,0.4967 3.664062,0.97596 4.489962,1.80485 0.669769,0.67221 0.970157,1.48575 0.970157,2.6275 0,1.83298 -0.852176,3.20537 -2.514746,4.0499 -0.760845,0.38649 -1.782497,0.67042 -2.870086,0.79764 -0.727272,0.0851 -2.078939,0.0755 -2.703769,-0.0191 z"
         style="fill:#e95128;fill-opacity:1;stroke-width:0.1324672"
         id="path4165"
         inkscape:connector-curvature="0" />
      <g
         transform="translate(55.110337,18.208)"
         id="g16349">
        <path
           style="fill:#bdd1ec;fill-opacity:1;stroke-width:0.1324672"
           d="m -15.967797,157.65137 c -0.0263,-0.009 -0.03975,-2.38349 -0.03975,-7.02073 v -7.00745 H 8.8896635 33.786874 v 7.03553 7.03552 l -24.857461,-0.0148 c -13.6716038,-0.008 -24.875348,-0.0208 -24.89721,-0.0281 z"
           id="path16343"
           inkscape:connector-curvature="0" />
        <rect
           y="143.62338"
           x="-7.7211409"
           height="14.03419"
           width="41.50758"
           id="rect16345"
           style="opacity:1;fill:#6d9ad3;fill-opacity:1;fill-rule:nonzero;stroke:none;stroke-width:0.1324672;stroke-linecap:butt;stroke-linejoin:miter;stroke-miterlimit:4;stroke-dasharray:none;stroke-opacity:1" />
        <rect
           style="opacity:1;fill:#1c64b0;fill-opacity:1;fill-rule:nonzero;stroke:none;stroke-width:0.1324672;stroke-linecap:butt;stroke-linejoin:miter;stroke-miterlimit:4;stroke-dasharray:none;stroke-opacity:1"
           id="rect16347"
           width="29.073092"
           height="14.03419"
           x="4.7133465"
           y="143.62338" />
      </g>
    </g>
  </g>
</svg>
