<?xml version="1.0" encoding="UTF-8" standalone="no"?>
<!-- Created with Inkscape (http://www.inkscape.org/) -->

<svg
   xmlns:dc="http://purl.org/dc/elements/1.1/"
   xmlns:cc="http://creativecommons.org/ns#"
   xmlns:rdf="http://www.w3.org/1999/02/22-rdf-syntax-ns#"
   xmlns:svg="http://www.w3.org/2000/svg"
   xmlns="http://www.w3.org/2000/svg"
   xmlns:xlink="http://www.w3.org/1999/xlink"
   xmlns:sodipodi="http://sodipodi.sourceforge.net/DTD/sodipodi-0.dtd"
   xmlns:inkscape="http://www.inkscape.org/namespaces/inkscape"
   id="svg2"
   version="1.1"
   inkscape:version="0.92.3 (2405546, 2018-03-11)"
   width="128"
   height="128"
   sodipodi:docname="icon.svg"
   inkscape:export-filename="/var/lib/odoo/lolitasyl/addons/trey-addons/delivery_carrier_tracking_correos_express/static/description/icon.png"
   inkscape:export-xdpi="96"
   inkscape:export-ydpi="96">
  <metadata
     id="metadata8">
    <rdf:RDF>
      <cc:Work
         rdf:about="">
        <dc:format>image/svg+xml</dc:format>
        <dc:type
           rdf:resource="http://purl.org/dc/dcmitype/StillImage" />
        <dc:title />
      </cc:Work>
    </rdf:RDF>
  </metadata>
  <defs
     id="defs6">
    <symbol
       id="symbol5748">
      <title
         id="title5750">Grade</title>
      <path
         d="M24 34.54l12.36 7.46-3.27-14.06 10.91-9.45-14.38-1.24-5.62-13.25-5.62 13.25-14.38 1.24 10.91 9.45-3.27 14.06z"
         style="stroke:none"
         id="path5752" />
    </symbol>
    <symbol
       id="symbol4786">
      <title
         id="title4788">Person</title>
      <path
         d="M24 24c4.42 0 8-3.59 8-8 0-4.42-3.58-8-8-8s-8 3.58-8 8c0 4.41 3.58 8 8 8zm0 4c-5.33 0-16 2.67-16 8v4h32v-4c0-5.33-10.67-8-16-8z"
         style="stroke:none"
         id="path4790" />
    </symbol>
    <symbol
       id="symbol5791">
      <title
         id="title5793">Https</title>
      <path
         d="M36 16h-2v-4c0-5.52-4.48-10-10-10s-10 4.48-10 10v4h-2c-2.21 0-4 1.79-4 4v20c0 2.21 1.79 4 4 4h24c2.21 0 4-1.79 4-4v-20c0-2.21-1.79-4-4-4zm-12 18c-2.21 0-4-1.79-4-4s1.79-4 4-4 4 1.79 4 4-1.79 4-4 4zm6.2-18h-12.4v-4c0-3.42 2.78-6.2 6.2-6.2 3.42 0 6.2 2.78 6.2 6.2v4z"
         style="stroke:none"
         id="path5795" />
    </symbol>
    <symbol
       id="symbol5857">
      <title
         id="title5859">Lock Open</title>
      <path
         d="M24 34c2.21 0 4-1.79 4-4s-1.79-4-4-4-4 1.79-4 4 1.79 4 4 4zm12-18h-2v-4c0-5.52-4.48-10-10-10s-10 4.48-10 10h3.8c0-3.42 2.78-6.2 6.2-6.2 3.42 0 6.2 2.78 6.2 6.2v4h-18.2c-2.21 0-4 1.79-4 4v20c0 2.21 1.79 4 4 4h24c2.21 0 4-1.79 4-4v-20c0-2.21-1.79-4-4-4zm0 24h-24v-20h24v20z"
         style="stroke:none"
         id="path5861" />
    </symbol>
    <symbol
       id="symbol10530">
      <title
         id="title10532">Local Grocery Store</title>
      <path
         d="M14 36c-2.21 0-3.98 1.79-3.98 4s1.77 4 3.98 4 4-1.79 4-4-1.79-4-4-4zM2 4v4h4l7.19 15.17-2.7 4.9c-.31.58-.49 1.23-.49 1.93 0 2.21 1.79 4 4 4h24v-4H14.85c-.28 0-.5-.22-.5-.5 0-.09.02-.17.06-.24L16.2 26h14.9c1.5 0 2.81-.83 3.5-2.06l7.15-12.98c.16-.28.25-.61.25-.96 0-1.11-.9-2-2-2H10.43l-1.9-4H2zm32 32c-2.21 0-3.98 1.79-3.98 4s1.77 4 3.98 4 4-1.79 4-4-1.79-4-4-4z"
         style="stroke:none"
         id="path10534" />
    </symbol>
    <symbol
       id="symbol5119">
      <title
         id="title5121">Mail</title>
      <path
         d="M40 8h-32c-2.21 0-3.98 1.79-3.98 4l-.02 24c0 2.21 1.79 4 4 4h32c2.21 0 4-1.79 4-4v-24c0-2.21-1.79-4-4-4zm0 8l-16 10-16-10v-4l16 10 16-10v4z"
         style="stroke:none"
         id="path5123" />
    </symbol>
    <symbol
       id="symbol7506">
      <title
         id="title7508">Check</title>
      <path
         d="M18 32.34L9.66 24l-2.83 2.83L18 38l24-24-2.83-2.83z"
         style="stroke:none"
         id="path7510" />
    </symbol>
    <clipPath
       clipPathUnits="userSpaceOnUse"
       id="clipPath13866">
      <rect
         style="opacity:1;fill:#d50000;fill-opacity:1;stroke:none;stroke-width:4;stroke-linecap:butt;stroke-linejoin:miter;stroke-miterlimit:4;stroke-dasharray:none;stroke-dashoffset:0;stroke-opacity:1"
         id="rect13868"
         width="33.185184"
         height="17.777779"
         x="7.4074073"
         y="-0.53565156" />
    </clipPath>
    <symbol
       id="symbol6463">
      <title
         id="title6465">Public</title>
      <path
         d="M24 4C12.95 4 4 12.95 4 24s8.95 20 20 20 20-8.95 20-20S35.05 4 24 4zm-2 35.86C14.11 38.88 8 32.16 8 24c0-1.23.15-2.43.42-3.58L18 30v2c0 2.21 1.79 4 4 4v3.86zm13.79-5.07C35.28 33.17 33.78 32 32 32h-2v-6c0-1.1-.9-2-2-2H16v-4h4c1.1 0 2-.9 2-2v-4h4c2.21 0 4-1.79 4-4v-.83c5.86 2.37 10 8.11 10 14.83 0 4.16-1.6 7.94-4.21 10.79z"
         style="stroke:none"
         id="path6467" />
    </symbol>
    <symbol
       id="icon-desktop"
       viewBox="0 0 30 28">
      <title
         id="title7684">desktop</title>
      <path
         class="path1"
         d="M28 15.5v-13c0-0.266-0.234-0.5-0.5-0.5h-25c-0.266 0-0.5 0.234-0.5 0.5v13c0 0.266 0.234 0.5 0.5 0.5h25c0.266 0 0.5-0.234 0.5-0.5zM30 2.5v17c0 1.375-1.125 2.5-2.5 2.5h-8.5c0 1.328 1 2.453 1 3s-0.453 1-1 1h-8c-0.547 0-1-0.453-1-1 0-0.578 1-1.641 1-3h-8.5c-1.375 0-2.5-1.125-2.5-2.5v-17c0-1.375 1.125-2.5 2.5-2.5h25c1.375 0 2.5 1.125 2.5 2.5z"
         id="path7686" />
    </symbol>
    <symbol
       id="icon-window-maximize"
       viewBox="0 0 28 28">
      <title
         id="title9794">window-maximize</title>
      <path
         class="path1"
         d="M4 22h20v-12h-20v12zM28 4.5v19c0 1.375-1.125 2.5-2.5 2.5h-23c-1.375 0-2.5-1.125-2.5-2.5v-19c0-1.375 1.125-2.5 2.5-2.5h23c1.375 0 2.5 1.125 2.5 2.5z"
         id="path9796" />
    </symbol>
    <inkscape:perspective
       id="perspective10" />
    <inkscape:perspective
       id="perspective2400" />
  </defs>
  <sodipodi:namedview
     pagecolor="#ffffff"
     bordercolor="#666666"
     borderopacity="1"
     objecttolerance="10"
     gridtolerance="10"
     guidetolerance="10"
     inkscape:pageopacity="0"
     inkscape:pageshadow="2"
     inkscape:window-width="1920"
     inkscape:window-height="1025"
     id="namedview4"
     showgrid="false"
     inkscape:zoom="2.8284272"
     inkscape:cx="110.69797"
     inkscape:cy="17.865531"
     inkscape:window-x="1920"
     inkscape:window-y="27"
     inkscape:window-maximized="1"
     inkscape:current-layer="layer1"
     showguides="true"
     inkscape:guide-bbox="true">
    <sodipodi:guide
       position="64,100.23239"
       orientation="1,0"
       id="guide5698"
       inkscape:label=""
       inkscape:color="rgb(0,0,255)"
       inkscape:locked="false" />
    <sodipodi:guide
       position="88.741901,64"
       orientation="0,1"
       id="guide5700"
       inkscape:label=""
       inkscape:color="rgb(0,0,255)"
       inkscape:locked="false" />
  </sodipodi:namedview>
  <g
     inkscape:groupmode="layer"
     id="layer1"
     inkscape:label="Layer 1">
    <use
       id="use14733"
       style="fill:#174267;fill-opacity:1;stroke:none"
       xlink:href="#symbol5448"
       x="0"
       y="0"
       width="100%"
       height="100%"
       transform="matrix(1.75,0,0,1.75,22,23.5)" />
    <use
       id="use14733-3"
       style="fill:#174267;fill-opacity:1;stroke:none"
       xlink:href="#symbol5448"
       x="0"
       y="0"
       width="100%"
       height="100%"
       transform="matrix(1.75,0,0,1.75,22,23.5)" />
    <use
       id="use14733-6"
       style="fill:#174267;fill-opacity:1;stroke:none"
       xlink:href="#symbol5448"
       x="0"
       y="0"
       width="100%"
       height="100%"
       transform="matrix(1.75,0,0,1.75,22,23.5)" />
    <g
       transform="matrix(1.2229568,0,0,-1.2229568,11.999999,75.732874)"
       inkscape:label="ink_ext_XXXXXX"
       id="g16310">
      <g
         transform="scale(0.1)"
         id="g16312">
        <path
           inkscape:connector-curvature="0"
           id="path16314"
           style="fill:#ea1a39;fill-opacity:1;fill-rule:nonzero;stroke:none"
           d="M 118.887,45.8203 H 0 V 201.547 H 118.887 V 173.055 H 29.1328 v -35.793 h 86.6442 v -27.36 H 29.1328 V 74.75 H 118.887 V 45.8203" />
        <path
           inkscape:connector-curvature="0"
           id="path16316"
           style="fill:#ea1a39;fill-opacity:1;fill-rule:nonzero;stroke:none"
           d="m 135.926,155.496 55.129,-54.027 -57.024,-55.6487 h 43.574 l 55.305,55.5977 -54.355,54.078 h -42.629" />
        <path
           inkscape:connector-curvature="0"
           id="path16318"
           style="fill:#ea1a39;fill-opacity:1;fill-rule:nonzero;stroke:none"
           d="m 270.613,0 v 155.5 h 25.348 l 1.766,-15.125 c 8.464,12.234 23.121,17.582 35.601,17.582 33.813,0 56.227,-25.152 56.227,-57.402 0,-32.0316 -20.223,-57.3909 -55.356,-57.3909 -11.582,0 -28.679,3.5586 -36.472,15.5703 L 297.727,0 Z m 91.832,100.555 c 0,17.136 -11.554,31.117 -31.144,31.117 -19.571,0 -31.156,-13.981 -31.156,-31.117 0,-17.1214 12.707,-31.1566 31.156,-31.1566 18.465,0 31.144,14.0352 31.144,31.1566" />
        <path
           inkscape:connector-curvature="0"
           id="path16320"
           style="fill:#ea1a39;fill-opacity:1;fill-rule:nonzero;stroke:none"
           d="m 436,155.496 2.047,-12.687 c 8.422,13.574 19.762,15.578 30.867,15.578 11.379,0 22.254,-4.461 28.258,-10.446 l -12.227,-23.597 c -5.55,4.687 -10.656,7.125 -19.547,7.125 -14.265,0 -27.351,-7.571 -27.351,-27.801 V 45.8203 H 410.918 V 155.496 H 436" />
        <path
           inkscape:connector-curvature="0"
           id="path16322"
           style="fill:#ea1a39;fill-opacity:1;fill-rule:nonzero;stroke:none"
           d="m 533.664,90.9883 c 1.785,-13.5703 13.574,-23.3516 32.695,-23.3516 10.004,0 23.106,3.7617 29.348,10.2227 L 613.016,60.7578 C 601.488,48.7344 582.57,42.9375 565.91,42.9375 c -37.812,0 -60.258,23.3438 -60.258,58.5155 0,33.332 22.661,57.387 58.274,57.387 36.648,0 59.582,-22.688 55.34,-67.8517 z m 59.551,22.4687 c -1.742,14.238 -12.844,21.328 -28.422,21.328 -14.684,0 -26.648,-7.09 -30.691,-21.328 h 59.113" />
        <path
           inkscape:connector-curvature="0"
           id="path16324"
           style="fill:#ea1a39;fill-opacity:1;fill-rule:nonzero;stroke:none"
           d="m 716.359,126.355 c -7.804,7.325 -16.679,9.797 -27.129,9.797 -12.902,0 -20.019,-4.007 -20.019,-10.886 0,-7.137 6.465,-11.145 20.453,-12.024 20.668,-1.336 46.945,-6.019 46.945,-35.1326 0,-19.3633 -15.765,-36.0469 -47.156,-36.0469 -17.308,0 -34.695,2.8711 -50.676,19.5742 l 13.313,19.3438 c 7.762,-8.6758 25.57,-15.1055 37.82,-15.3555 10.223,-0.2187 19.797,5.1172 19.797,13.1406 0,7.5547 -6.258,10.6641 -21.781,11.5664 -20.699,1.5547 -45.375,9.1172 -45.375,34.027 0,25.368 26.207,34.258 46.254,34.258 17.109,0 30.011,-3.344 42.668,-14.453 l -15.114,-17.809" />
        <path
           inkscape:connector-curvature="0"
           id="path16326"
           style="fill:#ea1a39;fill-opacity:1;fill-rule:nonzero;stroke:none"
           d="m 830.129,126.355 c -7.766,7.325 -16.695,9.797 -27.102,9.797 -12.937,0 -20.047,-4.007 -20.047,-10.886 0,-7.137 6.454,-11.145 20.465,-12.024 20.672,-1.336 46.953,-6.019 46.953,-35.1326 0,-19.3633 -15.808,-36.0469 -47.187,-36.0469 -17.332,0 -34.652,2.8711 -50.684,19.5742 l 13.325,19.3438 c 7.769,-8.6758 25.586,-15.1055 37.812,-15.3555 10.242,-0.2187 19.789,5.1172 19.789,13.1406 0,7.5547 -6.187,10.6641 -21.765,11.5664 -20.719,1.5547 -45.372,9.1172 -45.372,34.027 0,25.368 26.25,34.258 46.215,34.258 17.137,0 30.055,-3.344 42.742,-14.453 l -15.144,-17.809" />
        <path
           inkscape:connector-curvature="0"
           id="path16328"
           style="fill:#ea1a39;fill-opacity:1;fill-rule:nonzero;stroke:none"
           d="m 211.984,80.3203 -20.898,20.9177 20.898,20.942 20.93,-20.942 -20.93,-20.9177" />
        <path
           inkscape:connector-curvature="0"
           id="path16330"
           style="fill:#214b86;fill-opacity:1;fill-rule:nonzero;stroke:none"
           d="M 232.91,59.3945 211.98,80.3164 232.91,101.246 253.816,80.3164 232.91,59.3945" />
        <path
           inkscape:connector-curvature="0"
           id="path16332"
           style="fill:#214b86;fill-opacity:1;fill-rule:nonzero;stroke:none"
           d="m 232.91,101.242 -20.93,20.942 20.93,20.914 20.906,-20.914 -20.906,-20.942" />
        <path
           inkscape:connector-curvature="0"
           id="path16334"
           style="fill:#214b86;fill-opacity:1;fill-rule:nonzero;stroke:none"
           d="m 607.25,267.891 c -7.129,0 -15.586,-1.129 -23.016,-7.176 l 0.914,5.426 h -18.539 l -11.601,-66.004 h 20.058 l 8.457,47.867 c 5.391,1.637 13.54,2.98 20.774,2.98 l 2.953,16.907" />
        <path
           inkscape:connector-curvature="0"
           id="path16336"
           style="fill:#214b86;fill-opacity:1;fill-rule:nonzero;stroke:none"
           d="m 653.785,267.891 c -7.117,0 -15.476,-1.129 -23.015,-7.176 l 1.019,5.426 h -18.527 l -11.614,-66.004 h 20.063 l 8.449,47.867 c 5.399,1.637 13.543,2.98 20.778,2.98 l 2.847,16.907" />
        <path
           inkscape:connector-curvature="0"
           id="path16338"
           style="fill:#214b86;fill-opacity:1;fill-rule:nonzero;stroke:none"
           d="m 822.234,255.176 c 4.993,0 12.832,-0.504 20.977,-1.328 l 2.039,12.187 c -4.988,1.34 -13.543,2.668 -23.43,2.668 -15.265,0 -30.035,-3.277 -30.035,-20.699 0,-9.637 5.395,-15.379 15.379,-19.371 l 4.887,-1.949 c 7.031,-2.969 8.554,-4 8.554,-7.18 0,-5.629 -5.195,-6.758 -11.613,-6.758 -9.664,0 -13.539,0.817 -22.094,1.223 l -2.039,-12.094 c 3.465,-1.027 13.86,-2.559 23.016,-2.559 18.641,0 32.793,5.637 32.793,22.856 0,9.226 -4.586,14.351 -15.984,18.863 l -5.504,2.149 c -5.403,2.25 -7.539,3.386 -7.539,6.14 0,5.649 5.808,5.852 10.593,5.852" />
        <path
           inkscape:connector-curvature="0"
           id="path16340"
           style="fill:#214b86;fill-opacity:1;fill-rule:nonzero;stroke:none"
           d="m 756.141,267.883 c -19.043,0 -31.368,-7.481 -35.543,-29.317 l -1.321,-6.347 c -0.816,-3.996 -0.816,-7.074 -0.816,-10.149 0,-15.781 9.469,-23.683 27.488,-23.683 19.25,0 31.883,7.59 35.75,29.426 l 1.223,7.277 c 0.418,2.457 0.922,6.262 0.922,9.125 0,16.5 -9.985,23.668 -27.703,23.668 m 7.129,-31.16 -1.43,-7.172 c -2.242,-11.684 -5.402,-15.781 -14.352,-15.781 -6.828,0 -9.468,2.359 -9.468,8.3 0,2.258 0.093,4.618 0.699,7.481 l 1.437,7.172 c 2.125,11.687 5.496,15.789 14.254,15.789 7.332,0 9.469,-2.981 9.469,-8.512 0,-1.949 0,-3.996 -0.609,-7.277" />
        <path
           inkscape:connector-curvature="0"
           id="path16342"
           style="fill:#214b86;fill-opacity:1;fill-rule:nonzero;stroke:none"
           d="m 686.684,267.887 c -19.043,0 -32.59,-7.989 -36.461,-31.16 l -0.508,-3.485 c -0.711,-4 -1.227,-7.793 -1.227,-11.074 0,-16.695 10.082,-23.777 28.934,-23.777 11.711,0 21.18,1.64 26.574,2.871 l 2.137,13.328 c -12.32,-0.817 -18.02,-1.137 -24.848,-1.137 -10.586,0 -13.441,2.668 -13.441,8.004 0,1.43 0.301,3.281 0.816,6.246 h 43.078 c 1.321,6.77 1.934,11.379 1.934,15.988 0,14.356 -7.742,24.196 -26.988,24.196 m 7.437,-29.211 h -23.527 l 0.308,0.929 c 1.227,7.172 4.168,13.93 13.95,13.93 7.738,0 9.98,-3.883 9.98,-8.805 0,-1.55 -0.301,-3.597 -0.711,-6.054" />
        <path
           inkscape:connector-curvature="0"
           id="path16344"
           style="fill:#214b86;fill-opacity:1;fill-rule:nonzero;stroke:none"
           d="m 488.457,226.969 c -9.894,-5.895 -21.934,-10.543 -31.437,-10.992 -10.274,-0.508 -21.579,1.32 -24.743,11.574 -4.664,15.09 4.629,34.34 16.754,40.785 16.778,8.926 30.711,4.094 35.492,-0.816 l 3.5,18.011 c -7.113,3.141 -14.351,4.469 -20.46,4.469 -25.551,0 -37.504,-12.332 -45.11,-22.559 -8.555,-11.5 -19.957,-40.48 1.242,-60.5 6.332,-5.976 17.864,-9.644 28.813,-8.882 17.246,1.195 27.82,6.097 37.91,13.359 0.496,-1.09 1.078,-2.117 1.746,-3.066 4.406,-6.332 12.445,-9.504 24.07,-9.504 19.344,0 32.102,7.562 36.012,29.351 l 1.242,7.254 c 0.141,0.692 0.274,1.481 0.399,2.32 0.308,2.184 0.519,4.727 0.519,6.782 0,16.468 -10.086,23.629 -27.988,23.629 -19.129,0 -31.578,-7.465 -35.902,-29.254 10.496,6.851 20.789,13.906 34.16,13.906 7.406,0 9.672,-2.969 9.672,-8.481 0,-1.8 -0.09,-3.707 -0.598,-6.582 -0.043,-0.218 -0.086,-0.441 -0.129,-0.691 l -1.332,-7.152 c -2.367,-11.649 -5.551,-15.746 -14.609,-15.746 -6.891,0 -9.461,2.351 -9.461,8.281 -0.106,2.055 0.347,6.012 0.613,7.465 0.258,1.453 2.082,9.945 2.082,9.945 0,0 -12.473,-6.949 -22.457,-12.906" />
      </g>
    </g>
  </g>
</svg>
