<?xml version="1.0" encoding="UTF-8" standalone="no"?>
<!-- Created with Inkscape (http://www.inkscape.org/) -->

<svg
   xmlns:dc="http://purl.org/dc/elements/1.1/"
   xmlns:cc="http://creativecommons.org/ns#"
   xmlns:rdf="http://www.w3.org/1999/02/22-rdf-syntax-ns#"
   xmlns:svg="http://www.w3.org/2000/svg"
   xmlns="http://www.w3.org/2000/svg"
   xmlns:sodipodi="http://sodipodi.sourceforge.net/DTD/sodipodi-0.dtd"
   xmlns:inkscape="http://www.inkscape.org/namespaces/inkscape"
   id="svg2"
   version="1.1"
   inkscape:version="0.92.3 (2405546, 2018-03-11)"
   width="100"
   height="79"
   sodipodi:docname="snippet_banner_4x.svg"
   inkscape:export-filename="/var/lib/odoo/flamar/addons/trey-addons/website_snippets/static/src/img/snippet_banner_4x.png"
   inkscape:export-xdpi="96"
   inkscape:export-ydpi="96"
   enable-background="new">
  <metadata
     id="metadata8">
    <rdf:RDF>
      <cc:Work
         rdf:about="">
        <dc:format>image/svg+xml</dc:format>
        <dc:type
           rdf:resource="http://purl.org/dc/dcmitype/StillImage" />
        <dc:title />
      </cc:Work>
    </rdf:RDF>
  </metadata>
  <defs
     id="defs6">
    <clipPath
       clipPathUnits="userSpaceOnUse"
       id="clipPath4155">
      <rect
         y="478"
         x="-132"
         height="128"
         width="444"
         id="rect4157"
         style="opacity:0.75;fill:#ff0000;fill-opacity:1;stroke:none;stroke-width:20;stroke-linecap:butt;stroke-linejoin:miter;stroke-miterlimit:4;stroke-dasharray:none;stroke-opacity:1" />
    </clipPath>
    <clipPath
       id="clipPath4155-3"
       clipPathUnits="userSpaceOnUse">
      <rect
         style="opacity:0.75;fill:#ff0000;fill-opacity:1;stroke:none;stroke-width:20;stroke-linecap:butt;stroke-linejoin:miter;stroke-miterlimit:4;stroke-dasharray:none;stroke-opacity:1"
         id="rect4157-5"
         width="444"
         height="128"
         x="-132"
         y="478" />
    </clipPath>
    <symbol
       id="symbol5282">
      <title
         id="title5284">Keyboard Arrow Right</title>
      <path
         id="path5286"
         style="stroke:none"
         d="M17.17 32.92l9.17-9.17-9.17-9.17 2.83-2.83 12 12-12 12z" />
    </symbol>
    <symbol
       id="symbol5276">
      <title
         id="title5278">Keyboard Arrow Left</title>
      <path
         id="path5280"
         style="stroke:none"
         d="M30.83 32.67l-9.17-9.17 9.17-9.17-2.83-2.83-12 12 12 12z" />
    </symbol>
    <symbol
       id="symbol25655">
      <title
         id="title25657">Camera Alt</title>
      <path
         id="path25659"
         style="stroke:none"
         d="M18 4l-3.66 4h-6.34c-2.21 0-4 1.79-4 4v24c0 2.21 1.79 4 4 4h32c2.21 0 4-1.79 4-4v-24c0-2.21-1.79-4-4-4h-6.34l-3.66-4h-12zm6 30c-5.52 0-10-4.48-10-10s4.48-10 10-10 10 4.48 10 10-4.48 10-10 10z" />
    </symbol>
    <symbol
       id="symbol7032">
      <title
         id="title7034">Image</title>
      <path
         id="path7036"
         style="stroke:none"
         d="M42 38V10c0-2.21-1.79-4-4-4H10c-2.21 0-4 1.79-4 4v28c0 2.21 1.79 4 4 4h28c2.21 0 4-1.79 4-4zM17 27l5 6.01L29 24l9 12H10l7-9z" />
    </symbol>
    <symbol
       id="symbol7152">
      <title
         id="title7154">Panorama</title>
      <path
         id="path7156"
         style="stroke:none"
         d="M46 36V12c0-2.21-1.79-4-4-4H6c-2.21 0-4 1.79-4 4v24c0 2.21 1.79 4 4 4h36c2.21 0 4-1.79 4-4zM17 25l5 6.01L29 22l9 12H10l7-9z" />
    </symbol>
    <symbol
       viewBox="0 0 28 28"
       id="icon-list">
      <title
         id="title6784">list</title>
      <path
         id="path6786"
         d="M4 20.5v3c0 0.266-0.234 0.5-0.5 0.5h-3c-0.266 0-0.5-0.234-0.5-0.5v-3c0-0.266 0.234-0.5 0.5-0.5h3c0.266 0 0.5 0.234 0.5 0.5zM4 14.5v3c0 0.266-0.234 0.5-0.5 0.5h-3c-0.266 0-0.5-0.234-0.5-0.5v-3c0-0.266 0.234-0.5 0.5-0.5h3c0.266 0 0.5 0.234 0.5 0.5zM4 8.5v3c0 0.266-0.234 0.5-0.5 0.5h-3c-0.266 0-0.5-0.234-0.5-0.5v-3c0-0.266 0.234-0.5 0.5-0.5h3c0.266 0 0.5 0.234 0.5 0.5zM28 20.5v3c0 0.266-0.234 0.5-0.5 0.5h-21c-0.266 0-0.5-0.234-0.5-0.5v-3c0-0.266 0.234-0.5 0.5-0.5h21c0.266 0 0.5 0.234 0.5 0.5zM4 2.5v3c0 0.266-0.234 0.5-0.5 0.5h-3c-0.266 0-0.5-0.234-0.5-0.5v-3c0-0.266 0.234-0.5 0.5-0.5h3c0.266 0 0.5 0.234 0.5 0.5zM28 14.5v3c0 0.266-0.234 0.5-0.5 0.5h-21c-0.266 0-0.5-0.234-0.5-0.5v-3c0-0.266 0.234-0.5 0.5-0.5h21c0.266 0 0.5 0.234 0.5 0.5zM28 8.5v3c0 0.266-0.234 0.5-0.5 0.5h-21c-0.266 0-0.5-0.234-0.5-0.5v-3c0-0.266 0.234-0.5 0.5-0.5h21c0.266 0 0.5 0.234 0.5 0.5zM28 2.5v3c0 0.266-0.234 0.5-0.5 0.5h-21c-0.266 0-0.5-0.234-0.5-0.5v-3c0-0.266 0.234-0.5 0.5-0.5h21c0.266 0 0.5 0.234 0.5 0.5z"
         class="path1" />
    </symbol>
    <filter
       inkscape:collect="always"
       style="color-interpolation-filters:sRGB"
       id="filter16994">
      <feBlend
         inkscape:collect="always"
         mode="overlay"
         in2="BackgroundImage"
         id="feBlend16996" />
    </filter>
  </defs>
  <sodipodi:namedview
     pagecolor="#ffffff"
     bordercolor="#666666"
     borderopacity="1"
     objecttolerance="10"
     gridtolerance="10"
     guidetolerance="10"
     inkscape:pageopacity="0"
     inkscape:pageshadow="2"
     inkscape:window-width="1920"
     inkscape:window-height="1025"
     id="namedview4"
     showgrid="false"
     inkscape:zoom="3.5821436"
     inkscape:cx="41.900817"
     inkscape:cy="65.039889"
     inkscape:window-x="1366"
     inkscape:window-y="27"
     inkscape:window-maximized="1"
     inkscape:current-layer="layer1" />
  <g
     inkscape:groupmode="layer"
     id="layer1"
     inkscape:label="Layer 1"
     style="display:inline;filter:url(#filter16994)">
    <rect
       style="opacity:1;fill:#ffffff;fill-opacity:1;stroke:none;stroke-width:20;stroke-linecap:butt;stroke-linejoin:miter;stroke-miterlimit:4;stroke-dasharray:none;stroke-opacity:1"
       id="rect4187"
       width="100"
       height="79"
       x="0"
       y="0" />
    <rect
       style="opacity:1;fill:#d2d7d8;fill-opacity:1;stroke:none;stroke-width:2.5;stroke-miterlimit:4;stroke-dasharray:none;stroke-dashoffset:0;stroke-opacity:0.41749998"
       id="rect16155"
       width="22"
       height="24"
       x="6"
       y="26"
       ry="1" />
    <g
       id="use20471-5"
       style="display:inline;fill:#717576;fill-opacity:1"
       transform="matrix(0.11072834,0,0,0.11072834,9.5000003,30.5)">
      <title
         id="title39462-8">camera</title>
      <path
         id="path39464-7"
         d="m 135.46667,38.1 v 76.2 c 0,7.01146 -5.68855,12.7 -12.7,12.7 H 12.7 C 5.6885417,127 0,121.31146 0,114.3 V 38.1 C 0,31.088542 5.6885417,25.4 12.7,25.4 h 23.283333 l 3.254375,-8.704792 C 41.089792,11.7475 45.825833,8.4666667 51.1175,8.4666667 h 33.205208 c 5.291667,0 10.027709,3.2808333 11.879792,8.2285413 L 99.483333,25.4 h 23.283337 c 7.01145,0 12.7,5.688542 12.7,12.7 z M 99.483333,76.2 c 0,-17.515417 -14.234583,-31.75 -31.75,-31.75 -17.515416,0 -31.75,14.234583 -31.75,31.75 0,17.515417 14.234584,31.75 31.75,31.75 17.515417,0 31.75,-14.234583 31.75,-31.75 z m -8.466666,0 c 0,12.832292 -10.451042,23.283333 -23.283334,23.283333 C 54.901042,99.483333 44.45,89.032292 44.45,76.2 c 0,-12.832292 10.451042,-23.283333 23.283333,-23.283333 12.832292,0 23.283334,10.451041 23.283334,23.283333 z"
         inkscape:connector-curvature="0"
         style="fill:#717576;fill-opacity:1;stroke-width:0.26458332" />
    </g>
    <g
       id="use20471-5-0"
       style="display:inline;fill:#717576;fill-opacity:1"
       transform="matrix(0.11072834,0,0,0.11072834,31.499999,30.499999)">
      <title
         id="title39462-8-9">camera</title>
      <path
         id="path39464-7-6"
         d="m 135.46667,38.1 v 76.2 c 0,7.01146 -5.68855,12.7 -12.7,12.7 H 12.7 C 5.6885417,127 0,121.31146 0,114.3 V 38.1 C 0,31.088542 5.6885417,25.4 12.7,25.4 h 23.283333 l 3.254375,-8.704792 C 41.089792,11.7475 45.825833,8.4666667 51.1175,8.4666667 h 33.205208 c 5.291667,0 10.027709,3.2808333 11.879792,8.2285413 L 99.483333,25.4 h 23.283337 c 7.01145,0 12.7,5.688542 12.7,12.7 z M 99.483333,76.2 c 0,-17.515417 -14.234583,-31.75 -31.75,-31.75 -17.515416,0 -31.75,14.234583 -31.75,31.75 0,17.515417 14.234584,31.75 31.75,31.75 17.515417,0 31.75,-14.234583 31.75,-31.75 z m -8.466666,0 c 0,12.832292 -10.451042,23.283333 -23.283334,23.283333 C 54.901042,99.483333 44.45,89.032292 44.45,76.2 c 0,-12.832292 10.451042,-23.283333 23.283333,-23.283333 12.832292,0 23.283334,10.451041 23.283334,23.283333 z"
         inkscape:connector-curvature="0"
         style="fill:#717576;fill-opacity:1;stroke-width:0.26458332" />
    </g>
    <rect
       y="26"
       x="50"
       height="24"
       width="22"
       id="rect17107"
       style="opacity:1;fill:#d2d7d8;fill-opacity:1;stroke:none;stroke-width:2.5;stroke-miterlimit:4;stroke-dasharray:none;stroke-dashoffset:0;stroke-opacity:0.41749998"
       ry="1" />
    <g
       transform="matrix(0.11072834,0,0,0.11072834,53.5,30.5)"
       style="display:inline;fill:#717576;fill-opacity:1"
       id="g17113">
      <title
         id="title17109">camera</title>
      <path
         style="fill:#717576;fill-opacity:1;stroke-width:0.26458332"
         inkscape:connector-curvature="0"
         d="m 135.46667,38.1 v 76.2 c 0,7.01146 -5.68855,12.7 -12.7,12.7 H 12.7 C 5.6885417,127 0,121.31146 0,114.3 V 38.1 C 0,31.088542 5.6885417,25.4 12.7,25.4 h 23.283333 l 3.254375,-8.704792 C 41.089792,11.7475 45.825833,8.4666667 51.1175,8.4666667 h 33.205208 c 5.291667,0 10.027709,3.2808333 11.879792,8.2285413 L 99.483333,25.4 h 23.283337 c 7.01145,0 12.7,5.688542 12.7,12.7 z M 99.483333,76.2 c 0,-17.515417 -14.234583,-31.75 -31.75,-31.75 -17.515416,0 -31.75,14.234583 -31.75,31.75 0,17.515417 14.234584,31.75 31.75,31.75 17.515417,0 31.75,-14.234583 31.75,-31.75 z m -8.466666,0 c 0,12.832292 -10.451042,23.283333 -23.283334,23.283333 C 54.901042,99.483333 44.45,89.032292 44.45,76.2 c 0,-12.832292 10.451042,-23.283333 23.283333,-23.283333 12.832292,0 23.283334,10.451041 23.283334,23.283333 z"
         id="path17111" />
    </g>
    <g
       transform="matrix(0.11072834,0,0,0.11072834,75.499999,30.499999)"
       style="display:inline;fill:#717576;fill-opacity:1"
       id="g17125">
      <title
         id="title17121">camera</title>
      <path
         style="fill:#717576;fill-opacity:1;stroke-width:0.26458332"
         inkscape:connector-curvature="0"
         d="m 135.46667,38.1 v 76.2 c 0,7.01146 -5.68855,12.7 -12.7,12.7 H 12.7 C 5.6885417,127 0,121.31146 0,114.3 V 38.1 C 0,31.088542 5.6885417,25.4 12.7,25.4 h 23.283333 l 3.254375,-8.704792 C 41.089792,11.7475 45.825833,8.4666667 51.1175,8.4666667 h 33.205208 c 5.291667,0 10.027709,3.2808333 11.879792,8.2285413 L 99.483333,25.4 h 23.283337 c 7.01145,0 12.7,5.688542 12.7,12.7 z M 99.483333,76.2 c 0,-17.515417 -14.234583,-31.75 -31.75,-31.75 -17.515416,0 -31.75,14.234583 -31.75,31.75 0,17.515417 14.234584,31.75 31.75,31.75 17.515417,0 31.75,-14.234583 31.75,-31.75 z m -8.466666,0 c 0,12.832292 -10.451042,23.283333 -23.283334,23.283333 C 54.901042,99.483333 44.45,89.032292 44.45,76.2 c 0,-12.832292 10.451042,-23.283333 23.283333,-23.283333 12.832292,0 23.283334,10.451041 23.283334,23.283333 z"
         id="path17123" />
    </g>
  </g>
</svg>
