<?xml version="1.0" encoding="UTF-8" standalone="no"?>
<!-- Created with Inkscape (http://www.inkscape.org/) -->

<svg
   xmlns:dc="http://purl.org/dc/elements/1.1/"
   xmlns:cc="http://creativecommons.org/ns#"
   xmlns:rdf="http://www.w3.org/1999/02/22-rdf-syntax-ns#"
   xmlns:svg="http://www.w3.org/2000/svg"
   xmlns="http://www.w3.org/2000/svg"
   xmlns:sodipodi="http://sodipodi.sourceforge.net/DTD/sodipodi-0.dtd"
   xmlns:inkscape="http://www.inkscape.org/namespaces/inkscape"
   id="svg2"
   version="1.1"
   inkscape:version="0.91 r13725"
   width="100"
   height="79"
   sodipodi:docname="snippet_two_cols.svg"
   inkscape:export-filename="/var/lib/odoo/cej/addons/trey-addons/website_snippets/static/src/img/snippet_two_cols.png"
   inkscape:export-xdpi="90"
   inkscape:export-ydpi="90">
  <metadata
     id="metadata8">
    <rdf:RDF>
      <cc:Work
         rdf:about="">
        <dc:format>image/svg+xml</dc:format>
        <dc:type
           rdf:resource="http://purl.org/dc/dcmitype/StillImage" />
        <dc:title />
      </cc:Work>
    </rdf:RDF>
  </metadata>
  <defs
     id="defs6">
    <clipPath
       clipPathUnits="userSpaceOnUse"
       id="clipPath4155">
      <rect
         y="478"
         x="-132"
         height="128"
         width="444"
         id="rect4157"
         style="opacity:0.75;fill:#ff0000;fill-opacity:1;stroke:none;stroke-width:20;stroke-linecap:butt;stroke-linejoin:miter;stroke-miterlimit:4;stroke-dasharray:none;stroke-opacity:1" />
    </clipPath>
    <symbol
       id="symbol5282">
      <title
         id="title5284">Keyboard Arrow Right</title>
      <path
         d="M17.17 32.92l9.17-9.17-9.17-9.17 2.83-2.83 12 12-12 12z"
         style="stroke:none"
         id="path5286" />
    </symbol>
    <symbol
       id="symbol5276">
      <title
         id="title5278">Keyboard Arrow Left</title>
      <path
         d="M30.83 32.67l-9.17-9.17 9.17-9.17-2.83-2.83-12 12 12 12z"
         style="stroke:none"
         id="path5280" />
    </symbol>
    <symbol
       id="symbol25655">
      <title
         id="title25657">Camera Alt</title>
      <path
         d="M18 4l-3.66 4h-6.34c-2.21 0-4 1.79-4 4v24c0 2.21 1.79 4 4 4h32c2.21 0 4-1.79 4-4v-24c0-2.21-1.79-4-4-4h-6.34l-3.66-4h-12zm6 30c-5.52 0-10-4.48-10-10s4.48-10 10-10 10 4.48 10 10-4.48 10-10 10z"
         style="stroke:none"
         id="path25659" />
    </symbol>
    <symbol
       id="symbol7032">
      <title
         id="title7034">Image</title>
      <path
         d="M42 38V10c0-2.21-1.79-4-4-4H10c-2.21 0-4 1.79-4 4v28c0 2.21 1.79 4 4 4h28c2.21 0 4-1.79 4-4zM17 27l5 6.01L29 24l9 12H10l7-9z"
         style="stroke:none"
         id="path7036" />
    </symbol>
    <symbol
       id="symbol7152">
      <title
         id="title7154">Panorama</title>
      <path
         d="M46 36V12c0-2.21-1.79-4-4-4H6c-2.21 0-4 1.79-4 4v24c0 2.21 1.79 4 4 4h36c2.21 0 4-1.79 4-4zM17 25l5 6.01L29 22l9 12H10l7-9z"
         style="stroke:none"
         id="path7156" />
    </symbol>
    <symbol
       id="icon-list"
       viewBox="0 0 28 28">
      <title
         id="title6784">list</title>
      <path
         class="path1"
         d="M4 20.5v3c0 0.266-0.234 0.5-0.5 0.5h-3c-0.266 0-0.5-0.234-0.5-0.5v-3c0-0.266 0.234-0.5 0.5-0.5h3c0.266 0 0.5 0.234 0.5 0.5zM4 14.5v3c0 0.266-0.234 0.5-0.5 0.5h-3c-0.266 0-0.5-0.234-0.5-0.5v-3c0-0.266 0.234-0.5 0.5-0.5h3c0.266 0 0.5 0.234 0.5 0.5zM4 8.5v3c0 0.266-0.234 0.5-0.5 0.5h-3c-0.266 0-0.5-0.234-0.5-0.5v-3c0-0.266 0.234-0.5 0.5-0.5h3c0.266 0 0.5 0.234 0.5 0.5zM28 20.5v3c0 0.266-0.234 0.5-0.5 0.5h-21c-0.266 0-0.5-0.234-0.5-0.5v-3c0-0.266 0.234-0.5 0.5-0.5h21c0.266 0 0.5 0.234 0.5 0.5zM4 2.5v3c0 0.266-0.234 0.5-0.5 0.5h-3c-0.266 0-0.5-0.234-0.5-0.5v-3c0-0.266 0.234-0.5 0.5-0.5h3c0.266 0 0.5 0.234 0.5 0.5zM28 14.5v3c0 0.266-0.234 0.5-0.5 0.5h-21c-0.266 0-0.5-0.234-0.5-0.5v-3c0-0.266 0.234-0.5 0.5-0.5h21c0.266 0 0.5 0.234 0.5 0.5zM28 8.5v3c0 0.266-0.234 0.5-0.5 0.5h-21c-0.266 0-0.5-0.234-0.5-0.5v-3c0-0.266 0.234-0.5 0.5-0.5h21c0.266 0 0.5 0.234 0.5 0.5zM28 2.5v3c0 0.266-0.234 0.5-0.5 0.5h-21c-0.266 0-0.5-0.234-0.5-0.5v-3c0-0.266 0.234-0.5 0.5-0.5h21c0.266 0 0.5 0.234 0.5 0.5z"
         id="path6786" />
    </symbol>
  </defs>
  <sodipodi:namedview
     pagecolor="#ffffff"
     bordercolor="#666666"
     borderopacity="1"
     objecttolerance="10"
     gridtolerance="10"
     guidetolerance="10"
     inkscape:pageopacity="0"
     inkscape:pageshadow="2"
     inkscape:window-width="1920"
     inkscape:window-height="1056"
     id="namedview4"
     showgrid="false"
     inkscape:zoom="5.6568542"
     inkscape:cx="28.211666"
     inkscape:cy="10.417475"
     inkscape:window-x="1920"
     inkscape:window-y="24"
     inkscape:window-maximized="1"
     inkscape:current-layer="svg2"
     showguides="false" />
  <rect
     style="opacity:1;fill:#ffffff;fill-opacity:1;stroke:none;stroke-width:20;stroke-linecap:butt;stroke-linejoin:miter;stroke-miterlimit:4;stroke-dasharray:none;stroke-opacity:1"
     id="rect4187"
     width="100"
     height="79"
     x="0"
     y="0" />
  <rect
     style="opacity:1;fill:#b3b3b3;fill-opacity:1;stroke:none;stroke-width:20;stroke-miterlimit:4;stroke-dasharray:none;stroke-dashoffset:0;stroke-opacity:0.41749998"
     id="rect16140"
     width="46"
     height="40"
     x="3"
     y="19"
     rx="1"
     ry="1" />
  <rect
     ry="1"
     rx="1"
     y="19"
     x="51"
     height="40"
     width="46"
     id="rect16166"
     style="opacity:1;fill:#b3b3b3;fill-opacity:1;stroke:none;stroke-width:20;stroke-miterlimit:4;stroke-dasharray:none;stroke-dashoffset:0;stroke-opacity:0.41749998" />
</svg>
