<?xml version="1.0" encoding="UTF-8" standalone="no"?>
<!-- Created with Inkscape (http://www.inkscape.org/) -->

<svg
   xmlns:dc="http://purl.org/dc/elements/1.1/"
   xmlns:cc="http://creativecommons.org/ns#"
   xmlns:rdf="http://www.w3.org/1999/02/22-rdf-syntax-ns#"
   xmlns:svg="http://www.w3.org/2000/svg"
   xmlns="http://www.w3.org/2000/svg"
   xmlns:xlink="http://www.w3.org/1999/xlink"
   xmlns:sodipodi="http://sodipodi.sourceforge.net/DTD/sodipodi-0.dtd"
   xmlns:inkscape="http://www.inkscape.org/namespaces/inkscape"
   id="svg2"
   version="1.1"
   inkscape:version="0.92.3 (2405546, 2018-03-11)"
   width="128"
   height="128"
   sodipodi:docname="icon.svg"
   inkscape:export-filename="/var/lib/odoo/lolitasyl/addons/trey-addons/delivery_carrier_tracking_fedex/static/description/icon.png"
   inkscape:export-xdpi="96"
   inkscape:export-ydpi="96">
  <metadata
     id="metadata8">
    <rdf:RDF>
      <cc:Work
         rdf:about="">
        <dc:format>image/svg+xml</dc:format>
        <dc:type
           rdf:resource="http://purl.org/dc/dcmitype/StillImage" />
        <dc:title />
      </cc:Work>
    </rdf:RDF>
  </metadata>
  <defs
     id="defs6">
    <symbol
       id="symbol5748">
      <title
         id="title5750">Grade</title>
      <path
         d="M24 34.54l12.36 7.46-3.27-14.06 10.91-9.45-14.38-1.24-5.62-13.25-5.62 13.25-14.38 1.24 10.91 9.45-3.27 14.06z"
         style="stroke:none"
         id="path5752" />
    </symbol>
    <symbol
       id="symbol4786">
      <title
         id="title4788">Person</title>
      <path
         d="M24 24c4.42 0 8-3.59 8-8 0-4.42-3.58-8-8-8s-8 3.58-8 8c0 4.41 3.58 8 8 8zm0 4c-5.33 0-16 2.67-16 8v4h32v-4c0-5.33-10.67-8-16-8z"
         style="stroke:none"
         id="path4790" />
    </symbol>
    <symbol
       id="symbol5791">
      <title
         id="title5793">Https</title>
      <path
         d="M36 16h-2v-4c0-5.52-4.48-10-10-10s-10 4.48-10 10v4h-2c-2.21 0-4 1.79-4 4v20c0 2.21 1.79 4 4 4h24c2.21 0 4-1.79 4-4v-20c0-2.21-1.79-4-4-4zm-12 18c-2.21 0-4-1.79-4-4s1.79-4 4-4 4 1.79 4 4-1.79 4-4 4zm6.2-18h-12.4v-4c0-3.42 2.78-6.2 6.2-6.2 3.42 0 6.2 2.78 6.2 6.2v4z"
         style="stroke:none"
         id="path5795" />
    </symbol>
    <symbol
       id="symbol5857">
      <title
         id="title5859">Lock Open</title>
      <path
         d="M24 34c2.21 0 4-1.79 4-4s-1.79-4-4-4-4 1.79-4 4 1.79 4 4 4zm12-18h-2v-4c0-5.52-4.48-10-10-10s-10 4.48-10 10h3.8c0-3.42 2.78-6.2 6.2-6.2 3.42 0 6.2 2.78 6.2 6.2v4h-18.2c-2.21 0-4 1.79-4 4v20c0 2.21 1.79 4 4 4h24c2.21 0 4-1.79 4-4v-20c0-2.21-1.79-4-4-4zm0 24h-24v-20h24v20z"
         style="stroke:none"
         id="path5861" />
    </symbol>
    <symbol
       id="symbol10530">
      <title
         id="title10532">Local Grocery Store</title>
      <path
         d="M14 36c-2.21 0-3.98 1.79-3.98 4s1.77 4 3.98 4 4-1.79 4-4-1.79-4-4-4zM2 4v4h4l7.19 15.17-2.7 4.9c-.31.58-.49 1.23-.49 1.93 0 2.21 1.79 4 4 4h24v-4H14.85c-.28 0-.5-.22-.5-.5 0-.09.02-.17.06-.24L16.2 26h14.9c1.5 0 2.81-.83 3.5-2.06l7.15-12.98c.16-.28.25-.61.25-.96 0-1.11-.9-2-2-2H10.43l-1.9-4H2zm32 32c-2.21 0-3.98 1.79-3.98 4s1.77 4 3.98 4 4-1.79 4-4-1.79-4-4-4z"
         style="stroke:none"
         id="path10534" />
    </symbol>
    <symbol
       id="symbol5119">
      <title
         id="title5121">Mail</title>
      <path
         d="M40 8h-32c-2.21 0-3.98 1.79-3.98 4l-.02 24c0 2.21 1.79 4 4 4h32c2.21 0 4-1.79 4-4v-24c0-2.21-1.79-4-4-4zm0 8l-16 10-16-10v-4l16 10 16-10v4z"
         style="stroke:none"
         id="path5123" />
    </symbol>
    <symbol
       id="symbol7506">
      <title
         id="title7508">Check</title>
      <path
         d="M18 32.34L9.66 24l-2.83 2.83L18 38l24-24-2.83-2.83z"
         style="stroke:none"
         id="path7510" />
    </symbol>
    <clipPath
       clipPathUnits="userSpaceOnUse"
       id="clipPath13866">
      <rect
         style="opacity:1;fill:#d50000;fill-opacity:1;stroke:none;stroke-width:4;stroke-linecap:butt;stroke-linejoin:miter;stroke-miterlimit:4;stroke-dasharray:none;stroke-dashoffset:0;stroke-opacity:1"
         id="rect13868"
         width="33.185184"
         height="17.777779"
         x="7.4074073"
         y="-0.53565156" />
    </clipPath>
    <symbol
       id="symbol6463">
      <title
         id="title6465">Public</title>
      <path
         d="M24 4C12.95 4 4 12.95 4 24s8.95 20 20 20 20-8.95 20-20S35.05 4 24 4zm-2 35.86C14.11 38.88 8 32.16 8 24c0-1.23.15-2.43.42-3.58L18 30v2c0 2.21 1.79 4 4 4v3.86zm13.79-5.07C35.28 33.17 33.78 32 32 32h-2v-6c0-1.1-.9-2-2-2H16v-4h4c1.1 0 2-.9 2-2v-4h4c2.21 0 4-1.79 4-4v-.83c5.86 2.37 10 8.11 10 14.83 0 4.16-1.6 7.94-4.21 10.79z"
         style="stroke:none"
         id="path6467" />
    </symbol>
    <symbol
       id="icon-desktop"
       viewBox="0 0 30 28">
      <title
         id="title7684">desktop</title>
      <path
         class="path1"
         d="M28 15.5v-13c0-0.266-0.234-0.5-0.5-0.5h-25c-0.266 0-0.5 0.234-0.5 0.5v13c0 0.266 0.234 0.5 0.5 0.5h25c0.266 0 0.5-0.234 0.5-0.5zM30 2.5v17c0 1.375-1.125 2.5-2.5 2.5h-8.5c0 1.328 1 2.453 1 3s-0.453 1-1 1h-8c-0.547 0-1-0.453-1-1 0-0.578 1-1.641 1-3h-8.5c-1.375 0-2.5-1.125-2.5-2.5v-17c0-1.375 1.125-2.5 2.5-2.5h25c1.375 0 2.5 1.125 2.5 2.5z"
         id="path7686" />
    </symbol>
    <symbol
       id="icon-window-maximize"
       viewBox="0 0 28 28">
      <title
         id="title9794">window-maximize</title>
      <path
         class="path1"
         d="M4 22h20v-12h-20v12zM28 4.5v19c0 1.375-1.125 2.5-2.5 2.5h-23c-1.375 0-2.5-1.125-2.5-2.5v-19c0-1.375 1.125-2.5 2.5-2.5h23c1.375 0 2.5 1.125 2.5 2.5z"
         id="path9796" />
    </symbol>
    <inkscape:perspective
       id="perspective10" />
    <inkscape:perspective
       id="perspective2400" />
  </defs>
  <sodipodi:namedview
     pagecolor="#ffffff"
     bordercolor="#666666"
     borderopacity="1"
     objecttolerance="10"
     gridtolerance="10"
     guidetolerance="10"
     inkscape:pageopacity="0"
     inkscape:pageshadow="2"
     inkscape:window-width="1920"
     inkscape:window-height="1025"
     id="namedview4"
     showgrid="false"
     inkscape:zoom="4"
     inkscape:cx="36.388765"
     inkscape:cy="29.42943"
     inkscape:window-x="1920"
     inkscape:window-y="27"
     inkscape:window-maximized="1"
     inkscape:current-layer="layer1"
     showguides="true"
     inkscape:guide-bbox="true">
    <sodipodi:guide
       position="64,100.23239"
       orientation="1,0"
       id="guide5698"
       inkscape:label=""
       inkscape:color="rgb(0,0,255)"
       inkscape:locked="false" />
    <sodipodi:guide
       position="88.741901,64"
       orientation="0,1"
       id="guide5700"
       inkscape:label=""
       inkscape:color="rgb(0,0,255)"
       inkscape:locked="false" />
  </sodipodi:namedview>
  <g
     inkscape:groupmode="layer"
     id="layer1"
     inkscape:label="Layer 1">
    <use
       id="use14733"
       style="fill:#174267;fill-opacity:1;stroke:none"
       xlink:href="#symbol5448"
       x="0"
       y="0"
       width="100%"
       height="100%"
       transform="matrix(1.75,0,0,1.75,22,23.5)" />
    <use
       id="use14733-3"
       style="fill:#174267;fill-opacity:1;stroke:none"
       xlink:href="#symbol5448"
       x="0"
       y="0"
       width="100%"
       height="100%"
       transform="matrix(1.75,0,0,1.75,22,23.5)" />
    <use
       id="use14733-6"
       style="fill:#174267;fill-opacity:1;stroke:none"
       xlink:href="#symbol5448"
       x="0"
       y="0"
       width="100%"
       height="100%"
       transform="matrix(1.75,0,0,1.75,22,23.5)" />
    <g
       id="g6"
       transform="matrix(1.3990529,0,0,1.3990529,12.000002,40.268565)">
		
		<polygon
   style="fill:#ff5900"
   id="polygon10"
   points="65.63,21.283 62.68,17.975 59.757,21.283 53.607,21.283 59.619,14.528 53.607,7.772 59.95,7.772 62.928,11.054 65.795,7.772 71.917,7.772 65.934,14.5 71.999,21.283 " />

		<polygon
   style="fill:#ff5900"
   id="polygon12"
   points="41.794,21.283 41.794,0 53.607,0 53.607,4.744 46.798,4.744 46.798,7.772 53.607,7.772 53.607,12.337 46.798,12.337 46.798,16.526 53.607,16.526 53.607,21.283 " />

		<path
   style="fill:#2a007c"
   inkscape:connector-curvature="0"
   id="path14"
   d="M 36.811,0 V 8.71 H 36.756 C 35.652,7.442 34.274,7.001 32.675,7.001 c -3.276,0 -5.744,2.228 -6.61,5.172 C 25.076,8.929 22.528,6.94 18.75,6.94 c -3.068,0 -5.491,1.377 -6.755,3.621 V 7.772 H 5.653 V 4.744 h 6.921 V 0 H 0 v 21.283 h 5.653 v -8.946 h 5.635 c -0.168,0.657 -0.258,1.361 -0.258,2.104 0,4.439 3.392,7.555 7.72,7.555 3.64,0 6.039,-1.709 7.307,-4.824 h -4.845 c -0.655,0.937 -1.152,1.214 -2.462,1.214 -1.519,0 -2.829,-1.325 -2.829,-2.896 h 9.865 c 0.428,3.526 3.175,6.567 6.944,6.567 1.626,0 3.115,-0.8 4.025,-2.15 h 0.055 v 1.378 h 4.983 V 0 Z M 16.079,12.4 c 0.314,-1.352 1.363,-2.235 2.672,-2.235 1.441,0 2.436,0.856 2.698,2.235 0.11,0 -5.37,0 -5.37,0 z m 17.707,5.643 c -1.837,0 -2.979,-1.712 -2.979,-3.499 0,-1.91 0.993,-3.747 2.979,-3.747 2.059,0 2.879,1.837 2.879,3.747 0,1.811 -0.869,3.499 -2.879,3.499 z" />

		<path
   style="fill:#2a007c"
   inkscape:connector-curvature="0"
   id="path16"
   d="m 41.795,31.925 v -7.627 h 4.214 v 0.569 H 42.49 v 2.812 h 3.37 v 0.569 h -3.37 v 3.106 h 3.676 v 0.57 h -4.371 z" />

		<path
   style="fill:#2a007c"
   inkscape:connector-curvature="0"
   id="path18"
   d="m 46.669,31.925 2.055,-2.739 -1.949,-2.591 h 0.79 l 1.591,2.117 1.559,-2.117 h 0.79 l -1.98,2.591 2.064,2.739 h -0.8 l -1.707,-2.266 -1.622,2.266 z" />

		<path
   style="fill:#2a007c"
   inkscape:connector-curvature="0"
   id="path20"
   d="m 52.926,33.925 h -0.643 v -5.739 c 0,-0.527 0,-1.063 -0.032,-1.591 h 0.633 l 0.021,0.801 c 0.399,-0.633 0.926,-0.927 1.717,-0.927 1.643,0 2.348,1.358 2.348,2.79 0,1.434 -0.705,2.792 -2.348,2.792 -0.738,0 -1.317,-0.284 -1.696,-0.896 z m 3.36,-4.666 c 0,-1.137 -0.475,-2.254 -1.738,-2.254 -1.19,0 -1.622,0.98 -1.622,2.254 0,1.275 0.432,2.254 1.622,2.254 1.264,0 1.738,-1.116 1.738,-2.254 z" />

		<path
   style="fill:#2a007c"
   inkscape:connector-curvature="0"
   id="path22"
   d="m 60.274,27.089 c -1.064,0 -1.434,0.896 -1.434,1.822 v 3.014 h -0.643 v -3.762 c 0,-0.516 -0.01,-1.041 -0.031,-1.568 H 58.8 l 0.041,0.769 c 0.316,-0.61 0.844,-0.895 1.549,-0.895 0.095,0 0.2,0.01 0.295,0.021 v 0.643 C 60.537,27.11 60.421,27.089 60.274,27.089 Z" />

		<path
   style="fill:#2a007c"
   inkscape:connector-curvature="0"
   id="path24"
   d="m 61.472,29.375 c 0,1.2 0.568,2.19 1.737,2.19 0.905,0 1.327,-0.6 1.485,-1.2 h 0.611 c -0.285,1.116 -0.97,1.686 -2.181,1.686 -1.622,0 -2.339,-1.201 -2.339,-2.696 0,-1.527 0.748,-2.886 2.423,-2.886 1.696,0 2.149,1.484 2.149,2.906 z m 0.02,-0.484 h 3.181 c 0,-1.043 -0.494,-1.938 -1.506,-1.938 -0.916,-10e-4 -1.549,0.694 -1.675,1.938 z" />

		<path
   style="fill:#2a007c"
   inkscape:connector-curvature="0"
   id="path26"
   d="m 67.866,32.051 c -1.095,0 -1.916,-0.517 -1.916,-1.686 h 0.643 c 0,0.8 0.526,1.2 1.306,1.2 0.727,0 1.295,-0.348 1.295,-1.062 0,-0.643 -0.663,-0.812 -1.358,-1.012 -0.842,-0.242 -1.759,-0.506 -1.759,-1.538 0,-1.147 0.958,-1.484 1.854,-1.484 1.031,0 1.801,0.399 1.832,1.505 H 69.12 c -0.031,-0.631 -0.484,-0.989 -1.169,-0.989 -0.537,0 -1.19,0.21 -1.19,0.905 0,0.633 0.653,0.812 1.348,1.001 0.844,0.231 1.77,0.484 1.77,1.517 -0.001,1.2 -0.927,1.643 -2.013,1.643 z" />

		<path
   style="fill:#2a007c"
   inkscape:connector-curvature="0"
   id="path28"
   d="m 72.322,32.051 c -1.096,0 -1.917,-0.517 -1.917,-1.686 h 0.643 c 0,0.8 0.526,1.2 1.307,1.2 0.727,0 1.295,-0.348 1.295,-1.062 0,-0.643 -0.664,-0.812 -1.359,-1.012 -0.842,-0.242 -1.758,-0.506 -1.758,-1.538 0,-1.147 0.958,-1.484 1.854,-1.484 1.031,0 1.801,0.399 1.832,1.505 h -0.643 c -0.031,-0.631 -0.484,-0.989 -1.169,-0.989 -0.537,0 -1.19,0.21 -1.19,0.905 0,0.633 0.653,0.812 1.349,1.001 0.843,0.231 1.77,0.484 1.77,1.517 -0.002,1.2 -0.929,1.643 -2.014,1.643 z" />

	</g>
  </g>
</svg>
