<?xml version="1.0" encoding="UTF-8" standalone="no"?>
<svg
   xmlns:dc="http://purl.org/dc/elements/1.1/"
   xmlns:cc="http://creativecommons.org/ns#"
   xmlns:rdf="http://www.w3.org/1999/02/22-rdf-syntax-ns#"
   xmlns:svg="http://www.w3.org/2000/svg"
   xmlns="http://www.w3.org/2000/svg"
   xmlns:xlink="http://www.w3.org/1999/xlink"
   xmlns:sodipodi="http://sodipodi.sourceforge.net/DTD/sodipodi-0.dtd"
   xmlns:inkscape="http://www.inkscape.org/namespaces/inkscape"
   version="1.1"
   viewBox="0.10127379 0.69075263 128 128"
   id="svg2"
   inkscape:version="0.48.4 r9939"
   width="100%"
   height="100%"
   sodipodi:docname="icon.svg">
  <metadata
     id="metadata121">
    <rdf:RDF>
      <cc:Work
         rdf:about="">
        <dc:format>image/svg+xml</dc:format>
        <dc:type
           rdf:resource="http://purl.org/dc/dcmitype/StillImage" />
      </cc:Work>
    </rdf:RDF>
  </metadata>
  <sodipodi:namedview
     pagecolor="#ffffff"
     bordercolor="#666666"
     borderopacity="1"
     objecttolerance="10"
     gridtolerance="10"
     guidetolerance="10"
     inkscape:pageopacity="0"
     inkscape:pageshadow="2"
     inkscape:window-width="1920"
     inkscape:window-height="1059"
     id="namedview119"
     showgrid="false"
     inkscape:zoom="2.7881959"
     inkscape:cx="35.811046"
     inkscape:cy="42.321273"
     inkscape:window-x="1366"
     inkscape:window-y="21"
     inkscape:window-maximized="1"
     inkscape:current-layer="svg2" />
  <defs
     id="defs4">
    <linearGradient
       id="def0"
       x1="0.22442091"
       x2="77.97007"
       y1="39.511223"
       y2="39.511223"
       gradientTransform="scale(0.91853211,1.0886936)"
       gradientUnits="userSpaceOnUse">
      <stop
         offset="0"
         stop-color="#7C7A79"
         id="stop7" />
      <stop
         offset="0.00605774"
         stop-color="#7C7A79"
         id="stop9" />
      <stop
         offset="0.165357"
         stop-color="#A8A7A7"
         id="stop11" />
      <stop
         offset="0.503036"
         stop-color="#D5D5D5"
         id="stop13" />
      <stop
         offset="0.810893"
         stop-color="#A2A2A0"
         id="stop15" />
      <stop
         offset="1"
         stop-color="#706F6C"
         id="stop17" />
    </linearGradient>
    <radialGradient
       cx="39.172848"
       cy="39.687962"
       id="def1"
       r="34.29129"
       gradientTransform="scale(0.91849804,1.088734)"
       fx="39.172848"
       fy="39.687962"
       gradientUnits="userSpaceOnUse">
      <stop
         offset="0"
         stop-color="#FFFFFF"
         id="stop20" />
      <stop
         offset="0.87"
         stop-color="#FFFFFF"
         id="stop22" />
      <stop
         offset="1"
         stop-color="#FFFFFF"
         id="stop24" />
    </radialGradient>
    <linearGradient
       id="def2"
       x1="39.172848"
       x2="39.172848"
       y1="76.754112"
       y2="2.6215489"
       gradientTransform="scale(0.91849804,1.088734)"
       gradientUnits="userSpaceOnUse">
      <stop
         offset="0"
         stop-color="#939393"
         id="stop27" />
      <stop
         offset="0.51"
         stop-color="#C7C7C7"
         id="stop29" />
      <stop
         offset="1"
         stop-color="#FCFCFC"
         id="stop31" />
    </linearGradient>
    <linearGradient
       id="def3"
       x1="38.638618"
       x2="38.638618"
       y1="7.2625971"
       y2="72.998253"
       gradientTransform="scale(0.92698546,1.0787656)"
       gradientUnits="userSpaceOnUse">
      <stop
         offset="0"
         stop-color="#FFFFFF"
         style="stop-opacity:0.501960784313725"
         id="stop34" />
      <stop
         offset="0.544578"
         stop-color="#7F7F7F"
         style="stop-opacity:0.501960784313725"
         id="stop36" />
      <stop
         offset="0.703033"
         stop-color="#000000"
         style="stop-opacity:0.501960784313725"
         id="stop38" />
      <stop
         offset="1"
         stop-color="#000000"
         style="stop-opacity:0.501960784313725"
         id="stop40" />
    </linearGradient>
    <linearGradient
       id="def4"
       x1="38.511959"
       x2="38.511959"
       y1="72.996902"
       y2="7.2631297"
       gradientTransform="scale(0.9269758,1.0787768)"
       gradientUnits="userSpaceOnUse">
      <stop
         offset="0"
         stop-color="#FFFFFF"
         style="stop-opacity:0.501960784313725"
         id="stop43" />
      <stop
         offset="0.544578"
         stop-color="#7F7F7F"
         style="stop-opacity:0.501960784313725"
         id="stop45" />
      <stop
         offset="0.703033"
         stop-color="#000000"
         style="stop-opacity:0.501960784313725"
         id="stop47" />
      <stop
         offset="1"
         stop-color="#000000"
         style="stop-opacity:0.501960784313725"
         id="stop49" />
    </linearGradient>
    <linearGradient
       id="def5"
       x1="6.830214"
       x2="70.747787"
       y1="40.147495"
       y2="40.147495"
       gradientTransform="scale(0.9214972,1.0851905)"
       gradientUnits="userSpaceOnUse">
      <stop
         offset="0"
         stop-color="#FFFFFF"
         style="stop-opacity:0.301960784313725"
         id="stop52" />
      <stop
         offset="0.170629"
         stop-color="#7F7F7F"
         style="stop-opacity:0.301960784313725"
         id="stop54" />
      <stop
         offset="0.5"
         stop-color="#000000"
         style="stop-opacity:0.301960784313725"
         id="stop56" />
      <stop
         offset="0.833322"
         stop-color="#7F7F7F"
         style="stop-opacity:0.301960784313725"
         id="stop58" />
      <stop
         offset="1"
         stop-color="#FFFFFF"
         style="stop-opacity:0.301960784313725"
         id="stop60" />
    </linearGradient>
    <linearGradient
       gradientTransform="scale(0.9519057,1.0505242)"
       id="def6"
       x1="38.514881"
       x2="88.597244"
       y1="93.819809"
       y2="93.819809"
       gradientUnits="userSpaceOnUse">
      <stop
         offset="0"
         stop-color="#FFFFFF"
         id="stop63" />
      <stop
         offset="0.283897"
         stop-color="#FFFFFF"
         style="stop-opacity:0.552941176470588"
         id="stop65" />
      <stop
         offset="1"
         stop-color="#FFFFFF"
         style="stop-opacity:0.101960784313725"
         id="stop67" />
    </linearGradient>
    <linearGradient
       gradientTransform="scale(1.3250263,0.75470202)"
       id="def7"
       x1="27.062937"
       x2="94.181129"
       y1="-2.8199768"
       y2="-2.8199768"
       gradientUnits="userSpaceOnUse">
      <stop
         offset="0"
         stop-color="#FFFFFF"
         style="stop-opacity:0.501960784313725"
         id="stop70" />
      <stop
         offset="0.185923"
         stop-color="#FFFFFF"
         style="stop-opacity:0.27843137254902"
         id="stop72" />
      <stop
         offset="1"
         stop-color="#FFFFFF"
         style="stop-opacity:0.0549019607843137"
         id="stop74" />
    </linearGradient>
    <linearGradient
       gradientTransform="scale(1.3268602,0.75365889)"
       id="def8"
       x1="26.873428"
       x2="81.414299"
       y1="9.5687723"
       y2="9.5687723"
       gradientUnits="userSpaceOnUse">
      <stop
         offset="0"
         stop-color="#FFFFFF"
         style="stop-opacity:0.101960784313725"
         id="stop77" />
      <stop
         offset="0.185923"
         stop-color="#FFFFFF"
         style="stop-opacity:0.101960784313725"
         id="stop79" />
      <stop
         offset="1"
         stop-color="#FFFFFF"
         style="stop-opacity:0.101960784313725"
         id="stop81" />
    </linearGradient>
    <linearGradient
       inkscape:collect="always"
       xlink:href="#def8"
       id="linearGradient3099"
       gradientUnits="userSpaceOnUse"
       gradientTransform="scale(1.3268602,0.75365889)"
       x1="26.873428"
       y1="9.5687723"
       x2="81.414299"
       y2="9.5687723" />
    <linearGradient
       inkscape:collect="always"
       xlink:href="#def7"
       id="linearGradient3102"
       gradientUnits="userSpaceOnUse"
       gradientTransform="scale(1.3250263,0.75470202)"
       x1="27.062937"
       y1="-2.8199768"
       x2="94.181129"
       y2="-2.8199768" />
    <linearGradient
       inkscape:collect="always"
       xlink:href="#def6"
       id="linearGradient3105"
       gradientUnits="userSpaceOnUse"
       gradientTransform="scale(0.9519057,1.0505242)"
       x1="38.514881"
       y1="93.819809"
       x2="88.597244"
       y2="93.819809" />
    <linearGradient
       inkscape:collect="always"
       xlink:href="#def5"
       id="linearGradient3108"
       gradientUnits="userSpaceOnUse"
       gradientTransform="scale(0.9214972,1.0851905)"
       x1="6.830214"
       y1="40.147495"
       x2="70.747787"
       y2="40.147495" />
    <linearGradient
       inkscape:collect="always"
       xlink:href="#def4"
       id="linearGradient3119"
       gradientUnits="userSpaceOnUse"
       gradientTransform="scale(0.9269758,1.0787768)"
       x1="38.511959"
       y1="72.996902"
       x2="38.511959"
       y2="7.2631297" />
    <linearGradient
       inkscape:collect="always"
       xlink:href="#def3"
       id="linearGradient3122"
       gradientUnits="userSpaceOnUse"
       gradientTransform="scale(0.92698546,1.0787656)"
       x1="38.638618"
       y1="7.2625971"
       x2="38.638618"
       y2="72.998253" />
    <linearGradient
       inkscape:collect="always"
       xlink:href="#def2"
       id="linearGradient3125"
       gradientUnits="userSpaceOnUse"
       gradientTransform="scale(0.91849804,1.088734)"
       x1="39.172848"
       y1="76.754112"
       x2="39.172848"
       y2="2.6215489" />
    <radialGradient
       inkscape:collect="always"
       xlink:href="#def1"
       id="radialGradient3128"
       gradientUnits="userSpaceOnUse"
       gradientTransform="scale(0.91849804,1.088734)"
       cx="39.172848"
       cy="39.687962"
       fx="39.172848"
       fy="39.687962"
       r="34.29129" />
    <linearGradient
       inkscape:collect="always"
       xlink:href="#def0"
       id="linearGradient3131"
       gradientUnits="userSpaceOnUse"
       gradientTransform="scale(0.91853211,1.0886936)"
       x1="0.22442091"
       y1="39.511223"
       x2="77.97007"
       y2="39.511223" />
    <linearGradient
       inkscape:collect="always"
       xlink:href="#def0"
       id="linearGradient3152"
       gradientUnits="userSpaceOnUse"
       gradientTransform="scale(0.91853211,1.0886936)"
       x1="0.22442091"
       y1="39.511223"
       x2="77.97007"
       y2="39.511223" />
    <radialGradient
       inkscape:collect="always"
       xlink:href="#def1"
       id="radialGradient3154"
       gradientUnits="userSpaceOnUse"
       gradientTransform="scale(0.91849804,1.088734)"
       cx="39.172848"
       cy="39.687962"
       fx="39.172848"
       fy="39.687962"
       r="34.29129" />
    <linearGradient
       inkscape:collect="always"
       xlink:href="#def2"
       id="linearGradient3156"
       gradientUnits="userSpaceOnUse"
       gradientTransform="scale(0.91849804,1.088734)"
       x1="39.172848"
       y1="76.754112"
       x2="39.172848"
       y2="2.6215489" />
    <linearGradient
       inkscape:collect="always"
       xlink:href="#def3"
       id="linearGradient3158"
       gradientUnits="userSpaceOnUse"
       gradientTransform="scale(0.92698546,1.0787656)"
       x1="38.638618"
       y1="7.2625971"
       x2="38.638618"
       y2="72.998253" />
    <linearGradient
       inkscape:collect="always"
       xlink:href="#def4"
       id="linearGradient3160"
       gradientUnits="userSpaceOnUse"
       gradientTransform="scale(0.9269758,1.0787768)"
       x1="38.511959"
       y1="72.996902"
       x2="38.511959"
       y2="7.2631297" />
    <linearGradient
       inkscape:collect="always"
       xlink:href="#def6"
       id="linearGradient3162"
       gradientUnits="userSpaceOnUse"
       gradientTransform="scale(0.9519057,1.0505242)"
       x1="38.514881"
       y1="93.819809"
       x2="88.597244"
       y2="93.819809" />
    <linearGradient
       inkscape:collect="always"
       xlink:href="#def5"
       id="linearGradient3164"
       gradientUnits="userSpaceOnUse"
       gradientTransform="scale(0.9214972,1.0851905)"
       x1="6.830214"
       y1="40.147495"
       x2="70.747787"
       y2="40.147495" />
    <linearGradient
       inkscape:collect="always"
       xlink:href="#def7"
       id="linearGradient3166"
       gradientUnits="userSpaceOnUse"
       gradientTransform="scale(1.3250263,0.75470202)"
       x1="27.062937"
       y1="-2.8199768"
       x2="94.181129"
       y2="-2.8199768" />
    <linearGradient
       inkscape:collect="always"
       xlink:href="#def8"
       id="linearGradient3168"
       gradientUnits="userSpaceOnUse"
       gradientTransform="scale(1.3268602,0.75365889)"
       x1="26.873428"
       y1="9.5687723"
       x2="81.414299"
       y2="9.5687723" />
  </defs>
  <g
     id="g3133"
     transform="matrix(1.2245763,0,0,1.2245763,20.1239,12.019245)">
    <path
       d="M 35.3413,0.692001 C 32.132,3.808 26.3107,6.87067 19.3293,8.784 l 0,0 C 11.532,10.9227 4.32266,11.0733 0.205331,9.51601 l 0,19.52529 0.010667,0 c -0.001334,0.1014 -0.010667,0.1987 -0.010667,0.3 l 0,0 c 0,12.9307 9.615999,37.572 23.125369,47.9934 l -0.064,0 0.312,0.1986 c 1.2133,0.9174 2.4586,1.7094 3.7306,2.3774 l 8.512,5.4226 0.02,0 8.0027,-5.092 c 15.9027,-7.7026 27.7733,-36.528 27.7733,-50.9 l 0,0 c 0,-0.1013 -0.0066,-0.1986 -0.008,-0.3 l 0.008,0 0,-19.85063 C 67.668,11.0773 60.0573,11.0587 51.764,8.784 l 0,0 C 44.7853,6.87067 38.9667,3.808 35.76,0.692001 l -0.4187,0 z"
       id="path85"
       style="fill:url(#linearGradient3152)"
       inkscape:connector-curvature="0" />
    <path
       d="M 35.436,2.85333 C 32.3773,5.82401 26.8267,8.744 20.1693,10.572 l 0,0 C 12.7307,12.6147 5.85866,12.7627 1.93466,11.2747 l 0,18.6146 0.00934,0 c -0.00134,0.096 -0.00934,0.188 -0.00934,0.2854 l 0,0 c 0,12.3306 9.16804,35.8266 22.05204,45.76 l -0.0667,0 0.3213,0.204 c 1.1414,0.8626 2.3147,1.6053 3.5094,2.236 l 8.1506,5.1893 7.6814,-4.884 C 58.7213,71.3067 70.0253,43.8653 70.0253,30.1747 l 0,0 c 0,-0.0974 -0.0066,-0.1894 -0.008,-0.2854 l 0.008,0 0,-18.9253 c -3.7653,1.8 -11.0213,1.78 -18.9346,-0.392 l 0,0 C 44.4307,8.744 38.8813,5.82401 35.824,2.85333 l -0.388,0 z"
       id="path87"
       style="fill:url(#radialGradient3154)"
       inkscape:connector-curvature="0" />
    <path
       d="M 35.436,2.85333 C 32.3773,5.82401 26.8267,8.744 20.1693,10.572 l 0,0 C 12.7307,12.6147 5.85866,12.7627 1.93466,11.2747 l 0,18.6146 0.00934,0 c -0.00134,0.096 -0.00934,0.188 -0.00934,0.2854 l 0,0 c 0,12.3306 9.16804,35.8266 22.05204,45.76 l -0.0667,0 0.3213,0.204 c 1.1414,0.8626 2.3147,1.6053 3.5094,2.236 l 8.1506,5.1893 7.6734,-4.8773 c 15.148,-7.3694 26.4506,-34.82 26.4506,-48.512 l 0,0 c 0,-0.0974 -0.0066,-0.1894 -0.008,-0.2854 l 0.008,0 0,-18.9253 c -3.7653,1.8 -11.0213,1.78 -18.9346,-0.392 l 0,0 C 44.4307,8.744 38.8813,5.82401 35.824,2.85333 l -0.388,0 z"
       id="path89"
       style="fill:url(#linearGradient3156)"
       inkscape:connector-curvature="0" />
    <path
       d="M 66.2853,14.9587 C 62.9147,16.5373 56.42,16.52 49.344,14.6173 43.3867,13.0093 38.4187,10.444 35.6827,7.83467 l -0.3494,0 C 32.5973,10.444 27.628,13.0093 21.668,14.6173 15.0107,16.4067 8.86133,16.5347 5.34933,15.2293 l 0,16.356 0.008,0 c -0.00133,0.084 -0.008,0.1654 -0.008,0.2507 0,10.836 8.21197,31.4853 19.74667,40.208 l -0.0667,0 0.336,0.2093 c 0.992,0.732 2.0107,1.3667 3.048,1.9067 l 7.3374,4.588 6.916,-4.3173 C 56.1973,67.9227 66.2853,43.852 66.2853,31.836 c 0,-0.0853 -0.0066,-0.1667 -0.008,-0.2507 l 0.008,0 0,-16.6266 z"
       id="path91"
       style="fill:url(#linearGradient3158)"
       inkscape:connector-curvature="0" />
    <path
       d="M 66.1667,14.96 C 62.7933,16.5373 56.308,16.5187 49.236,14.6173 43.268,13.0093 38.2987,10.444 35.5627,7.83467 l -0.3467,0 C 32.4773,10.444 27.508,13.0093 21.5493,14.6173 14.8947,16.4067 8.74533,16.5347 5.232,15.2293 l 0,16.356 0.008,0 c -0.00133,0.084 -0.008,0.1654 -0.008,0.2507 0,10.836 8.2093,31.4853 19.744,40.208 l -0.0667,0 0.332,0.2067 c 0.992,0.732 2.0107,1.368 3.048,1.9066 l 7.3387,4.5907 6.92,-4.3187 C 56.076,67.92 66.1667,43.8507 66.1667,31.836 c 0,-0.0853 -0.0067,-0.1667 -0.008,-0.2507 l 0.008,0 0,-16.6253 z"
       id="path93"
       style="fill:url(#linearGradient3160)"
       inkscape:connector-curvature="0" />
    <path
       d="M 48.6521,16.0547 C 43.0548,14.5627 38.3801,12.192 35.7428,9.76667 l 0,22.29863 29.0747,0 0,-15.6946 c -3.216,1.4946 -9.4134,1.4813 -16.1654,-0.316 z"
       id="path95"
       inkscape:connector-curvature="0"
       style="fill:#ffed0d" />
    <path
       d="m 7.232,32.9507 c 0,5.792 1.276,11.54 3.3653,16.924 l 0,0 c 2.1054,5.428 5.0387,10.5373 8.604,15.136 l 0,0 c 0.7107,0.9146 1.4027,1.8493 2.208,2.684 l 0,0 c 3.6214,3.7413 7.6254,5.8986 8.096,6.2026 l 0,0 c 0.8254,0.532 4.7174,2.9467 5.9627,3.8227 l 0,0 c 0.1787,0.1253 1.516,-0.768 1.6787,-0.856 l 0,0 c 1.6733,-0.9227 3.1426,-2.0347 4.788,-3 l 0,0 c 0.444,-0.2613 0.928,-0.476 1.3266,-0.7947 l 0,0 C 44.1653,72.348 45.1907,71.8 46.16,71.176 l 0,0 c 0.4093,-0.2627 0.6,-0.5653 0.9467,-0.884 l 0,0 c 1.112,-1.02 2.3426,-1.9 3.3053,-3.0853 l 0,0 c 0.5347,-0.664 1.0627,-1.3307 1.5867,-2.0027 l 0,0 c 1.3786,-1.7693 2.7266,-3.5667 3.9773,-5.4307 l 0,0 c 0.9267,-1.3786 3.604,-6.608 3.8227,-7.1146 l 0,0 c 2.64,-6.0867 4.9493,-12.9667 4.9493,-19.708 l 0,0 c 0,-13.6094 -12.8733,-18.6934 -28.7613,-18.6934 l 0,0 c -15.8787,0 -28.7547,5.084 -28.7547,18.6934 z"
       id="path113"
       style="fill:url(#linearGradient3162)"
       inkscape:connector-curvature="0" />
    <path
       d="m 35.6832,15.1569 0,28.5774 27.3493,0 c 1.1534,-3.9227 1.784,-7.5707 1.784,-10.4707 0,-13.184 -13.016,-18.1067 -29.0733,-18.1067 z"
       id="path97"
       inkscape:connector-curvature="0"
       style="fill:#ffed0d" />
    <path
       d="m 35.6808,9.76694 c -2.6373,2.42536 -7.3107,4.79596 -12.9093,6.28796 -6.752,1.7974 -12.94937,1.8107 -16.16537,0.316 l 0,15.6947 29.07467,0 0,-22.29866 z"
       id="path99"
       inkscape:connector-curvature="0"
       style="fill:#000000" />
    <path
       d="m 35.6807,15.1576 c -16.0574,0 -29.07337,4.9227 -29.07337,18.1067 0,2.9 0.632,6.5466 1.78533,10.4706 l 27.34804,0 0,-28.5773 z"
       id="path101"
       inkscape:connector-curvature="0"
       style="fill:#000000" />
    <path
       d="m 35.7589,71.3737 -10.1053,0 10.0973,6.324 0.008,-0.0053 0,-6.3187 z"
       id="path103"
       inkscape:connector-curvature="0"
       style="fill:#ffed0d" />
    <path
       d="m 35.7433,75.0376 0,-31.296 -27.34664,0 c 4.09064,13.908 14.76264,31.3 27.28664,31.3 z"
       id="path105"
       inkscape:connector-curvature="0"
       style="fill:#ffed0d" />
    <path
       d="m 35.6625,71.3737 0,6.3187 0.008,0.0053 10.096,-6.324 -10.104,0 z"
       id="path107"
       inkscape:connector-curvature="0"
       style="fill:#000000" />
    <path
       d="m 35.6781,43.7421 0.06,31.3 c 12.524,0 23.1947,-17.392 27.2867,-31.3 l -27.3467,0 z"
       id="path109"
       inkscape:connector-curvature="0"
       style="fill:#000000" />
    <path
       d="m 61.936,33.388 -0.0133,0 c 0,0.0747 0.0133,0.1413 0.0133,0.216 0,10.1907 -8.5733,30.604 -20.068,36.1347 l -5.9,3.6693 -6.264,-3.912 c -0.848,-0.4427 -1.68,-0.9627 -2.492,-1.5547 l -0.3507,-0.22 0.0614,0 C 17.112,60.3213 10.128,42.7987 10.128,33.604 c 0,-0.0747 0.012,-0.1413 0.0133,-0.216 l -0.0133,0 0,-13.8747 c 2.9867,1.1107 8.216,1 13.8773,-0.5226 5.0667,-1.364 9.2894,-3.5387 11.6174,-5.752 l 0.2973,0 c 2.3267,2.2133 6.548,4.388 11.612,5.752 6.0187,1.6186 11.5387,1.6346 14.404,0.292 m 3.2573,-3.424 c -3.2546,1.548 -9.5306,1.5306 -16.372,-0.3334 C 43.0533,13.952 38.2507,11.4427 35.6093,8.888 l -0.328,0 c -2.6453,2.5547 -7.4493,5.064 -13.212,6.6373 -6.4373,1.752 -12.38264,1.8787 -15.77464,0.6 l 0,16.0014 0.00667,0 c -0.00133,0.08 -0.00667,0.156 -0.00667,0.236 0,10.596 7.93064,30.7826 19.07204,39.3266 l -0.0507,0 0.244,0.1547 c 1.0093,0.7573 2.044,1.4107 3.1,1.9613 l 7.0147,4.444 6.584,-4.1613 c 13.1293,-6.2893 22.9346,-29.94 22.9346,-41.7253 0,-0.08 -0.0066,-0.156 -0.008,-0.236 l 0.008,0 0,-16.268 z"
       id="path111"
       style="fill:url(#linearGradient3164)"
       inkscape:connector-curvature="0" />
    <path
       d="m 18.42,38.3387 c 2.968,1.4053 6.0067,2.4493 9.6533,2.8706 5.7107,0.6614 11.3667,0.028 17.0254,-0.7986 9.7466,-1.416 19.208,-6.3694 24.468,-14.9187 1.5373,-2.508 1.972,-5.0693 2.1213,-8.0333 0.0947,-1.9627 -0.0347,-3.9467 0,-5.9134 0.0067,-0.8173 -0.0307,-1.5813 -0.0653,-2.39063 -0.8054,0.21733 -1.588,0.64 -2.424,0.85463 -3.3094,0.8414 -6.9987,0.608 -10.348,0.1854 C 57.7933,10.0587 56.7347,9.87067 55.6853,9.64667 54.876,9.47467 54.02,9.372 53.2107,9.172 52.0653,8.87867 50.852,8.568 49.7453,8.144 48.5267,7.676 47.2933,7.308 46.084,6.84801 44.7253,6.33733 43.3973,5.76266 42.1347,5.04 41.384,4.60533 40.56,4.26 39.828,3.78934 38.7747,3.11333 37.68,2.472 36.7787,1.60133 36.4187,1.26134 35.9733,0.626671 35.4133,0.695999 34.9827,0.745331 34.6453,1.23867 34.3867,1.528 33.9293,2.02133 32.02,3.288 31.544,3.51867 30.792,3.87067 30.148,4.4 29.4267,4.80267 28.8147,5.14133 28.1453,5.372 27.5493,5.73867 26.844,6.17467 26.004,6.45467 25.236,6.77334 23.908,7.31866 22.544,7.82667 21.1533,8.21467 19.856,8.568 18.5747,8.94934 17.2787,9.284 17.004,9.36 16.74,9.44267 16.464,9.512 14.1347,10.0827 11.744,10.3053 9.35067,10.5 8.31466,10.588 7.272,10.6067 6.22933,10.5 4.82266,10.3627 3.428,10.3813 2.03866,10.0693 1.35333,9.92134 0.881331,9.54933 0.234665,9.34666 -1.90735e-6,11.2213 0.139998,13.2187 0.170664,15.1067 c 0.026667,2.124 0.005334,4.2946 0.674667,6.3386 0.705329,2.1814 2.177329,4.0627 3.307999,6.036 1.88934,3.268 4.43067,5.432 7.69737,7.3067 2.284,1.3093 4.412,2.5267 6.5693,3.5507 z"
       id="path115"
       style="fill:url(#linearGradient3166)"
       inkscape:connector-curvature="0" />
    <path
       d="m 31.3867,12.628 c -0.5107,0.368 -1.012,0.508 -1.5734,0.792 l 0,0 c -3.196,1.6307 -6.8613,2.7133 -10.4,3.3507 l 0,0 c -2.5786,0.468 -5.1973,0.7386 -7.8226,0.6173 l 0,0 C 10.1627,17.3187 8.65333,17.18 7.332,16.6467 l 0,0 C 7.07866,16.544 6.82266,16.4653 6.57733,16.344 l 0,0 C 6.51066,16.5693 6.63467,21.7507 6.58,23.2907 l 0,0 c -0.036,1.028 0.17733,2.0453 0.49733,3.0293 l 0,0 c 0.58267,1.772 1.78,3.3 2.708,4.9027 l 0,0 c 1.53597,2.656 3.59997,4.416 6.26137,5.9333 l 0,0 c 1.8626,1.0693 3.596,2.06 5.3586,2.892 l 0,0 c 2.4174,1.1413 4.8974,1.9893 7.8587,2.3307 l 0,0 c 4.664,0.54 9.2627,0.0226 13.8813,-0.644 l 0,0 c 7.9307,-1.152 15.6507,-5.1787 19.928,-12.128 l 0,0 c 1.256,-2.0374 1.616,-4.1187 1.74,-6.528 l 0,0 c 0.0787,-1.592 -0.0413,-3.204 0,-4.8067 l 0,0 c 0.0054,-0.6613 -0.0306,-1.2853 -0.0573,-1.9427 l 0,0 c -0.6587,0.1827 -1.2893,0.524 -1.972,0.7 l 0,0 c -2.7027,0.68 -5.704,0.4934 -8.4347,0.1454 l 0,0 c -1.3893,-0.1707 -6.208,-1.0214 -8.4506,-1.88 l 0,0 C 44.6613,14.82 41.096,13.3307 40.5733,13.0787 l 0,0 C 39.4987,12.56 35.4413,9.89734 35.628,9.49867 l 0,0 C 35.0893,10.6893 31.6387,12.436 31.3867,12.628 z"
       id="path117"
       style="fill:url(#linearGradient3168)"
       inkscape:connector-curvature="0" />
  </g>
</svg>
