<?xml version="1.0" encoding="UTF-8" standalone="no"?>
<svg
   xmlns:dc="http://purl.org/dc/elements/1.1/"
   xmlns:cc="http://creativecommons.org/ns#"
   xmlns:rdf="http://www.w3.org/1999/02/22-rdf-syntax-ns#"
   xmlns:svg="http://www.w3.org/2000/svg"
   xmlns="http://www.w3.org/2000/svg"
   xmlns:xlink="http://www.w3.org/1999/xlink"
   xmlns:sodipodi="http://sodipodi.sourceforge.net/DTD/sodipodi-0.dtd"
   xmlns:inkscape="http://www.inkscape.org/namespaces/inkscape"
   width="140"
   height="140"
   viewBox="0 0 140 140"
   version="1.1"
   id="svg30"
   sodipodi:docname="icon.svg"
   inkscape:version="0.92.5 (2060ec1f9f, 2020-04-08)"
   inkscape:export-filename="/var/lib/odoo/trey/addons/trey-addons/wiki/static/description/icon.png"
   inkscape:export-xdpi="96"
   inkscape:export-ydpi="96">
  <metadata
     id="metadata34">
    <rdf:RDF>
      <cc:Work
         rdf:about="">
        <dc:format>image/svg+xml</dc:format>
        <dc:type
           rdf:resource="http://purl.org/dc/dcmitype/StillImage" />
        <dc:title></dc:title>
      </cc:Work>
    </rdf:RDF>
  </metadata>
  <sodipodi:namedview
     pagecolor="#ffffff"
     bordercolor="#666666"
     borderopacity="1"
     objecttolerance="10"
     gridtolerance="10"
     guidetolerance="10"
     inkscape:pageopacity="0"
     inkscape:pageshadow="2"
     inkscape:window-width="1920"
     inkscape:window-height="1016"
     id="namedview32"
     showgrid="false"
     inkscape:zoom="2"
     inkscape:cx="-100.14621"
     inkscape:cy="38.414772"
     inkscape:window-x="0"
     inkscape:window-y="27"
     inkscape:window-maximized="1"
     inkscape:current-layer="svg30" />
  <defs
     id="defs9">
    <path
       id="icon-a"
       d="m 4,0 c 32.416012,0 54.083607,0 61,0 4,0 5,1 5,5 0,38.048888 0,57.423546 0,60 0,4 -1,5 -5,5 C 61,70 9,70 4,70 1,70 0,69 0,65 0,62.467658 0,41.800521 0,5 0,1 1,0 4,0 Z"
       inkscape:connector-curvature="0" />
    <linearGradient
       id="icon-c"
       x1="70"
       x2="0"
       y1="0"
       y2="70"
       gradientUnits="userSpaceOnUse">
      <stop
         offset="0%"
         stop-color="#CD7690"
         id="stop3" />
      <stop
         offset="100%"
         stop-color="#CA5377"
         id="stop5" />
    </linearGradient>
    <path
       id="icon-d"
       d="M 18.045007,57.225 C 16.62394,57.224954 15.319401,56.429267 14.655063,55.157345 12.96017,51.912539 12,48.213708 12,44.2875 12,31.426169 22.297451,21 35,21 47.702549,21 58,31.426169 58,44.2875 58,48.213708 57.03983,51.912539 55.344937,55.157345 54.680626,56.429292 53.37607,57.22499 51.954993,57.225 Z M 52.888889,41.7 c -1.411386,0 -2.555556,1.158472 -2.555556,2.5875 0,1.429028 1.14417,2.5875 2.555556,2.5875 1.411385,0 2.555555,-1.158472 2.555555,-2.5875 0,-1.429028 -1.14417,-2.5875 -2.555555,-2.5875 z M 35,28.7625 c 1.411385,0 2.555556,-1.158472 2.555556,-2.5875 0,-1.429028 -1.144171,-2.5875 -2.555556,-2.5875 -1.411385,0 -2.555556,1.158472 -2.555556,2.5875 0,1.429028 1.144171,2.5875 2.555556,2.5875 z M 17.111111,41.7 c -1.411385,0 -2.555555,1.158472 -2.555555,2.5875 0,1.429028 1.14417,2.5875 2.555555,2.5875 1.411385,0 2.555556,-1.158472 2.555556,-2.5875 0,-1.429028 -1.144171,-2.5875 -2.555556,-2.5875 z m 5.239528,-12.807478 c -1.411386,0 -2.555556,1.158472 -2.555556,2.5875 0,1.429028 1.14417,2.5875 2.555556,2.5875 1.411385,0 2.555555,-1.158472 2.555555,-2.5875 0,-1.429028 -1.14417,-2.5875 -2.555555,-2.5875 z m 25.298722,0 c -1.411385,0 -2.555555,1.158472 -2.555555,2.5875 0,1.429028 1.14417,2.5875 2.555555,2.5875 1.411385,0 2.555556,-1.158472 2.555556,-2.5875 0,-1.429028 -1.144171,-2.5875 -2.555556,-2.5875 z m -6.954146,2.549819 c -1.008406,-0.326672 -2.08701,0.23611 -2.409649,1.256878 l -3.667462,11.60421 c -2.644201,0.197944 -4.729215,2.431199 -4.729215,5.159071 0,2.858055 2.28834,5.175 5.111111,5.175 2.822771,0 5.111111,-2.316945 5.111111,-5.175 0,-1.598832 -0.716434,-3.027941 -1.841677,-3.97723 l 3.667142,-11.603159 c 0.322559,-1.020849 -0.233194,-2.113098 -1.241361,-2.43977 z"
       inkscape:connector-curvature="0" />
    <mask
       fill="#fff"
       id="icon-b">
      <use
         height="100%"
         width="100%"
         y="0"
         x="0"
         id="use11"
         xlink:href="#icon-a" />
    </mask>
    <symbol
       id="symbol11979">
      <path
         d="m 1146.5,986.43 h -24.956 v -10.714 h -3.5715 v 14.286 h 32.099 V 975.716 H 1146.5 Z m -21.027,-11.697 0.7366,-3.5045 17.478,3.6831 -0.7367,3.4822 -17.478,-3.6608 z m 2.2991,-8.3483 1.4956,-3.259 16.183,7.567 -1.4956,3.2366 -16.183,-7.5447 z m 4.4867,-7.9465 2.2768,-2.7456 13.706,11.451 -2.2768,2.7456 z m 8.8617,-8.4376 10.647,14.308 -2.8572,2.1429 -10.647,-14.308 z m -16.027,32.835 v -3.5492 h 17.857 v 3.5492 z"
         id="path11977"
         inkscape:connector-curvature="0" />
    </symbol>
    <symbol
       id="symbol10983">
      <path
         d="m 921.95,518.66 0.40179,7.0536 q 0.0893,1.5402 -1.8304,2.8572 -1.9197,1.317 -5.2456,2.0982 -3.3259,0.75894 -7.2099,0.75894 -3.884,0 -7.2099,-0.75894 -3.3259,-0.78126 -5.2456,-2.0982 -1.9197,-1.317 -1.8304,-2.8572 l 0.40179,-7.0536 12.813,4.0402 q 0.49108,0.15625 1.0714,0.15625 0.58036,0 1.0714,-0.15625 l 12.813,-4.0402 z m 11.339,-7.9242 q 0.49107,0.17857 0.49107,0.69197 0,0.5134 -0.49107,0.69197 l -25,7.8572 q -0.0893,0.0223 -0.22322,0.0223 -0.13393,0 -0.22322,-0.0223 l -14.554,-4.5983 q -0.95983,0.75893 -1.5848,2.5 -0.62501,1.7188 -0.75894,3.9732 1.4063,0.80358 1.4063,2.4331 0,1.5402 -1.2946,2.3884 l 1.2946,9.6653 q 0.0446,0.3125 -0.17857,0.55804 -0.20089,0.24554 -0.53572,0.24554 h -4.2858 q -0.33482,0 -0.53572,-0.24554 -0.22322,-0.24554 -0.17857,-0.55804 l 1.2946,-9.6653 q -1.2946,-0.84822 -1.2946,-2.3884 0,-1.6295 1.4509,-2.4777 0.24553,-4.6206 2.1875,-7.3662 l -7.4331,-2.3215 q -0.49107,-0.17857 -0.49107,-0.69197 0,-0.5134 0.49107,-0.69197 l 25,-7.8572 q 0.0893,-0.0223 0.22322,-0.0223 0.13393,0 0.22322,0.0223 l 25,7.8572 z"
         id="path10981"
         inkscape:connector-curvature="0" />
    </symbol>
    <clipPath
       clipPathUnits="userSpaceOnUse"
       id="clipPath30534">
      <rect
         ry="4"
         rx="4"
         y="0"
         x="0"
         height="70"
         width="70"
         id="rect30536"
         style="opacity:0.25;vector-effect:none;fill:#e0004d;fill-opacity:1;stroke:none;stroke-width:1.97505093;stroke-linecap:butt;stroke-linejoin:miter;stroke-miterlimit:4;stroke-dasharray:none;stroke-dashoffset:0;stroke-opacity:0;paint-order:normal" />
    </clipPath>
  </defs>
  <g
     id="g27"
     transform="matrix(2,0,0,2,0,-140)">
    <rect
       ry="4"
       rx="4"
       y="70"
       x="0"
       height="70"
       width="70"
       id="rect16300"
       style="opacity:1;vector-effect:none;fill:#cc6886;fill-opacity:1;stroke:none;stroke-width:1.97505093;stroke-linecap:butt;stroke-linejoin:miter;stroke-miterlimit:4;stroke-dasharray:none;stroke-dashoffset:0;stroke-opacity:0;paint-order:normal" />
    <path
       transform="translate(0,70)"
       clip-path="url(#clipPath30534)"
       sodipodi:nodetypes="cccccc"
       inkscape:connector-curvature="0"
       id="path30526"
       d="M 8.3737496,27.650719 -18.043736,60.27914 -16.03604,90.22727 22.612109,87.215731 62.260035,28.47081 Z"
       style="fill:#9b4d65;fill-opacity:1;stroke:none;stroke-width:1.0516504px;stroke-linecap:butt;stroke-linejoin:miter;stroke-opacity:1" />
    <use
       id="use30524"
       style="fill:#6e3848;fill-opacity:1"
       xlink:href="#symbol10983"
       x="0"
       y="0"
       width="100%"
       height="100%"
       transform="matrix(1.0516503,0,0,1.0516503,-919.60545,-437.76159)" />
    <use
       transform="matrix(1.0516503,0,0,1.0516503,-919.60545,-439.86489)"
       height="100%"
       width="100%"
       y="0"
       x="0"
       xlink:href="#symbol10983"
       style="fill:#ffffff"
       id="use30512" />
  </g>
</svg>
