<?xml version="1.0" encoding="UTF-8" standalone="no"?>
<!-- Created with Inkscape (http://www.inkscape.org/) -->

<svg
   xmlns:dc="http://purl.org/dc/elements/1.1/"
   xmlns:cc="http://creativecommons.org/ns#"
   xmlns:rdf="http://www.w3.org/1999/02/22-rdf-syntax-ns#"
   xmlns:svg="http://www.w3.org/2000/svg"
   xmlns="http://www.w3.org/2000/svg"
   xmlns:xlink="http://www.w3.org/1999/xlink"
   xmlns:sodipodi="http://sodipodi.sourceforge.net/DTD/sodipodi-0.dtd"
   xmlns:inkscape="http://www.inkscape.org/namespaces/inkscape"
   id="svg2"
   version="1.1"
   inkscape:version="0.91 r13725"
   width="100"
   height="79"
   sodipodi:docname="facebook_follow.svg"
   inkscape:export-filename="/var/lib/odoo/cej/addons/trey-addons/website_facebook_plugins/static/src/img/facebook_comments.png"
   inkscape:export-xdpi="90"
   inkscape:export-ydpi="90">
  <metadata
     id="metadata8">
    <rdf:RDF>
      <cc:Work
         rdf:about="">
        <dc:format>image/svg+xml</dc:format>
        <dc:type
           rdf:resource="http://purl.org/dc/dcmitype/StillImage" />
        <dc:title></dc:title>
      </cc:Work>
    </rdf:RDF>
  </metadata>
  <defs
     id="defs6">
    <symbol
       id="symbol7192">
      <title
         id="title7194">Photo Camera</title>
      <circle
         cx="24"
         cy="24"
         r="6.4000001"
         id="circle7196" />
      <path
         d="M 18,4 14.34,8 8,8 C 5.79,8 4,9.79 4,12 l 0,24 c 0,2.21 1.79,4 4,4 l 32,0 c 2.21,0 4,-1.79 4,-4 L 44,12 C 44,9.79 42.21,8 40,8 L 33.66,8 30,4 18,4 Z m 6,30 c -5.52,0 -10,-4.48 -10,-10 0,-5.52 4.48,-10 10,-10 5.52,0 10,4.48 10,10 0,5.52 -4.48,10 -10,10 z"
         style="stroke:none"
         id="path7198"
         inkscape:connector-curvature="0" />
    </symbol>
    <symbol
       id="symbol4264">
      <title
         id="title4266">Format Align Left</title>
      <path
         d="M30 30h-24v4h24v-4zm0-16h-24v4h24v-4zm-24 12h36v-4h-36v4zm0 16h36v-4h-36v4zm0-36v4h36v-4h-36z"
         style="stroke:none"
         id="path4268" />
    </symbol>
    <symbol
       id="symbol4252">
      <title
         id="title4254">Format Align Center</title>
      <path
         d="M14 30v4h20v-4h-20zm-8 12h36v-4h-36v4zm0-16h36v-4h-36v4zm8-12v4h20v-4h-20zm-8-8v4h36v-4h-36z"
         style="stroke:none"
         id="path4256" />
    </symbol>
    <symbol
       id="symbol7509">
      <title
         id="title7511">Chevron Right</title>
      <path
         d="M20 12l-2.83 2.83L26.34 24l-9.17 9.17L20 36l12-12z"
         style="stroke:none"
         id="path7513" />
    </symbol>
    <symbol
       id="symbol7503">
      <title
         id="title7505">Chevron Left</title>
      <path
         d="M30.83 14.83L28 12 16 24l12 12 2.83-2.83L21.66 24z"
         style="stroke:none"
         id="path7507" />
    </symbol>
    <symbol
       id="icon-facebook"
       viewBox="0 0 16 28">
      <title
         id="title7235">facebook</title>
      <path
         class="path1"
         d="M14.984 0.187v4.125h-2.453c-1.922 0-2.281 0.922-2.281 2.25v2.953h4.578l-0.609 4.625h-3.969v11.859h-4.781v-11.859h-3.984v-4.625h3.984v-3.406c0-3.953 2.422-6.109 5.953-6.109 1.687 0 3.141 0.125 3.563 0.187z"
         id="path7237" />
    </symbol>
    <symbol
       id="icon-comments"
       viewBox="0 0 28 28">
      <title
         id="title7126">comments</title>
      <path
         class="path1"
         d="M22 12c0 4.422-4.922 8-11 8-0.953 0-1.875-0.094-2.75-0.25-1.297 0.922-2.766 1.594-4.344 2-0.422 0.109-0.875 0.187-1.344 0.25h-0.047c-0.234 0-0.453-0.187-0.5-0.453v0c-0.063-0.297 0.141-0.484 0.313-0.688 0.609-0.688 1.297-1.297 1.828-2.594-2.531-1.469-4.156-3.734-4.156-6.266 0-4.422 4.922-8 11-8s11 3.578 11 8zM28 16c0 2.547-1.625 4.797-4.156 6.266 0.531 1.297 1.219 1.906 1.828 2.594 0.172 0.203 0.375 0.391 0.313 0.688v0c-0.063 0.281-0.297 0.484-0.547 0.453-0.469-0.063-0.922-0.141-1.344-0.25-1.578-0.406-3.047-1.078-4.344-2-0.875 0.156-1.797 0.25-2.75 0.25-2.828 0-5.422-0.781-7.375-2.063 0.453 0.031 0.922 0.063 1.375 0.063 3.359 0 6.531-0.969 8.953-2.719 2.609-1.906 4.047-4.484 4.047-7.281 0-0.812-0.125-1.609-0.359-2.375 2.641 1.453 4.359 3.766 4.359 6.375z"
         id="path7128" />
    </symbol>
    <symbol
       id="icon-plus-circle"
       viewBox="0 0 24 28">
      <title
         id="title6911">plus-circle</title>
      <path
         class="path1"
         d="M19 15v-2c0-0.547-0.453-1-1-1h-4v-4c0-0.547-0.453-1-1-1h-2c-0.547 0-1 0.453-1 1v4h-4c-0.547 0-1 0.453-1 1v2c0 0.547 0.453 1 1 1h4v4c0 0.547 0.453 1 1 1h2c0.547 0 1-0.453 1-1v-4h4c0.547 0 1-0.453 1-1zM24 14c0 6.625-5.375 12-12 12s-12-5.375-12-12 5.375-12 12-12 12 5.375 12 12z"
         id="path6913" />
    </symbol>
  </defs>
  <sodipodi:namedview
     pagecolor="#ffffff"
     bordercolor="#666666"
     borderopacity="1"
     objecttolerance="10"
     gridtolerance="10"
     guidetolerance="10"
     inkscape:pageopacity="0"
     inkscape:pageshadow="2"
     inkscape:window-width="1920"
     inkscape:window-height="1056"
     id="namedview4"
     showgrid="false"
     inkscape:zoom="5.6568543"
     inkscape:cx="19.474227"
     inkscape:cy="14.880067"
     inkscape:window-x="1920"
     inkscape:window-y="24"
     inkscape:window-maximized="1"
     inkscape:current-layer="layer1"
     showguides="true"
     inkscape:guide-bbox="true">
    <sodipodi:guide
       position="5,102.5"
       orientation="1,0"
       id="guide12749"
       inkscape:label=""
       inkscape:color="rgb(0,0,255)" />
    <sodipodi:guide
       position="95,80.5"
       orientation="1,0"
       id="guide12751"
       inkscape:label=""
       inkscape:color="rgb(0,0,255)" />
  </sodipodi:namedview>
  <g
     inkscape:groupmode="layer"
     id="layer1"
     inkscape:label="Layer 1">
    <rect
       style="color:#000000;clip-rule:nonzero;display:inline;overflow:visible;visibility:visible;opacity:1;isolation:auto;mix-blend-mode:normal;color-interpolation:sRGB;color-interpolation-filters:linearRGB;solid-color:#000000;solid-opacity:1;fill:#ffffff;fill-opacity:1;fill-rule:nonzero;stroke:none;stroke-width:8;stroke-linecap:butt;stroke-linejoin:miter;stroke-miterlimit:4;stroke-dasharray:16, 32;stroke-dashoffset:0;stroke-opacity:1;color-rendering:auto;image-rendering:auto;shape-rendering:auto;text-rendering:auto;enable-background:accumulate"
       id="rect12753"
       width="100"
       height="79"
       x="0"
       y="0" />
    <use
       id="use20356"
       xlink:href="#icon-facebook"
       x="0"
       y="0"
       width="100%"
       height="100%"
       transform="matrix(0.53166602,0,0,0.53166602,6.1895748,20)"
       style="fill:#717576;fill-opacity:1" />
    <use
       id="use58086"
       xlink:href="#icon-plus-circle"
       x="0"
       y="0"
       width="100%"
       height="100%"
       transform="matrix(0.35443038,0,0,0.35443038,48.54765,26)"
       style="fill:#717576;fill-opacity:1" />
  </g>
</svg>
