<?xml version="1.0" encoding="UTF-8" standalone="no"?>
<!-- Created with Inkscape (http://www.inkscape.org/) -->

<svg
   xmlns:dc="http://purl.org/dc/elements/1.1/"
   xmlns:cc="http://creativecommons.org/ns#"
   xmlns:rdf="http://www.w3.org/1999/02/22-rdf-syntax-ns#"
   xmlns:svg="http://www.w3.org/2000/svg"
   xmlns="http://www.w3.org/2000/svg"
   xmlns:xlink="http://www.w3.org/1999/xlink"
   xmlns:sodipodi="http://sodipodi.sourceforge.net/DTD/sodipodi-0.dtd"
   xmlns:inkscape="http://www.inkscape.org/namespaces/inkscape"
   id="svg2"
   version="1.1"
   inkscape:version="0.91 r13725"
   width="100"
   height="79"
   sodipodi:docname="facebook_page.svg"
   inkscape:export-filename="/var/lib/odoo/cej/addons/trey-addons/website_facebook_plugins/static/src/img/facebook_page.png"
   inkscape:export-xdpi="90"
   inkscape:export-ydpi="90">
  <metadata
     id="metadata8">
    <rdf:RDF>
      <cc:Work
         rdf:about="">
        <dc:format>image/svg+xml</dc:format>
        <dc:type
           rdf:resource="http://purl.org/dc/dcmitype/StillImage" />
        <dc:title></dc:title>
      </cc:Work>
    </rdf:RDF>
  </metadata>
  <defs
     id="defs6">
    <symbol
       id="symbol7192">
      <title
         id="title7194">Photo Camera</title>
      <circle
         cx="24"
         cy="24"
         r="6.4000001"
         id="circle7196" />
      <path
         d="M 18,4 14.34,8 8,8 C 5.79,8 4,9.79 4,12 l 0,24 c 0,2.21 1.79,4 4,4 l 32,0 c 2.21,0 4,-1.79 4,-4 L 44,12 C 44,9.79 42.21,8 40,8 L 33.66,8 30,4 18,4 Z m 6,30 c -5.52,0 -10,-4.48 -10,-10 0,-5.52 4.48,-10 10,-10 5.52,0 10,4.48 10,10 0,5.52 -4.48,10 -10,10 z"
         style="stroke:none"
         id="path7198"
         inkscape:connector-curvature="0" />
    </symbol>
    <symbol
       id="symbol4264">
      <title
         id="title4266">Format Align Left</title>
      <path
         d="M30 30h-24v4h24v-4zm0-16h-24v4h24v-4zm-24 12h36v-4h-36v4zm0 16h36v-4h-36v4zm0-36v4h36v-4h-36z"
         style="stroke:none"
         id="path4268" />
    </symbol>
    <symbol
       id="symbol4252">
      <title
         id="title4254">Format Align Center</title>
      <path
         d="M14 30v4h20v-4h-20zm-8 12h36v-4h-36v4zm0-16h36v-4h-36v4zm8-12v4h20v-4h-20zm-8-8v4h36v-4h-36z"
         style="stroke:none"
         id="path4256" />
    </symbol>
    <symbol
       id="symbol7509">
      <title
         id="title7511">Chevron Right</title>
      <path
         d="M20 12l-2.83 2.83L26.34 24l-9.17 9.17L20 36l12-12z"
         style="stroke:none"
         id="path7513" />
    </symbol>
    <symbol
       id="symbol7503">
      <title
         id="title7505">Chevron Left</title>
      <path
         d="M30.83 14.83L28 12 16 24l12 12 2.83-2.83L21.66 24z"
         style="stroke:none"
         id="path7507" />
    </symbol>
    <symbol
       id="icon-facebook"
       viewBox="0 0 16 28">
      <title
         id="title7235">facebook</title>
      <path
         class="path1"
         d="M14.984 0.187v4.125h-2.453c-1.922 0-2.281 0.922-2.281 2.25v2.953h4.578l-0.609 4.625h-3.969v11.859h-4.781v-11.859h-3.984v-4.625h3.984v-3.406c0-3.953 2.422-6.109 5.953-6.109 1.687 0 3.141 0.125 3.563 0.187z"
         id="path7237" />
    </symbol>
    <symbol
       id="icon-comments"
       viewBox="0 0 28 28">
      <title
         id="title7126">comments</title>
      <path
         class="path1"
         d="M22 12c0 4.422-4.922 8-11 8-0.953 0-1.875-0.094-2.75-0.25-1.297 0.922-2.766 1.594-4.344 2-0.422 0.109-0.875 0.187-1.344 0.25h-0.047c-0.234 0-0.453-0.187-0.5-0.453v0c-0.063-0.297 0.141-0.484 0.313-0.688 0.609-0.688 1.297-1.297 1.828-2.594-2.531-1.469-4.156-3.734-4.156-6.266 0-4.422 4.922-8 11-8s11 3.578 11 8zM28 16c0 2.547-1.625 4.797-4.156 6.266 0.531 1.297 1.219 1.906 1.828 2.594 0.172 0.203 0.375 0.391 0.313 0.688v0c-0.063 0.281-0.297 0.484-0.547 0.453-0.469-0.063-0.922-0.141-1.344-0.25-1.578-0.406-3.047-1.078-4.344-2-0.875 0.156-1.797 0.25-2.75 0.25-2.828 0-5.422-0.781-7.375-2.063 0.453 0.031 0.922 0.063 1.375 0.063 3.359 0 6.531-0.969 8.953-2.719 2.609-1.906 4.047-4.484 4.047-7.281 0-0.812-0.125-1.609-0.359-2.375 2.641 1.453 4.359 3.766 4.359 6.375z"
         id="path7128" />
    </symbol>
    <symbol
       id="icon-plus-circle"
       viewBox="0 0 24 28">
      <title
         id="title6911">plus-circle</title>
      <path
         class="path1"
         d="M19 15v-2c0-0.547-0.453-1-1-1h-4v-4c0-0.547-0.453-1-1-1h-2c-0.547 0-1 0.453-1 1v4h-4c-0.547 0-1 0.453-1 1v2c0 0.547 0.453 1 1 1h4v4c0 0.547 0.453 1 1 1h2c0.547 0 1-0.453 1-1v-4h4c0.547 0 1-0.453 1-1zM24 14c0 6.625-5.375 12-12 12s-12-5.375-12-12 5.375-12 12-12 12 5.375 12 12z"
         id="path6913" />
    </symbol>
    <symbol
       id="icon-thumbs-o-up"
       viewBox="0 0 24 28">
      <title
         id="title7131">thumbs-o-up</title>
      <path
         class="path1"
         d="M4 21c0-0.547-0.453-1-1-1s-1 0.453-1 1 0.453 1 1 1 1-0.453 1-1zM22 12c0-1.062-0.953-2-2-2h-5.5c0-1.828 1.5-3.156 1.5-5 0-1.828-0.359-3-2.5-3-1 1.016-0.484 3.406-2 5-0.438 0.453-0.812 0.938-1.203 1.422-0.703 0.906-2.562 3.578-3.797 3.578h-0.5v10h0.5c0.875 0 2.312 0.562 3.156 0.859 1.719 0.594 3.5 1.141 5.344 1.141h1.891c1.766 0 3-0.703 3-2.609 0-0.297-0.031-0.594-0.078-0.875 0.656-0.359 1.016-1.25 1.016-1.969 0-0.375-0.094-0.75-0.281-1.078 0.531-0.5 0.828-1.125 0.828-1.859 0-0.5-0.219-1.234-0.547-1.609 0.734-0.016 1.172-1.422 1.172-2zM24 11.984c0 0.906-0.266 1.797-0.766 2.547 0.094 0.344 0.141 0.719 0.141 1.078 0 0.781-0.203 1.563-0.594 2.25 0.031 0.219 0.047 0.453 0.047 0.672 0 1-0.328 2-0.938 2.781 0.031 2.953-1.984 4.688-4.875 4.688h-2.016c-2.219 0-4.281-0.656-6.344-1.375-0.453-0.156-1.719-0.625-2.156-0.625h-4.5c-1.109 0-2-0.891-2-2v-10c0-1.109 0.891-2 2-2h4.281c0.609-0.406 1.672-1.813 2.141-2.422 0.531-0.688 1.078-1.359 1.672-2 0.938-1 0.438-3.469 2-5 0.375-0.359 0.875-0.578 1.406-0.578 1.625 0 3.187 0.578 3.953 2.094 0.484 0.953 0.547 1.859 0.547 2.906 0 1.094-0.281 2.031-0.75 3h2.75c2.156 0 4 1.828 4 3.984z"
         id="path7133" />
    </symbol>
    <symbol
       id="icon-flag"
       viewBox="0 0 29 28">
      <title
         id="title6676">flag</title>
      <path
         class="path1"
         d="M5 4c0 0.719-0.391 1.359-1 1.719v19.781c0 0.266-0.234 0.5-0.5 0.5h-1c-0.266 0-0.5-0.234-0.5-0.5v-19.781c-0.609-0.359-1-1-1-1.719 0-1.109 0.891-2 2-2s2 0.891 2 2zM28 5v11.922c0 0.578-0.359 0.797-0.812 1.031-1.766 0.953-3.719 1.813-5.766 1.813-2.875 0-4.25-2.188-7.656-2.188-2.484 0-5.094 1.125-7.25 2.281-0.172 0.094-0.328 0.141-0.516 0.141-0.547 0-1-0.453-1-1v-11.594c0-0.375 0.187-0.641 0.484-0.859 0.375-0.25 0.828-0.469 1.234-0.672 1.969-1 4.359-1.875 6.578-1.875 2.453 0 4.375 0.812 6.547 1.828 0.438 0.219 0.891 0.297 1.375 0.297 2.453 0 5.094-2.125 5.781-2.125 0.547 0 1 0.453 1 1z"
         id="path6678" />
    </symbol>
  </defs>
  <sodipodi:namedview
     pagecolor="#ffffff"
     bordercolor="#666666"
     borderopacity="1"
     objecttolerance="10"
     gridtolerance="10"
     guidetolerance="10"
     inkscape:pageopacity="0"
     inkscape:pageshadow="2"
     inkscape:window-width="1920"
     inkscape:window-height="1056"
     id="namedview4"
     showgrid="false"
     inkscape:zoom="5.6568543"
     inkscape:cx="19.474227"
     inkscape:cy="14.880067"
     inkscape:window-x="1920"
     inkscape:window-y="24"
     inkscape:window-maximized="1"
     inkscape:current-layer="layer1"
     showguides="true"
     inkscape:guide-bbox="true">
    <sodipodi:guide
       position="5,102.5"
       orientation="1,0"
       id="guide12749"
       inkscape:label=""
       inkscape:color="rgb(0,0,255)" />
    <sodipodi:guide
       position="95,80.5"
       orientation="1,0"
       id="guide12751"
       inkscape:label=""
       inkscape:color="rgb(0,0,255)" />
  </sodipodi:namedview>
  <g
     inkscape:groupmode="layer"
     id="layer1"
     inkscape:label="Layer 1">
    <rect
       style="color:#000000;clip-rule:nonzero;display:inline;overflow:visible;visibility:visible;opacity:1;isolation:auto;mix-blend-mode:normal;color-interpolation:sRGB;color-interpolation-filters:linearRGB;solid-color:#000000;solid-opacity:1;fill:#ffffff;fill-opacity:1;fill-rule:nonzero;stroke:none;stroke-width:8;stroke-linecap:butt;stroke-linejoin:miter;stroke-miterlimit:4;stroke-dasharray:16, 32;stroke-dashoffset:0;stroke-opacity:1;color-rendering:auto;image-rendering:auto;shape-rendering:auto;text-rendering:auto;enable-background:accumulate"
       id="rect12753"
       width="100"
       height="79"
       x="0"
       y="0" />
    <use
       id="use20356"
       xlink:href="#icon-facebook"
       x="0"
       y="0"
       width="100%"
       height="100%"
       transform="matrix(0.53166602,0,0,0.53166602,6.1895748,20)"
       style="fill:#717576;fill-opacity:1" />
    <use
       id="use58230"
       xlink:href="#icon-flag"
       x="0"
       y="0"
       width="100%"
       height="100%"
       transform="matrix(0.35443038,0,0,0.35443038,48.547649,26)"
       style="fill:#717576;fill-opacity:1" />
  </g>
</svg>
