<?xml version="1.0" encoding="UTF-8" standalone="no"?>
<!-- Created with Inkscape (http://www.inkscape.org/) -->

<svg
   xmlns:dc="http://purl.org/dc/elements/1.1/"
   xmlns:cc="http://creativecommons.org/ns#"
   xmlns:rdf="http://www.w3.org/1999/02/22-rdf-syntax-ns#"
   xmlns:svg="http://www.w3.org/2000/svg"
   xmlns="http://www.w3.org/2000/svg"
   xmlns:xlink="http://www.w3.org/1999/xlink"
   xmlns:sodipodi="http://sodipodi.sourceforge.net/DTD/sodipodi-0.dtd"
   xmlns:inkscape="http://www.inkscape.org/namespaces/inkscape"
   id="svg2"
   version="1.1"
   inkscape:version="0.92.3 (2405546, 2018-03-11)"
   width="128"
   height="128"
   sodipodi:docname="icon.svg"
   inkscape:export-filename="/var/lib/odoo/lolitasyl/addons/trey-addons/website_facebook_pixel/static/description/icon.png"
   inkscape:export-xdpi="96.000008"
   inkscape:export-ydpi="96.000008">
  <metadata
     id="metadata8">
    <rdf:RDF>
      <cc:Work
         rdf:about="">
        <dc:format>image/svg+xml</dc:format>
        <dc:type
           rdf:resource="http://purl.org/dc/dcmitype/StillImage" />
        <dc:title />
      </cc:Work>
    </rdf:RDF>
  </metadata>
  <defs
     id="defs6">
    <symbol
       id="symbol5748">
      <title
         id="title5750">Grade</title>
      <path
         d="M24 34.54l12.36 7.46-3.27-14.06 10.91-9.45-14.38-1.24-5.62-13.25-5.62 13.25-14.38 1.24 10.91 9.45-3.27 14.06z"
         style="stroke:none"
         id="path5752" />
    </symbol>
    <symbol
       id="symbol4786">
      <title
         id="title4788">Person</title>
      <path
         d="M24 24c4.42 0 8-3.59 8-8 0-4.42-3.58-8-8-8s-8 3.58-8 8c0 4.41 3.58 8 8 8zm0 4c-5.33 0-16 2.67-16 8v4h32v-4c0-5.33-10.67-8-16-8z"
         style="stroke:none"
         id="path4790" />
    </symbol>
    <symbol
       id="symbol5791">
      <title
         id="title5793">Https</title>
      <path
         d="M36 16h-2v-4c0-5.52-4.48-10-10-10s-10 4.48-10 10v4h-2c-2.21 0-4 1.79-4 4v20c0 2.21 1.79 4 4 4h24c2.21 0 4-1.79 4-4v-20c0-2.21-1.79-4-4-4zm-12 18c-2.21 0-4-1.79-4-4s1.79-4 4-4 4 1.79 4 4-1.79 4-4 4zm6.2-18h-12.4v-4c0-3.42 2.78-6.2 6.2-6.2 3.42 0 6.2 2.78 6.2 6.2v4z"
         style="stroke:none"
         id="path5795" />
    </symbol>
    <symbol
       id="symbol5857">
      <title
         id="title5859">Lock Open</title>
      <path
         d="M24 34c2.21 0 4-1.79 4-4s-1.79-4-4-4-4 1.79-4 4 1.79 4 4 4zm12-18h-2v-4c0-5.52-4.48-10-10-10s-10 4.48-10 10h3.8c0-3.42 2.78-6.2 6.2-6.2 3.42 0 6.2 2.78 6.2 6.2v4h-18.2c-2.21 0-4 1.79-4 4v20c0 2.21 1.79 4 4 4h24c2.21 0 4-1.79 4-4v-20c0-2.21-1.79-4-4-4zm0 24h-24v-20h24v20z"
         style="stroke:none"
         id="path5861" />
    </symbol>
    <symbol
       id="symbol10530">
      <title
         id="title10532">Local Grocery Store</title>
      <path
         d="M14 36c-2.21 0-3.98 1.79-3.98 4s1.77 4 3.98 4 4-1.79 4-4-1.79-4-4-4zM2 4v4h4l7.19 15.17-2.7 4.9c-.31.58-.49 1.23-.49 1.93 0 2.21 1.79 4 4 4h24v-4H14.85c-.28 0-.5-.22-.5-.5 0-.09.02-.17.06-.24L16.2 26h14.9c1.5 0 2.81-.83 3.5-2.06l7.15-12.98c.16-.28.25-.61.25-.96 0-1.11-.9-2-2-2H10.43l-1.9-4H2zm32 32c-2.21 0-3.98 1.79-3.98 4s1.77 4 3.98 4 4-1.79 4-4-1.79-4-4-4z"
         style="stroke:none"
         id="path10534" />
    </symbol>
    <symbol
       id="symbol5119">
      <title
         id="title5121">Mail</title>
      <path
         d="M40 8h-32c-2.21 0-3.98 1.79-3.98 4l-.02 24c0 2.21 1.79 4 4 4h32c2.21 0 4-1.79 4-4v-24c0-2.21-1.79-4-4-4zm0 8l-16 10-16-10v-4l16 10 16-10v4z"
         style="stroke:none"
         id="path5123" />
    </symbol>
    <symbol
       id="symbol7506">
      <title
         id="title7508">Check</title>
      <path
         d="M18 32.34L9.66 24l-2.83 2.83L18 38l24-24-2.83-2.83z"
         style="stroke:none"
         id="path7510" />
    </symbol>
    <clipPath
       clipPathUnits="userSpaceOnUse"
       id="clipPath13866">
      <rect
         style="opacity:1;fill:#d50000;fill-opacity:1;stroke:none;stroke-width:4;stroke-linecap:butt;stroke-linejoin:miter;stroke-miterlimit:4;stroke-dasharray:none;stroke-dashoffset:0;stroke-opacity:1"
         id="rect13868"
         width="33.185184"
         height="17.777779"
         x="7.4074073"
         y="-0.53565156" />
    </clipPath>
    <symbol
       id="facebook"
       viewBox="0 0 448 512">
      <title
         id="facebook-title">Facebook</title>
      <path
         d="M448 56.7v398.5c0 13.7-11.1 24.7-24.7 24.7H309.1V306.5h58.2l8.7-67.6h-67v-43.2c0-19.6 5.4-32.9 33.5-32.9h35.8v-60.5c-6.2-.8-27.4-2.7-52.2-2.7-51.6 0-87 31.5-87 89.4v49.9h-58.4v67.6h58.4V480H24.7C11.1 480 0 468.9 0 455.3V56.7C0 43.1 11.1 32 24.7 32h398.5c13.7 0 24.8 11.1 24.8 24.7z"
         id="path6101" />
    </symbol>
    <symbol
       id="facebook-f"
       viewBox="0 0 264 512">
      <title
         id="facebook-f-title">Facebook F</title>
      <path
         d="M76.7 512V283H0v-91h76.7v-71.7C76.7 42.4 124.3 0 193.8 0c33.3 0 61.9 2.5 70.2 3.6V85h-48.2c-37.8 0-45.1 18-45.1 44.3V192H256l-11.7 91h-73.6v229"
         id="path6105" />
    </symbol>
    <symbol
       id="icon-facebook-official"
       viewBox="0 0 24 28">
      <title
         id="title14303">facebook-official</title>
      <path
         class="path1"
         d="M22.672 2c0.734 0 1.328 0.594 1.328 1.328v21.344c0 0.734-0.594 1.328-1.328 1.328h-6.109v-9.297h3.109l0.469-3.625h-3.578v-2.312c0-1.047 0.281-1.75 1.797-1.75l1.906-0.016v-3.234c-0.328-0.047-1.469-0.141-2.781-0.141-2.766 0-4.672 1.687-4.672 4.781v2.672h-3.125v3.625h3.125v9.297h-11.484c-0.734 0-1.328-0.594-1.328-1.328v-21.344c0-0.734 0.594-1.328 1.328-1.328h21.344z"
         id="path14305" />
    </symbol>
    <symbol
       id="symbol5748-7">
      <title
         id="title5750-9">Grade</title>
      <path
         inkscape:connector-curvature="0"
         id="path5752-2"
         style="stroke:none"
         d="M 24,34.54 36.36,42 33.09,27.94 44,18.49 29.62,17.25 24,4 18.38,17.25 4,18.49 14.91,27.94 11.64,42 Z" />
    </symbol>
    <symbol
       id="symbol4786-0">
      <title
         id="title4788-2">Person</title>
      <path
         inkscape:connector-curvature="0"
         id="path4790-3"
         style="stroke:none"
         d="m 24,24 c 4.42,0 8,-3.59 8,-8 0,-4.42 -3.58,-8 -8,-8 -4.42,0 -8,3.58 -8,8 0,4.41 3.58,8 8,8 z m 0,4 C 18.67,28 8,30.67 8,36 v 4 H 40 V 36 C 40,30.67 29.33,28 24,28 Z" />
    </symbol>
    <symbol
       id="symbol5791-7">
      <title
         id="title5793-5">Https</title>
      <path
         inkscape:connector-curvature="0"
         id="path5795-9"
         style="stroke:none"
         d="M 36,16 H 34 V 12 C 34,6.48 29.52,2 24,2 18.48,2 14,6.48 14,12 v 4 h -2 c -2.21,0 -4,1.79 -4,4 v 20 c 0,2.21 1.79,4 4,4 h 24 c 2.21,0 4,-1.79 4,-4 V 20 c 0,-2.21 -1.79,-4 -4,-4 z M 24,34 c -2.21,0 -4,-1.79 -4,-4 0,-2.21 1.79,-4 4,-4 2.21,0 4,1.79 4,4 0,2.21 -1.79,4 -4,4 z M 30.2,16 H 17.8 v -4 c 0,-3.42 2.78,-6.2 6.2,-6.2 3.42,0 6.2,2.78 6.2,6.2 z" />
    </symbol>
    <symbol
       id="symbol5857-2">
      <title
         id="title5859-2">Lock Open</title>
      <path
         inkscape:connector-curvature="0"
         id="path5861-8"
         style="stroke:none"
         d="m 24,34 c 2.21,0 4,-1.79 4,-4 0,-2.21 -1.79,-4 -4,-4 -2.21,0 -4,1.79 -4,4 0,2.21 1.79,4 4,4 z M 36,16 H 34 V 12 C 34,6.48 29.52,2 24,2 18.48,2 14,6.48 14,12 h 3.8 c 0,-3.42 2.78,-6.2 6.2,-6.2 3.42,0 6.2,2.78 6.2,6.2 v 4 H 12 c -2.21,0 -4,1.79 -4,4 v 20 c 0,2.21 1.79,4 4,4 h 24 c 2.21,0 4,-1.79 4,-4 V 20 c 0,-2.21 -1.79,-4 -4,-4 z m 0,24 H 12 V 20 h 24 z" />
    </symbol>
    <symbol
       id="symbol10530-9">
      <title
         id="title10532-7">Local Grocery Store</title>
      <path
         inkscape:connector-curvature="0"
         id="path10534-3"
         style="stroke:none"
         d="m 14,36 c -2.21,0 -3.98,1.79 -3.98,4 0,2.21 1.77,4 3.98,4 2.21,0 4,-1.79 4,-4 0,-2.21 -1.79,-4 -4,-4 z M 2,4 v 4 h 4 l 7.19,15.17 -2.7,4.9 C 10.18,28.65 10,29.3 10,30 c 0,2.21 1.79,4 4,4 H 38 V 30 H 14.85 c -0.28,0 -0.5,-0.22 -0.5,-0.5 0,-0.09 0.02,-0.17 0.06,-0.24 L 16.2,26 h 14.9 c 1.5,0 2.81,-0.83 3.5,-2.06 L 41.75,10.96 C 41.91,10.68 42,10.35 42,10 42,8.89 41.1,8 40,8 H 10.43 L 8.53,4 Z m 32,32 c -2.21,0 -3.98,1.79 -3.98,4 0,2.21 1.77,4 3.98,4 2.21,0 4,-1.79 4,-4 0,-2.21 -1.79,-4 -4,-4 z" />
    </symbol>
    <symbol
       id="symbol5119-6">
      <title
         id="title5121-1">Mail</title>
      <path
         inkscape:connector-curvature="0"
         id="path5123-2"
         style="stroke:none"
         d="M 40,8 H 8 C 5.79,8 4.02,9.79 4.02,12 L 4,36 c 0,2.21 1.79,4 4,4 h 32 c 2.21,0 4,-1.79 4,-4 V 12 C 44,9.79 42.21,8 40,8 Z M 40,16 24,26 8,16 V 12 L 24,22 40,12 Z" />
    </symbol>
    <symbol
       id="symbol7506-9">
      <title
         id="title7508-3">Check</title>
      <path
         inkscape:connector-curvature="0"
         id="path7510-1"
         style="stroke:none"
         d="M 18,32.34 9.66,24 6.83,26.83 18,38 42,14 39.17,11.17 Z" />
    </symbol>
    <clipPath
       id="clipPath13866-9"
       clipPathUnits="userSpaceOnUse">
      <rect
         y="-0.53565156"
         x="7.4074073"
         height="17.777779"
         width="33.185184"
         id="rect13868-4"
         style="opacity:1;fill:#d50000;fill-opacity:1;stroke:none;stroke-width:4;stroke-linecap:butt;stroke-linejoin:miter;stroke-miterlimit:4;stroke-dasharray:none;stroke-dashoffset:0;stroke-opacity:1" />
    </clipPath>
    <clipPath
       id="clipPath38-2"
       clipPathUnits="userSpaceOnUse">
      <path
         inkscape:connector-curvature="0"
         id="path36-9-9"
         d="M 0,841.89 H 595.28 V 0 H 0 Z" />
    </clipPath>
  </defs>
  <sodipodi:namedview
     pagecolor="#ffffff"
     bordercolor="#666666"
     borderopacity="1"
     objecttolerance="10"
     gridtolerance="10"
     guidetolerance="10"
     inkscape:pageopacity="0"
     inkscape:pageshadow="2"
     inkscape:window-width="1920"
     inkscape:window-height="1025"
     id="namedview4"
     showgrid="false"
     inkscape:zoom="4"
     inkscape:cx="56.064276"
     inkscape:cy="56.913332"
     inkscape:window-x="1366"
     inkscape:window-y="27"
     inkscape:window-maximized="1"
     inkscape:current-layer="layer1"
     showguides="true"
     inkscape:guide-bbox="true">
    <sodipodi:guide
       position="64,100.23239"
       orientation="1,0"
       id="guide5698"
       inkscape:label=""
       inkscape:color="rgb(0,0,255)"
       inkscape:locked="false" />
    <sodipodi:guide
       position="88.741901,64"
       orientation="0,1"
       id="guide5700"
       inkscape:label=""
       inkscape:color="rgb(0,0,255)"
       inkscape:locked="false" />
  </sodipodi:namedview>
  <g
     inkscape:groupmode="layer"
     id="layer1"
     inkscape:label="Layer 1">
    <use
       id="use18416"
       style="fill:#c51d52"
       xlink:href="#facebook"
       x="0"
       y="0"
       width="100%"
       height="100%"
       transform="matrix(1.1428571,0,0,1.1428571,-9.1428544,-9.1428544)" />
    <g
       style="fill:#ffffff"
       transform="matrix(0.70952032,0,0,0.70952032,32.232804,-24.874348)"
       id="g16283-7-4">
      <path
         inkscape:connector-curvature="0"
         id="path16279-5-0"
         style="fill:#ffffff;fill-opacity:1;fill-rule:nonzero;stroke:none;stroke-width:1.4477253"
         d="m -16.548287,76.236085 v -9.742818 h 9.0383881 L -0.17396172,47.742605 H -10.159106 l -6.389181,17.402719 -5.944319,-17.402719 h -10.251776 l 11.827327,29.259323 -0.296574,0.796712 c -0.377847,0.959876 -0.748565,1.736009 -1.115006,2.328398 -0.367866,0.59239 -0.951033,1.087762 -1.75378,1.486118 -0.802747,0.398356 -1.916327,0.596799 -3.34359,0.596799 -1.149226,-0.02058 -2.536567,-0.173454 -4.159171,-0.458624 l -0.119769,7.903913 c 2.356909,0.511542 4.328844,0.765843 5.914375,0.765843 2.674873,0 4.873515,-0.535061 6.597354,-1.608123 1.723838,-1.071593 3.01137,-2.278421 3.862595,-3.614604 0.852651,-1.337653 1.625456,-2.885508 2.318413,-4.642097 l 1.691044,-4.320178 z" />
      <path
         d="M 7.6878636,76.382128 H -1.8586389 V 66.835626 H 7.6878636 Z"
         style="fill:#ffffff;fill-opacity:1;fill-rule:nonzero;stroke:none;stroke-width:1.44032931"
         id="path16281-3-5"
         inkscape:connector-curvature="0" />
    </g>
  </g>
</svg>
